<mxfile host="app.diagrams.net" modified="2022-07-28T02:15:01.210Z" agent="5.0 (Windows NT 10.0; Win64; x64) AppleWebKit/537.36 (KHTML, like Gecko) Chrome/103.0.0.0 Safari/537.36" etag="hZGBMrsORY8ZjUpCWQBs" version="20.0.4" type="github">
  <diagram id="C5RBs43oDa-KdzZeNtuy" name="Page-1">
    <mxGraphModel dx="1237" dy="642" grid="1" gridSize="10" guides="1" tooltips="1" connect="1" arrows="1" fold="1" page="1" pageScale="1" pageWidth="827" pageHeight="1169" math="0" shadow="0">
      <root>
        <mxCell id="WIyWlLk6GJQsqaUBKTNV-0" />
        <mxCell id="WIyWlLk6GJQsqaUBKTNV-1" parent="WIyWlLk6GJQsqaUBKTNV-0" />
        <mxCell id="wTCChwKyPf_tFk7K6GKb-0" value="" style="shape=image;verticalLabelPosition=bottom;labelBackgroundColor=default;verticalAlign=top;aspect=fixed;imageAspect=0;image=data:image/png,iVBORw0KGgoAAAANSUhEUgAAAi8AAAEHCAYAAABmw6aCAAAgAElEQVR4nOzdeVzU1734/9dnWAQVXIAZGBTcURiEAaK4BFeMYmwSTGJrbJqk6ZKY5td0s71N0l7N7be2yU17H2pS6zW218ZqLppbIyEqKq7jwiYDCooC6sAM4AKo7Of3x7CvMwgq5jwfDx8P+cz5nM/57O/P+ZxzPkpQUJBAkiRJkiSpn1A96AJIkiRJkiTZQwYvkiRJkiT1KzJ4kSRJkiSpX5HBiyRJkiRJ/YoMXiRJkiRJ6ldk8CJJkiRJUr8igxdJkiRJkvoVGbxIkiRJktSvyOBFkiRJkqR+RQYvkiRJkiT1Kw5qtfq3PZ15+Py3+elrzzDkyn5ySrr+yoA9aXUvrSRYMXO56FZPi9YnhPBj/qqf8tidXDJ7UDahX8myhSNRLFlYyhW759fFrGb24PbL1r20mtlK92US+liWhQ2hJOcKtxUFoV/JyoUjuasMQe0zovW/sKeYPd5M5oWHax9IkiRJkmNPZxRCiz7MD6UsifTsWqDzm7FdabWxRAVpyN6b32W6dvPpV7IypJDD6Sab0mtCYgggnrhPTmBWlBZ5JHM4vSFRSAxR6jTi1sY1pNHi4WUmKyUfFPuDDyV1PUk+q/n+CihuyrObcsasRJe2jkSTAmpvKMxHCH/mr3oVj32b2J6iJTDIG9Jt2V4+BOggaU/zFA9MGFMN7ZfrE4OnWgsU2LWOkiRJktTXehy8qMZEofOCG0nHKBBd3zTtSRu8YCFkJmDWTEOnaf1bRwFHSx3diDUxq1nKJjbEt74JG1MNJEK7IMSj4TcAXcgrlOw7A2HT0AH4xBCQmUZW498AITE8EwTHP3zHGmA0EPpYlvmYyCpsU8jCNLLV4BU2Da9WP2iJivbh8NZ1GFvkU7QnmVnvr2Heh+9gbpwYtoQASzwbUgvANwLP4gTiUrAt1rOYbAqaGtNKkiRJ0sOmR8GLECrGRkTgTiFJJy/Tda2LHWn1K4liMxu2tK8JsNbIeFPyaceBS28TIpJANrMjtQAowIw1mMlOj8OY2mL5qQaMQNv1Cg5ZCOnfw5iqIIQf3uQ3lduY2sHy9CuJsrSNdEBRDGRlxtAcx/kT7JNM3CcnQFHwDg0F46b7sk0kSZIk6WHQs5oXp8mEBLtTn7+PNAtdP/HbmFaISJZFw+G1J9rVhgjhx/wVC+Hge+xI7cObtLmQ0sb/h4VTunddU4GF8EOjTifLhhoOoV/JM0FFHN9r/Tv45bd5Rp3OrrXrMDasm0Yfy6wQyNobR8Y1f4LZzYYtBa0y12gj8dIA6fGYNdPQqMHTRwuFMGvVX/E0vsdhNZRYtOj02qb5AqNfIcCymY2fnKAIf4LDGn7z0YBaiy5mNc/MMbPrU6x/6yPbrYNGDVjs3H6SJEmSdB/0KHgZEDqD8a71FKScoKybJ35b0goRybKXw8nauhvNqjUEGjexo+E1j7WR7NtMt2xmTfz9a38R7JNMYstAyTeCAEsyiYqCJiYWr7S4Vq93WlJS17MmFUBBE7OaKDazca21xkj30kaeYTMbP4lje4o/819ewzNqM8e3rsPYJioymwyYG97caGJWE6tWOF9owphagDHVYN1uq8xk7T2B0aQ0bKtXKd36PdaYFFAUFAowpjZsS8J5Rm3CGL8TY3xDkGVpftXW2OYn7pMTFBMO2NfuSJIkSZLuB7uDFyEGMzlch3NNJmkpt+j6lVH3aYWIZP7LWpI+WYdZUchYG8+y919lXto77L/mz/xVbxNg2cyaDl4ltdNBLYJGDRDRqmaise1MR6+nmmnRCNH0OsY7NBQsZxp+CyUq9AxGU9fBlCZmJbPYZK1Raejd80xQEdkHwdwQWCRueRdjzGq+/9YbmH/WXDPTahvpV7JUl8YxozcePhG8vvxVSj59h+2EgzG5VZk9vMxkXaPHMYcH1rKRuh6zDFwkSZKkh5D9NS9DpxE8xoEqo4Gsu3R9k7QhrbevicQthqZXRYpiIOlDEzCNZatewdP4XrvGtp2ytG+w29Qwt4VinxgC6LoxasYeE8teXkrSJ3EU4Y9OB9lbm2siSgqt/2/bngWstUXBiyMgbR07GmpnhDaWlcs1HP/wHfazlGUvRZLU0PDYHP8uu4ikuINyCG0sy0IKiVsbh9fLC/EojGP9h7BywVLmW5LZnqZlvgaMJsBXi2dxYYf5tKTRxzLLx0RSIZTSIuBrfK2kjwS0BEYvtG/7S5IkSdJ9YHfw4vlYJL6q26SdSqGum1dGtqQ1d1B7UUQEK98KpeTT96w9ah4ARTGQZFnN0sVniCtcwnTMHG/oAaVRgyfWHkeB0a8QQAIbW3R9VpQCjPHN7VeEiGTZilBKPrX2SFLYyfa9saxc9UZT7yJjvKF9Wx99LMt8zrCjoebGi3RKzaCYdrI+PZLglBPANAj1h9QC0PjgYUnutPGutw8QFMOsdOtrOU1MDCXp65oaIDe9VmoIAI2pO/ti00qSJEnSPbEreBFiJPrwkSi3DpGe093YLranbZ4nkmWrXiHAq4jsg/Fk0bohqrU2IBT2vdO3DXcbFBWa8QjRUrRnN7ugqe1IsU8MHoUnMKYqzTU9nbXn0UaybEUMpVtbd6VWTDtZvzWSZSv+ShTpHN66u9VrKCH88DbHNa1n8/g3DfOnGqyvmIQJ1BFoRD74aCjtoHuzRh/LrOiFeFIEmfENPajASw2lafe6lSRJkiTp/rIreFGNnUmQJ5QeOsaV7sZ2sSMtgEa/kqXRGvAqajdmSiMh/NBEh9I84EkbnfScabcsG3vSePtYOygrSkGH3ZtblqvtqyOwBg1Lo30AKO1g3BoIx5N0SiwaYn/yDrFAifFLDu+NswYyLebRhITiUZxmHf8mNJwoXWHD4HkFGC1L0Pn6g86bkn2tG9kKEcms5Qvh0/dYzxLeDWkus0ZtxsxSnn8JstJNrV8bhcQQ1W27IEmSJEm6/2wOXoRQMS4iAndxjUOn8uhubBdb0zZ3Gd7N+rUwf9Wr9pS/tQ7avHQ0SF2xTzge7YdUaS6/NpJlb71CANbGtR01Am58bdTYNqTlqyOhjWT+gnBIb7FO5hPteicJrZYofMj65B22+/oTHKqleE/zODbmVANmGsaciTaza20cRkVB4xMDxt1N6YoKYemCJeCVzuE2XbkVxcCOnzdsE32LhTf0ntqPlig1FKecwKwYMMY3rKNPDHTTLkiSJEmSHgTba16cQggJdqO+4CsbxnbpPq0Qfnj7gjl1JzuaajX8bC/5PTDHr2dHF78rJgPbPwRvTmDuoAao5WsjaNE2RGlswNvQCBnofp2sDWwVU4G1tqWD10/ei2PwNG7CqCjWmhSdmcNrW3yiICWZkuWv4HnwvQ57K3XEOzSUkvQ4YKlN6SVJkiTpYWFz8DJAP4PxLvXkJZ+gvLuxXWxIqygFTWOYPDQ0Png01DYoJkOPugr3xXoV7dlEnK+WeS+9SkCQN2QmUOxLU8WId1g4nsVFoItAs6f966u2hPBDpzOTtQfw7d2ySpIkSVJfsyl4EWIwIWE6nGqMpKeW0d3YLram7YxHaEftQwC0eEDzKLhfE4pSQBFaZqkh+9P3MLKEpW+tIfvDdzCGrmGpLo24tetg8Rq+v8qHXW2+j9TYJqeocULYEjz2rSOxKcjxQdfmW0tyhF1JkiTpYWVbzcvQ6QSPUVF59gTnuh3bxY607TQMspbWvn0IWG/C+Jgo7mAQNu9WY5Q062iQOqtwopaHwMH7M45JhwGZjw/QReMbQGj9CF6whEBLMklr32moVVnPenMk8xe8waz0hvY8igLx77JLvZrYn2wiyvIlh7c2jwLstXgNP5jrQ8mBZOb7JLMjvuUGLMSY0vqbUdaxcCRJkiTp4WNT8OI1JRJfVQWpp9O6HdvFnrRtNTcu7fxVkzG+43YhFJrJ5kxTd+ZGHQ1SZ2XosAdRR12N2/JSA4X+gK2D53UckAmzlkB1x8sTwo/gsAgwn8G4Zb31448tvouk8zFhbBiVuCXjlncp1vtBSn6bcWfepTjNjyLA+1p+q21Y0tE6F6aRbZafB5AkSZIePkpQUJB40IWQJEmSJEmylepBF0CSJEmSJMkeMniRJEmSJKlfkcGLJEmSJEn9igxeJEmSJEnqV2TwIkmSJElSvyKDF0mSJEmS+hUZvEiSJEmS1K/I4EWSJEmSpH5FBi+SJEmSJPUrMniRJEmSJKlfkcGLJEkPnFC5MHi4J4Mc5ddKJEnqnm1flZYeSs6TVvD9b89kcPlJdv15M9l3eucjin2VryS1JQYHMue5ZUyZ6MMAVSVpm3/E7nMPulSSJD3sZPDyENB95y/EBqu4fvj3rPtXLgBCuBH5+h95YqwDpoRfs2m/pd18Tu7DGeSkwsltOG69uCf7Il/hMpsX1yxHfepPfPBZVu9kastyRz7Lm28uYFgXXzgXdans/MV6Mu38CnpfcZu1ireWjGv6u76ukoriC2Qe2knS6StU32M5H9S+aFcO4UTgMz/g8UlVXD68g7PXSim++sCKI0lSPyKDl4eEKLuJ0+SpjNx9kStCAbcIAjQ3uVE1vNN5Kgzr+fN5D5yrSimr7L0bb1/l+0DcPMvxL2/j0vCns38UMwMHc8UQz4UbDRNFIUUPqnydEOIO+ccTyL0FKuehaCZOYeqytxnt8Xs2JVym/iEJtO6ND75aVzDtZc/ufdxQFOBRWC9JkvqaDF4eFhUXyHfUEzRmG1dyBYNDwvC+dJG8wCm4dzKLotRRectCZS8Xpa/yfRCU8hySD+Q0/e02azIzAwdgSY/n2MUWN8qHLhiopCg1nmN51nKJr/YR+cPfsGDuMqac+j2GG93M3i/UUFcHODjKxneSJNml2+BFiPEs/s3PGXN2G8YRTzJVXYFxxwecdH+Rby0OwNFsYM8nW8kpb774q9zGMyXmKULH+jJksIqqWxZMGfs4sP8kJdWtbxIufrOZs3A2E3w9GOzqSE15MUUXDByN/5JLZaLHaZ1HzGR29GwCRmkY7FzPnZtmrqXt59DBjsowl4VPP0GA1g1RYeLike18cWseP39hLMkf/YyESz1bN7s4lXIhYwTzwybx1cUCAoNHkZ/+fzgFT2mzP/yI/tXbTPdsXpaoNLDt15u42OYG7DZrFT9+0pED7/+DmvnLmTZpBIOUcooyvuLLzxMpbFGrYk++1m3W/b4QIpBvrP4x+kEt5p/6Fu9Obf6z7SsxW7evEFN4/g+vojV8wN8vhbL4ian4DnWg8noe5/ZvIzG1kLoeBiT27GNbjrOenENtKaKE5OQcoscEMcJPBTeaj3fbymD/vrDnHOqZCu5WAkMHMRAo7YUcJUn6enBQq9W/7TqJBxNmz2C4Sy1Vl7ModZ1EaMBIVPUlmIoc8A3U44+RUzk3ARAuOpa89RYzRqoozjpJ1vnL3FJ8CJgyG/3oSrJO51LZcFMRg6fx3I9eJNi9nEupJ8jKOo+53IUR+ijCgweSZzBSJnqQVhPNd95YTsDAEnJTT5Fz8Qq3HX2ZOHUWev8KMs5cpqqxDO6z+db/9y0ChlRyJeU45y9dxyUwmgmDq/DyGULhmb1cvKHYvW72UIcuYZLbJY7sK2TiotGUnB6I/klHjLuK8JkVjGPuAVIu3W5IXU993R1K885x+cJ57rpPxMvlGsYDKVxvs+wBo2YSOcGBysF6xjlfJst4gRsOvowNegyd9w3SUguoaZrH9nxt3xcClDuUXs4mP68S99EaVFcNHDOkkp+bTX5uNnm52RTdrOnB9vUlKDoMtzuDGaP34oYxhUvX7uA2ajITw/UMvJzEhev17ba1dZsMpjD5Ky5cb7+v7Dp+bT7O7DuHrGV05drpfeTebC5j3dBgpoeOpCInAeO1ejvLYOe+sOMc6rl6vEMXM37YVTIOpnPzoav9kiTpYWXza6Mh5Rl8sfsItYFDCXhFTelH2zCUT8B10s8J89KiiMsIRWFw+BOEDK0k+5/vsSO5AgAh/oXx6dW8NDOax0bvY2+eNU/VmGBGuwou7VzL/56427Ss0xlzCfUDh4FAuf1pXV3vkpO4jUNnDnC5rPHJczcXvvU7loVHMdnzIEcbHvPU0+Yw2vkO5z99j89SrRmIvQeZvvK36LjTahvYs249cuU05++8wYQ5A/G+mMz2amdC2yRRlHLyDV+SDwjhgH700wQO6TxLRfHHt/JD1v89k1pFQYgDFP1wDQsDZxLsdpSTFfbna+u+UJQScg7uJgdrI1G/eZMZYDKQtK/jRqI92b7uo1Qc+sNa0htqLQ6fforv/3gxodPDSLhgsLttiD1lsOc4A9vPIXvYWgZ794W962Yrleswhgx0ApUjLp56AkfAndzzD12bI0mSHm42By/1tdXWaviaGmqppqoSoIbaWlBUDjQ82+HhpUahGEvJQIZ5DGyav8JiopYQhns5Ql6dNc+KCipRcNeOZZAqg9v11otkec4BjuRAy8Z79qStzDvKsTwQwhFX92G4OlvfqFfcuA4MZdAQoBSEUFBrPEFkk51R1pSHIoo5f97EfP+hrbaBPevWMwUYjVW8PDOAizs+oZrIe8jLSog75J61Bi4AinKD7JxrLBznwVA1UGF/nvbsC3v0ZPuK/DQym3cddaY0Lt5YzDQPNUMAe5uG2FMGW4+zRraeQ/awtwwPOt/hM3/E60+MBEDUlVOYuo3/+d+TPaqxlCTp66vXG+yqHFQoij9RP/oPojr4XVGpgIYbUO5eDmWFEhP5Jm9F3ObW9RJumq9w9eIZkg2ZlNW3uKDZkVaovAh8cgXzpgYwfIBDq+ULcbPFrVWFk5MT1FdTXUOre251dc29rVsPFR76mH9ecOH6pbu9tHcqqa5qPaWmuhpwxKGnrSTt2W926Mn2ra+ubArMrK5ycstaslU3Givi+qwMth9nfaevytBX+Zad/V/iigeD4swgjZ6pc55hUWE2f0sy9TBHSZK+jvqkt5EQJlI/28Pl6va/lRfUNv1fUUpI2fwuBQFhTBg7Go1ajYdvONODZzIlbBebN8RTXK/YndZ73ms887iGmxkJfHnOxJ2GOMR5wmKefGxgi9LUU18vQFFZb+QtHntVnTwJ2rpuPaXcNnG5sfbiIe0LZs++sNe9bl9FqaO8KNcauPTwad7WMth+nPWdvipDX+Vbbc4i02z9vxBpqMb+J9HTZuJzaDuFsvZFkiQb9frtsb6uHqjjZu5JMku7vxgpSiWlOcc5kXMcACFcGR37a749fS7ho+JJuGRfWiE8GB84AofS/ez6265WF0T3YXOBgS3yE9y8cRNUvviMUJF5pbGXjCM+vt5A65ulvev2KLNnv9nqYdi+tpbBnuOstzgPHoQT9dRU1fZpGe7fulVTWwO4uuLaSzlKkvT10OvDK5QWWxBoGR/igyKaqzIGjp5B5Kwo/N2ap7nrnuLJ554jyKv54qgod7l+swJwwrFFaGV72lrq6wHHATi3mF84jCAkyLddm4JrZ9O4KbyI+OZ3mRo0Fo12PIHRPyTCp/1LB3vW7VFmz35rUlNDrQAHR6dO830Ytq/tZbDvOLtXQvEkPGw8Sv1lrl5u7EXVwzJ0uy/u17oNwsUFqKzkbrdpJUmSmvV6zUtF8lekz5lA6MJVvKI1kFtczyDNGMYFjsWlaDd/O9yctvyWwojwaEImjmFcahaldwUDho9jkn4M4tZxzuXZn1ZRbpGdkcusxTOIfc2ZjBwLdS5ejAgKoCInixr/Ma3KW5v7Of/3lTexC6bwxMtTEaKeO/lf8n8pzoyNaf08aM+69RXhGcL0ydqGqFPBezjg6MPEeTFoAKrzyTiSSZmdVfD25GvPfmtSe5Gr1+oZp4vl2SWjKa6sA2opTIknp6GG42HYvraWwd7jzH4ueOtjmDGmeYTdib5OmPdv59RNQLmHMnSzL/p+3RoNYoArUHnnkRgQUZKk+6fXgxel0sieP79PccxThI6LJFLnSE2ZhWuGrSQlJFEkWjSsvfI5WzdWMDv6ccZOWYjORUXt7RuUZO/lQML/kVvds7QlSR+z3XE5c6foCJ/rSM31fLIPfcRXN2fz0zYdeBTlLgWJH7I+ZTR+2iGIiqtcySvGde6/AfXUtmgfas+69RmfKcxZ9BiOrYITf8Ji/AEQt49w7UgmZX2Yrz37opGimDm2bQvuS5cwadoiAp1VCHGXtKvx5DT0WnkYtq89ZbDnOLO7HMpARs2IZRTWbxvdLrnE6R1xHDyV36r7d0/KYMu+6Mt1a1ZvbWdWX0/7EXkkSZI6pwQFBX093nXYQQh3In7wH8SMzSP+398nWX5VWZJ6nRCOBL34AUt1ZZzduRXDpVIqbhRzu1aeb5Ikde0h7c9yfwmXMYROD2AwoDgMZvi4CHRjnCk7vY+M28hvxUlSH1CUWjL3/INxmheY/OxPmUwlaZt/xO5zD7pkkiQ97GTNCyA8FvODXz6Ft6JQX3uH8lIT+cm7SUzKpLxORi6S1JeE4spQ35Gohw2iIi+Fwi6+8SRJkgQyeJEkSZIkqZ+RX6KXJEmSJKlfkcGLJEmSJEn9igxeJEmSJEnqV2TwIkmSJElSvyKDF0mSJEmS+hUZvEiSJEmS1K/I4EWSJEmSpH5FBi+SJEmSJPUrMniRJEmSJKlfkcGLJEmSJN2D4fPf5u0/fsiSiQ69mvZeCP1Kno+JRCMezUH0H/ngxXnSCt743cf88lcvEzDw0dyJkiRJ0oMhhBZ9mB9K2RnSs2t7LW27efUref2lWHRa2+5jwSEheGLCrDya3wp75L8q7eQ+nEFOKpzchuPWS2srXGbz4prlqE/9iQ8+y+owjfO0t/jl0sCO5y/6go/++DklLQ4qR48Qpi9cRMiEkbg51VBx3UT+6X+x/8g5btff28FnS3kfBiL4e/z6xcdw7OBkE+Iy+9f8ByfKut4Wg6J+wU+WeHH6o5+RcOnRPGkl6evMecQcvrHiWQI9nREXtrH240SqH+ANWjUmCp0X3Eg6RoHouhydpRXCj/kvL4H0ZMwN0zQhMQQQz4YthqZ0HmoovgZ0s7pCRBIYlM7hT0ATFolXF2k10a8wnQQ2ro1rCnTsuRa7zVrFW0vGNf1eX1dJRfEFMg/tJOn0lT7bN4988FJhWM+fz3vgXFVKWeX9O8Br846SGH++9UQnbyZNj8S7tpaaFpOV4Y+z7M1vM8bRwsW0Q2SUCYaOn4LuybfwHfYBG3dlU/uIRs+tFJ7i4JdXUQHO/lHMDBzMFUM8F24A3CSv8gGXT5KkB0YIF3xmvMizSyJwL7tKSdUIPB54mVSMjYjAnUKSTl6mq6ii27RqDZhPYDQpCOGHJtqbkn2mnhUsLBzPg7sxKgWQWtAUEAltLCtXQFyLQMWYaiARoOU9xs5rsRB3yD+eQO4tUDkPRTNxClOXvc1oj9+zKeEy9X1w/3rkgxdFqaPyloX7fd+rLzzNscLmv1UekTz1vSWo76ay+9MEbjVGuMKBiYueZYxrESfWrWZ/gbUqUSQcouiNfyd6+tPo96/ldMV9XoEHQClJ58SBdADcZk1mZuAALOnxHLvYeOB/DQI4SZI6pp7PU88EU5PyKZt3FRH+y5888OAFp8mEBLtTn7+PNAtdX6LsSesbQYBlMxtSC5omeftogMLO52kghB/zozVkb81vvxCNDx6W5G5fJdl/La6kKDWeY3kN97Wv9hH5w9+wYO4yppz6PYYb3Rbbbo9k8CKEH9G/epvpni2q5SoNbPv1Ji622Wlus1bx4ycdOfD+P6iZv5xpk0YwSCmnKOMrvvw8kcLKxiAjkG+s/jH6QS3mn/oW705t/tOU8Gs27be0K4/jiPks++5z+JTu49Mtn5FX0bIMrtQUnSb5Zg7J+TVN0a+ilJB7sZjoUR4M8wTsDF56Ul6V23imxDxF6FhfhgxWUXXLgiljHwf2n6SkuvV2cx4xk9nRswkYpWGwcz13bpq5lrafQweb0woxnsW/+Tljzm7DOOJJpqorMO74gJPuL/KtxQE4mg3s+WQrOeU9C0ocvKYQ/ezTBPsPQ3XHTN6JHSRWynZNkvRIqsrj5JZ/56yxmDomYcvDvBAehLz4ExZNHEDhgfVs3X+pV2sBBoTOYLxrPQUpJyjrJl970nqHhpK9N462QUIp4AVNNSkdCltCgBewYBrGT060C1RKLT2szbGDIkpITs4hekwQI/xUcKP3r8uPZPACN7hwaBd3BwIoeIc/TeCQrtIr+Cz4Dl5OF8k4ks2gMVMIDv8mK1yrWL/5KHcUBbCQfWg3ZY6Agz/B8yYz6KoBQ1ZxUy5lue0jDKGZz4ofPMfwqzvZujmBoprWB5KiVJCbuJVc6x+tfnNzdwNKKe9R1GpfeYWLjsVv/ojQQTfISzvG+Zt1uPpMJnj2q7zi785fN+zjRmNtkSaaF157Dp/KXLKS93O90hG3EZPRzX+VMaMG8vHHB1udnIr/RIbkHiXbcQ5hi76DyCvGmDaY8CmzWDDrGDlf5Nm9dsI5iJgfvkro4HKupB8kr7SeoQEvMPd2H4T4kiTZzGGQJ+4unfcFqS4v5na1/TczpcxIWibW66StszsFEjzZiwGKgn+4Ho/9lyjufi6bCDGYyeE6nGsySUu5RdevjOxJ64dOHU+iqX2aEgtofMHYRfwRHAKHPzUT5dO+sa63j4aSwg5qZPpAze071KDCycURWjWU6B2PZPCiKOXkG74kH+trGf3oroMXRfHHt/JD1v89k1pFQYgDFP1wDQsDZxLsdpSTFdaakJyDu8nB2gDWb95kBpgMJO3rpgGsejRaFwXH8c/y3XdncPHoTvbuT+VGXdcHj3AIQhfohig8RM5N7D7W7C3v4PAnCBlaSfY/32NHsjWoEeJfGJ9ezUszo3ls9D72NsQYrq53yUncxqEzB7hc1ljLspsL3/ody8KjmOx5kKOlzXkPKc/gi91HqA0cSsArako/2oahfAKuk35OmJcWRVxG2Pk0NEA/jxD3GvJ3/z/+frjEWoa9h5n5xiOwfyoAACAASURBVG8J4LZ9G0uSpF4zcuEqXpw2tNPfL3z2OttO9v7NrEM16Zw5Pp1hk1wpOmqgtPs5bDd0GsFjHKgyGsi6S9fXaHvShkVAB7UuXmpvsAAaoJPgRehjCUxfx3beIAprIOQdpm1qsKvReePJNHSNfzc0Co7roIbmYfdIBi/2EuIOuWczmxrFKsoNsnOusXCcB0PV2P3KppW8RHb9Ix2HAUPwnhhF+PzX+Y7HBj7+RyqVnRwsQrgw9hvfInhwOZk7D1J6Hw4qDy81CsVYSgYyzGNg0/QKi4laQhju5Qh5dQBU5h3lWB4I4Yir+zBcna1PWRU3rgNDGTQEWl4l6murqVMUqKmhlmqqKgFqqK0FReWAgu0PUs3l1aBgItdYTONJrggL586ZmOvXZTWbJEl9yHJyK3G5Azr9vbzAvi7C90JRysjetZbsXU0Tei1vz8ci8VXdJu1UivX61ktpldSdmGOWorsWh7GpbaQfGnURpXtNeCyYBqmGdvMJ4cd8HxM74hXQN+SlFGBuaLBrbQRcRHaatVEwQLFPDB6F/S9wARm8NKikuqr1lJrqasARh3scCUcpv8S5tEsAZBiOUvDCapbpn2fmkVT2X2mfXggXfOf/iNjpntw8/l/sOVveqydcZ1QOKhTFn6gf/QdRHfyuqFSANXgRKi8Cn1zBvKkBDB/QeqAlIW7el2a1AwY4A7eobtMSu6q6+j4sXZKkzty5mk7m1Qddir4lxEj04SNRbh0iPaeWrl8D2Z62UcYeE8tWLaW4sVeQbwQBpBF3zYROvQSdONEU2DTxBeOeE13cL7R4eJnJsqGrdX8gg5f7SFHukp12jmp9JD7+bnCldZWOUNwZ/403Wfq4L+VnNvE/n2fe1/ELhDCR+tkeLndw/2/5tOQ97zWeeVzDzYwEvjxn4k5DDbDzhMU8+djA9jNLkvS10VdtXh4mqrEzCfKE0kPHuNLd2C52pG2kKAayLBuZFRbHjlRrA16MmzArBWDUMCsMjKlt5jEVdF+DUlzYqs2Pl9rblg5MDyUZvPQBIRzwn/UCk4dd4uTnRyhucUCpVCpr0Ftf33oep5FMXfEG0YEuFCWt55+7M7h9HwOX+rp6oI6buSfJLO3qKcKD8YEjcCjdz66/7aKwRRndh80F7k/wUlVVDTjh7ALcaZ4+wNn5vixfkqSOPVRtXvqAECrGRUTgLq5x6FQe3Y3tYmvatootRQSETEOkmNDpaOr6XJSWhueKpWhS4ux73eOrxdNy/0bcdR48CCfqqanqm9eEMnjpiZoaagU4ODp1+LOi1HHXdSz6mcE45qbxubGhAawyhNApwThRxJVLt2lqq+EewsJXvstjPnc5v+uP7Dp2pXcHpeumvAClxRYE4xkf4sOxxMKmBrQDR89gsp8DhSlJ5JcrQK017nIcgLMjjW+SEA4jCAnyRdynEXVKSywIAhgfrOH4ITNCURCKmkmTtCAb7ErSA/MwtXkRQoX/7JcJH6Gi5vI+9hyzv3NAO04hhAS7UV/wlQ1ju9iRFkDjj4Z8iq7546X2tnZrDltCgHETGxp7H107QzZvN9XK2EzjA5YzdszQc0LxJDxsPEr9Za5erqcv3lM9ksGL8Axh+mRtw4ebFLyHA44+TJwXgwagOp+MI5nd9rXvVO1Frl6rZ5wulmeXjKa4sg6opTAlnpyGWgtL0nZS9G8StuId3FLPcOWmimETHiPQz4XytK2cKgQUEMKV8G++xmO+tZRmnKbQJZip84JbLe561lecK6pvX45eLG9F8lekz5lA6MJVvKI1kFtczyDNGMYFjsWlaDd/O2zNSlFukZ2Ry6zFM4h9zZmMHAt1Ll6MCAqgIieLGv8xPS5my/3m7D8UcEIdEsMMP4CbXDp6nMKGMWSqUhLJiA5icswqXh5xiksldQwdH4brnUvUW/eyJEkPQF+1eVH5PMa0SZ4Nf3midgSGTiRy3gDqgLqiZAxZbcfZGktg1FR07rc5m7bl3gMXYIB+BuNd6slLPkF5d2O72JEWAHM+hK7hNz/xQVi+ZOPeCFauKCRubX6LMcAK2L81gZVvreF53mFHqm3rZB3krq0iSs0NvZLIb/48gB3XYisXvPUxzBjTPMLuRF8nzPu3c6oHvWVt8UgGL/hMYc6itt9l8Ccsxh8AcfsI145kUtbD7BXFzLFtW3BfuoRJ0xYR6KxCiLukXY0np6GXjVKZxZfr/5PSmKfQj5/JNDdHam4UkPHFRhIPZzeMHQOgwtFRhaIMwHPyE8yd3H55F27vv6fgxbbyGtnz5/cpjnmK0HGRROocqSmzcM2wlaSEJIpavKstSfqY7Y7LmTtFR/hcR2qu55N96CO+ujmbn0b2uJgd7je/abH4Yf2eRv2Z4xQ2tMdRqo3s2biZqthvMDl4Dl53zRSc2s6/TNP48UQZvEjSo8Zx1EzmxbT5XpyXntkx1q41VamW9sGLeiKj3IHrBk5nVXOvd1EhBhMSpsOpxkh6almX+dmTtqWiPZv4SyFABLMWmIhb2743kGLaSdzBUH7wwiZeD/nvTro6a9HptU1/aXTeYGw5TUugGghdyrIVCwmwbGZjYz52XIsBFGUgo2bEMgrrt41ul1zi9I44Dp7K75NPAwAoQUFB/bvllCRJkiR1YODMn/KTpyZQmPAO/53YfvRze4khC/juvz2Lx9m/8J9bz3TZ7dmutA0fZjTvXUfGNX+CF0egKTxDYovPA3REo/XDbGqfRhOzmqVsYkN81/P3Z49mzYskSZL0tSaEA6PHjEapPceZE2Z6492F15RIfFUVpJ5O63a8FnvSKkoBiVvWAwqKUoAxvgCjDeXpKHBp+IWSftqLyFay5kWSJEl65AgRwJO//SkTL2zgT/9I7TaAkPoXGbxIkiRJktSv3OP4sZIkSZIkSfeXDF4kSZIkSepXZPAiSZIkSVK/IoMXSZIkSZL6FRm8SJIkSZLUr8jgRZIkSZKkfkUGL5IkSZIk9SsyeJEkSZIkqV+RwYskSZIkSf2KDF4kSZIk6R4Mn/82b//xQ5ZMdOjVtAC6l1bzvN7PrvIIfSzPvxSJRrQfQF9oY3n+pVh02t4ZXF/oY3k+puNltaV7aSXz7FyXzsjgRbpvnCet4I3ffcwvf/UyAQPlVylsIbdZ35LbV7pXQmjRh/mhlJ0hPbu219I28wby7SuUGTzV2k5/9lRD8TX7suycDwFdLKuREJEEBoUQ4NNimn4lr//CGkgJbaxdgY38qnQ/JVxm8+Ka5ahP/YkPPsvqs+UMivoFP1nixemPfkbCpXv7sJmT+3AGOalwchuOWy8debZsB+dpb/HLpYEdz1/0BR/98XNKWny0zdEjhOkLFxEyYSRuTjVUXDeRf/pf7D9yjtv197YN7N1vfbHNuiNGPsubby5gWBcfshN1qez8xXoyH5KP3Ynhi/jer57BJel3rPsiz+b5HtQxKfVMX56bPaUaE4XOC24kHaNAdF0Ge9LaQqMVmE3d56PRR+LV+IePNXrQhU3DC9CEvMJ0NrNmi6E5fcxKZpFMVsOXqTUhMQQQz4YWaVozYe7uWhAWTkBxAhv35ENjWrN1AcXXQFF2YgxdzevLIfvDd0jsZr1k8CLdNxWG9fz5vAfOVaWUVd6/C01t3lES48+3nujkzaTpkXjX1lLTYrIy/HGWvfltxjhauJh2iIwywdDxU9A9+Ra+wz5g465sau/jDfuBbLObZzn+5W1cGv509o9iZuBgrhjiuXCjYaIopOj+lKZPPahjUrLfw3ZuAgihYmxEBO4UknTyMtBFwN9F2lbBRRsaNXj6TEPXdnpIDNODIPvTd9iR2vV6m1MNmBvLYdYSpQNjygnMioIx1UBim/RFhRAQAjvircFKsU8MAZi6XAaA0PqhmAo6/C04JITsfeu6DHLM8e9yWL2RZ1Ysxbg2rsu0MniR7htFqaPyloXK+7zc+sLTHCts/lvlEclT31uC+m4quz9N4FbDCSKEAxMXPcsY1yJOrFvN/gJrta5IOETRG/9O9PSn0e9fy+mK+1f2B7HNlPIckg/kNP3tNmsyMwMHYEmP59jFFheTh6TW5V48qGNSss/DeG4C4DSZkGB36vP3kWahq9ily7Qtg4t2Ql7Bo/AExjYBSnPQ0Xj98sM7TGsNghprVxa/wffnwK4P12G0oYama1p0+g5eD/loQK1Fp19J1PIQOPgeG+JbBzBCG0uUOoG4FFpvo2smSmidZ8Ynm9GEdV+T80gGL0JM4fk/vIrW8AF/vxTK4iem4jvUgcrreZzbv43E1ELqWmwYldt4psQ8RehYX4YMVlF1y4IpYx8H9p+kpLo5ndusVfz4SUcO/OHvVM5bzvRAP9wcbmPJ2kf8zr2Y7rbe2LbmC+A8Yiazo2cTMErDYOd67tw0cy1tP4cONqcVIpBvrP4x+kEt5p36Fu9Obf7TlPBrNu239KgMDl5TiH72aYL9h6G6YybvxA4SK++tHYAQfkT/6m2mezYvS1Qa2PbrTVxsc3A2bd/3/0HN/OVMmzSCQUo5RRlf8eXniRRW9nw7NHIcMZ9l330On9J9fLrlM/IqWpbBlZqi0yTfzCE5v6bp5qwoJeReLCZ6lAfDPAE7L5D2ltfWbSbEeBb/5ueMObsN44gnmaquwLjjA066v8i3FgfgaDaw55Ot5JTbf6zbvG7KeBb/+ueEK0f4+3t/J79FVbhwncmK37yI/+Vt/OnjA9xRlD49h2wusx3HJICL32zmLJzNBF8PBrs6UlNeTNEFA0fjv+RSmWjIs+fHpGSLnp2bQngQ8uJPWDRxAIUH1rN1/yXqezHoHhA6g/Gu9RSknKCsm3ztSdsTilKAObUAMy1qV/bEkRiv0HVUZSsTxtT2tSqCcJ5RmzCm7sSY2vGcwQsW4uFVhC4sDnPbNF4+eEGL4M0EIRFoUvK/xjUvw6N5ZtJASs4e5qpKzbjwcKa+8BaOFW8Tf9H6skC46Fj85o8IHXSDvLRjnL9Zh6vPZIJnv8or/u78dcM+brTagCp8Fr6EhyqXzGMXcfULIzj0Ob49uIYNHx+kvPEp3o58hSaaF157Dp/KXLKS93O90hG3EZPRzX+VMaMG8vHHBxsOdgvZh3ZT5gg4+BM8bzKDrhowZBU3la4st/nstasMzkHE/PBVQgeXcyX9IHml9QwNeIG5t29wb25w4dAu7g4EUPAOf5rAIV2lV/BZ8B28nC6ScSSbQWOmEBz+TVa4VrF+81Hu9GA7NG0PzXxW/OA5hl/dydbNCRTVtD4xFKWC3MSt5Fr/aPWbm7sbUEp5jzaHveW1b5sp/hMZknuUbMc5hC36DiKvGGPaYMKnzGLBrGPkNLQBsf9Y754iLnD69DXC5kegD/on+cbml3BuYVMZ5VBDboqhYb816v1zyD62b18xeBpPv7qc8Zg4l5KIubwGp6FjCQx/mm/6u/E/7/+TK3U9PyYfRQ6DPHF36bwvSHV5Mber7Xso6vG56RRI8GQvBigK/uF6PPZforiDZD0hxGAmh+twrskkLeUWXb8ysi2t0EYSrGk9rfVro3CiojVkb+2+TUjT/G1fSbVp8wIN7V7UCWzs5lVNT1hrXYooxYw5xR9NmBYvHy3W1fTBEw1RL7+BxtJcPW5ON+Hl64+5k1dQ8IgHL+6jVBz6w1rSG548D59+iu//eDGh08NIuGCgXlEYHP4EIUMryf7ne+xItl5chPgXxqdX89LMaB4bvY+9Ldr/KYof3hXv89HO89QpCkLEc+GFNSzTzyHc+yCHGsJHe/J1db1LTuI2Dp05wOWyxtqF3Vz41u9YFh7FZM+DHC21PmXkHNxNDtZGgX7zJjPAZCBpX8eNAu0pwwD9PELca8jf/f/4++ESa9q9h5n5xm8J4HaP94GilJNv+JJ8rFW/+tHd3IgVf3wrP2T93zOpVRSEOEDRD9ewMHAmwW5HOVlh/3Zooh6N1kXBcfyzfPfdGVw8upO9+1O5Udf1ySocgtAFuiEKD5FzE7sfYuwtr73bbEh5Bl/sPkJt4FACXlFT+tE2DOUTcJ30c8K8tCjiMqIHx7qtLMePUDD3m0ycMhWXjCNUKgpCDCNYPwFVVRrpaXdoudH64hyyhz3bVzUmmNGugks71/K/J+42TT+dMZdQP3AYCJTfwzH5CBq5cBUvThva6e8XPnudbSdrOv3dHt2emzXpnDk+nWGTXCk6aqC0V5baYOg0gsc4UGU0kHW3g2X3IK1iMmA0NQQcKScwtmmToomJwYM0jNe6WV4bxQ3tWwBINWCMb26Um7TnRPMyWgYuai06faR1uWrAYq21nP/yEsx7bX8NFbwglOyt8Xi8FQ7kW2uHUsGINT90r8LedTYHY40e6eBF5KeRWUbTTq4zpXHxxmKmeagZAtwAPLzUKBRjKRnIMI+BTfNWWEzUEsJwL0fIq2vOU9wmL/N802snRbnLxayL1OlD8fBWgdn6RGFPvpV5RzmWB0I44uo+DFdn61NLxY3rwFAGDYGenHX2lMHDS4OCiVxjcdMGU4SFc+dMzPXrsqqkVwlxh9yzmU0N7xTlBtk511g4zoOhaux+ZdNKXiK7/pGOw4AheE+MInz+63zHYwMf/yOVyk6eNoRwYew3vkXw4HIydx6k9CFs51FfW209HmtqqKWaqkqAGmprQVE5oAAC+491m5UdJTnzKfyDZhAy9AgnbwGe09D5KdxJOU52Na0utH1xDvWV+ooKKlFw145lkCqjqUdLec4BjuSA3ZHs14Dl5Fbicgd0+nt5ga1dhLtmy7mpKGVk71pL9q6mCb2ybADPxyLxVd0m7VRKq2YI95oWoMisRbfYH2OLtiNCRDJrjjfZn9pYO+IVyqyXIWtvHMYO02vw7KqXkMWEMbVlg13rq6n9ewtZ+dYaNDb0CBL6lQRaNrH9mpZlHfyuKAWYLd4EasCG9sCtPNLBS311ZZvW51c5uWUt2aoblDdMUTmoUBR/on70H0R1kIeiUgEtL5BVVFe3TlNXVUkdKpxdHKGh74o9+QqVF4FPrmDe1ACGD2g9cJEQN3t8ebSnDAMGOAO3qG7TcrGq7cr2uUqqq1pPqamuBhxxuMdRiZTyS5xLuwRAhuEoBS+sZpn+eWYeSWX/lfbphXDBd/6PiJ3uyc3j/8Wes+X9upGq/ce6bRSlmnPHT1MeHEXoVF9O7jWhjpiKt1LGmTNnO2hj0PvnUJ/J3cuhrFBiIt/krYjb3Lpewk3zFa5ePEOyIZOyB9Q992F252o6mVf7dhkP+twUYiT68JEotw6RnlNL16+MbE/bSDHtxLxgJTqxrinw8F4cY+1q3LbRawsafSyzokMJAChOI+6TOAibhk7TQVo1QAQ6fQSB0QvxtGzuoit0C9fOkF28kIBQfxK7eK0jRCTzQ5LZsaUA6HwcmGJLEZ4+/tBBe5quPNLBS1uKUkd5Ua41cGnV8NFE6md7uNzBffpenhJszdd73ms887iGmxkJfHnOxJ2GGlXnCYt58rGB7WfugzJ83SjKXbLTzlGtj8TH3w2utK7SEYo747/xJksf96X8zCb+5/NMqvtx4NKor46HugsHOGt+nBkRs9B+dYxAvQ/cSCTtQv093VQe9PGrKCWkbH6XgoAwJowdjUatxsM3nOnBM5kStovNG+IplgFMK33R5qWlh+HcVI2dSZAnlB46xpXuxnaxI21LGXsLWblqKcVr4yjyXcrSOXD8w25qXXxC8TTGszFNy9IV1kmd9WSy1qacwZhagDF1p83lUpQCjMZ0SMunq0BMUQwkbuk+v6K0NFgRgWZP1w102/paBS8dqa+rB+q4mXuSzFJbNtwAnJ1bT3FwdsWBeqormy+mtuYrhAfjA0fgULqfXX/bRWGLnec+bC7Q8+DFnnWrqqoGnHB2Ae40Tx/QdmX7GSEc8J/1ApOHXeLk50cobtnLTKWynnr19a3ncRrJ1BVvEB3oQlHSev65O4Pbj0DgYv+xbjtFMXH6VC7TloQSNOUu4zygOPF4q+O5We+eQ31NUSopzTnOiZzjAAjhyujYX/Pt6XMJHxVPwqUHVrSHUl+2eXkYzk0hVIyLiMBdXOPQqTy6G9vF1rRtKaadHLZs5Psv+5AdZO2C3N1rGnP8u2zA2ki2VTm0sSxbAEmf9E6DXHP8esy99cr0mokSrxh0vnGY7Xh19LX/PEBpsQWBlvEhPigtvs0wcPQMImdF4e/W+glBUQYxKmgiDqKxi+RAAiaPwwEzpUX1Pci31nrvdByAc4tQUjiMICTIl06fT2pqqBXg4OjUK+tWWmJB4Mv4YE1TWqGomTSp+2GfH6hutoOi1HHXdSz6mU8xI9itabpQhhAyJRgnirhyqblBsuIewqKVP+eJiZCz64/8rbcvjjbst75i77Fur7JTh7hQPYyxUaF4iCsYT3dcDdz751Dfcdc9xZPPPUeQV8sGx3e5frMCcMKxo8e/B7iPHwaWk1uJ2/rXTv8du9CzGrOenJtCqPCb9V2eeeF7PDl9VKvjqMecQggJdqO+4IR1vJbeStuBjE82kx0UQkBxAnF77PxEQAuKaSdJllC+v2qpTd8gApoa7Or0kejUPV5092VTDGRlejN9wbRW0zX6rr+X9LWvealI/or0ORMIXbiKV7QGcovrGaQZw7jAsbgU7eZvh1unF8LCLfVyvvdSNtlFVQwaFU7wODeqL+4huYimwNrWfBXlFtkZucxaPIPY15zJyLFQ5+LFiKAAKnKyqPEf03HBay9y9Vo943SxPLtkNMWVdUAthSnx5DQ8pdqzblUpiWREBzE5ZhUvjzjFpZI6ho4Pw/XOJerp4IWpjYRnCNMnaxuiZAXv4YCjDxPnxVhzrc4n40hmz8c9sGE7WJK2k6J/k7AV7+CWeoYrN1UMm/AYgX4ulKdt5VQhoFifqMO/+RqP+dZSmnGaQpdgps4LbrW461lfca6ovn05erG8tm6zW3Yu2t5j3W53z3Am7VlWTPWlLm8HaSV0+KDZ2+dQSwP8H2dWdHC76XWFpzlqtI4JbM8xWX5LYUR4NCETxzAuNYvSu4IBw8cxST8Gces45zrq7WTDPn6U9UWbl56fm2MJjJqKzv02Z9O2IHrhQWSAfgbjXerJSz7R1K2/N9K2JYQfwS/HMFFRQL2IpS+biPvkRI9rTor2xJOts+NhtIMGu30l45PNBL7/Cs/rT7AjVUEIP3Q+kPi1HefFBkqlkT1/fp/imKcIHRdJpM6RmjIL1wxbSUpIoqjdO0oHChP/SvnU5UTOHMEgVQWWtP/lq10HWx2c9uRbkvQx2x2XM3eKjvC5jtRczyf70Ed8dXM2P43spNyKmWPbtuC+dAmTpi0i0FmFEHdJuxpPTqn9ZVCqjezZuJmq2G8wOXgOXnfNFJzazr9M0/jxxJ4HL/hMYc6ix3BsdRD6ExbjD4C4fYRrRzIp62H2tm2HLL5c/5+UxjyFfvxMprk5UnOjgIwvNpJ4OLvFGCQqHB1VKMoAPCc/wdzJ7Zd34fb+ewpebCmvrdvM3uDF/mPd3nWrp/BaEfXCnbxkAxWdXnh6/xxqNGh0FLNGt19iVaqpKXix55gUVz5n68YKZkc/ztgpC9G5qKi9fYOS7L0cSPg/cjsYKM+mfSzZqYfnpnoio9yB6wZOZ7Xp9tYDQgwmJEyHU42R9NQWXVnvMW27ebWRLFvxCp6WBP7y03co8p3GshWv8P33YyjNTOPw3jMYu2gs2xFFMbDjD9jUBs3bB7Itze9witI2scHO5dlbtu2fhvPu8jU8zya2myMIUJvafbag1TxBQUHyU6o2so4OOpyT63/B3rxH/wlKkuwhhDuRr/+BBSMz+Xz1f5HRwbeC5Dkk3U8DZ/6Unzw1gcKEd/jvxHsf3VgMWcB3/+1ZPM7+hf/ceqbLbs/2pG2aRxvJ/AUxBKjNHN66u12AotGvZGl0CJ7qxvHACinNjG+qkWmaP8gbj8zWH1u0pvcjePESotRAUMdD+du0HRrz0WnwVPtQcmBNl/kIEcmy92Mo7aZ7tdCvZOXyECgGD0v78rf0ta95kSSpl3hMQzdaRVWGDYN2SVIfE8KB0WNGo9Se48wJM71xQHpNicRXVUHq6bRugxFb01q/SRTBrBAfSi3JGD95p9PXJebU9WxIbQweIgjEZP14YuOYSSYDiVsMmF9aiWbvCdqus6IUYIxfT4Y2lpXqQms7mh68hmrKJy2SZSvCybIln2Jz599vasw3dT3rzdYAbLpai0aITl+TyZoXO8inRknqnOeC3/Ba9FDS/vtn7D7f8fgr8hyS7hchAnjytz9l4oUN/OkfqTbVfEj9hwxeJEmSJEnqV772XaUlSZIkSepfZPAiSZIkSVK/IoMXSZIkSZL6FRm8SJIkSZLUr8jgRZIkSZKkfkUGL5IkSZIk9SsyeJEkSZIkqV+RwYskSZIkSf2KDF4kSZIkSepXZPAiSZIkSfdg+Py3efuPH7JkokOvpu1NmpiVvB4TiUb0fFB93Usrmaf368VS9dwj/2FG50kr+P63ZzK4/CS7/ryZ7Dvy+xaSbfrbsdNX5e1v20GS7ichtOjD/FDKkkjPrqWrD0B2lVZoY1m2ALLSTd0sUUtgtA9ZW9dh7OILzbqYlWgKd5OY2vi1Zw1g6vRDh90R2liigjRk783Hno9cCv1KVoYUcrjb9WooZUgMATR/Kbszj3zw4uQ+nEFOKpzchuPWS2srXGbz4prlqE/9iQ8+y+owjfO0t/jl0sCO5y/6go/++DklLXaMo0cI0xcuImTCSNycaqi4biL/9L/Yf+Qct+t7drC1LYMQ9dTX3OHWlVQMe3aSnF+OeEg+ViaCvssvX5rKgBblqUpZz9pP03pvGTbst5b64tixhe47fyE2WMX1w79n3b9yARDCjcjX/8gTYx0wJfyaTfst9628D+ockqSW7L2m3i+qMVHovOBG0jEKRNfL7y6tpxqKU7q+aQsRSeDyUDSAsas0c0LwPLibdqNH7AAAIABJREFUxFQ7VqYLwQsWQmYCZs00dJrWv3UXcHhgwphqaD1PzGqWsokN8QWtphtTDSRCt1+pfuSDlwrDev583gPnqlLKKu/fgV2bd5TE+POtJzp5M2l6JN61tdS0mKwMf5xlb36bMY4WLqYdIqNMMHT8FHRPvoXvsA/YuCub2p5Gy6KSK4Z4LtwAUHAapGVsxAwWrRyL27rVHLzS8dd/77uiUyR9acJakepL8KIpDHnARXpQxw6AKLuJ0+SpjNx9kStCAbcIAjQ3uVE1vNN5+qq8D3I7SFIje66p94sQKsZGROBOIUknL9N1rYvtabtnxnytiyx8tXgWJxC3J7/bIEBo/VBMBV2n0a8kis1s2GJo/5s2lqggb0o+7Tro6m2PfPCiKHVU3rJQeZ+XW194mmOFzX+rPCJ56ntLUN9NZfenCdxq2MlCODBx0bOMcS3ixLrV7C+otU5POETRG/9O9PSn0e9fy+mKnpakBkt6PMcuNh9USYZrfPdnzzA9JgrDxwe4+xDUviilGRgOZADWp4aRD0Hw8qCOHeD/Z+/NA6o8zobv330OICjgwnJYFFRUEM5hF0ENmgjGYBITTWKa2CzGpk9rm692eezzNEmfV9Pve0zSpu0XbZKmxjYmpqbGtEZiBBT348pBFmWVRdkRBRRkm/ePgwicw3JYNNL5/QVzX/fMnJnrnvu6r7lmBupzKLQKIWDqdorzBPZBobjl51LgH4FjD7cMV33vajtIJO30d0y9o1gHEqRzpK0wAUMFvdsjlsgOEt2ixVCxF5fQKFza0zSuAOFoQzxuC7qHseyBYKr2bzDxgNxCiEhWxMKhjcdNDCEhvIhZuRgOvMGOlDvb/iPSeBHCi9j/epU5zp3mExv1bP/Vh+R2a3yH+ev4ycNW7H/7E5pjniFq5kTGKHWUpX3D118mUdp4y8jw59H1PyFkTKf7Z6/l9dm3/+3JnW81MYYVLz2Je3UCn279nIL6znWwo7nsFGeuZnOmsLlDORSlirzcSmInOzHeGRiw8WJKW0UqF6sfx93VHWeguD1d2E4mfMlyInWTGWvbxo0rZVwyxJOUZKCm9XadO9rszb/RuPAZ5vh74aC+TkVmAvFf7KOk4basTdRa1i2bxJn31xLfyYAa+8B/88pDDhz/4y9JLB7gtNjEeSyIXYDvZA32Nm3cuFrOZUMiyQdOUNU0sH6zRHcG1GZ96FkH1tXkpE0kJnQm3+QW4a+bTGHqP7HWRXQtfxh0fSDtYOu1gPsXL2CGpxP2dlY011VSlqPnSPzX5NeKAfUFgMphOhFxSwn28WSsvYqb1yooSUtgf+LtPjbmHcFTb67GQ/9b/pYfzJIHZ+M5Tk3jlQLOJ24nKaWU1m+BkS4ZGnofU28jhBNBz/2Uh/xGUbp/E9sS82kbQj0YFTyX6XZtFJ09Tm0f+fZP1h1tJ4PDPB4493JViEj8XVM5tHEn6Z3KqXSPw5fTpKd0MlJS9KTH957XihfDyNy2G826Dfinf8iOdiNHCC9i1r3KnIotbOjB8BlORqTxAjXkJO+iYTSAglvYY/j3+hmv4L7oeVysc0k7nMWYqRHowp5mpd1NNm05wg1FASrISt5NrRWg9ka3MJAxl/ToMys7cqnNM7UwhCaGld9/kgmXvmDblr2UNXdVWkWpJy9pG3nGf7pcc3B0AKqpqxlQI/SMjTvjHYDqWmpv1VM1kfv/4z+5z72Ry+eOkFHVir13KLrYNXhP/JgP/nKIui71U+G++AWcVHlkHM3FzisUXfCTfNe+mc3vHegmO/QITSzP/uBJ3BvzyDyTyJVGKxwmBqKNWc3UyaN5770D7QOEpf3Wf92xvM36o2e3RBUqzxlo/t4spsS74Dspm9RPWwhe1r0Ww6HrFraDfRSPrX6G6ZRw/mwS5XXNWI/zwT/sMZ72duDjtz+juNXyvhC2Wpa88mOCx9RQYDjKhaut2LkHoluwmlXejvx5cwI13fVsQiyPzxxN1blDXFK5Mi0sjNnPrsWq/lXic+/GxMK/H+oxzjja9ryQtamukutNA1/x0teY2gVrf3SBLoxSFLzDQnBKzKeyZ2nL6iHsCQzTYtOcgeHsNXqfMuqvbCnp3WJetC+sR7PvNZJKbn2QRaIJKun5d4SGQcK7XQyXgSBEJDEvenDwo3cpVxTSNsaz4u3VLDS8RuJlb2LWvYpvxRY2mJlKMsHVA21IZJckc56gW7Ez5qanujMijRdFqaNQ/zWFGKdlQqb0PqArijeeje+w6W8ZtCgKQuyn7D82sNh/HjqHI5yoN3pCsg/sJhtjsKHXwkBGleg5mNBHsKHrFDxsFaymP8FLr88l98gX7EtM6fJVbg6hDkDr74AoTSb7KoNwMSrYOGgY72T829rRC7+FT+Bn20Du8aMdrla78MeZ4wnFX/0vf00uRygKQuwhd+UbPBm8mIhJh0i61LnNvHCrf5s/fXGBVkVBiHhynt3AipD7CXM7QHL5QOvbP+zsGshO2k7y6f1crL31UO8m5zv/LyvCogl0PsCRasv7zRLdsbzN+tazLhSf4sKNHzHj/tG45Z7h7002BA+ivpbUwZJ8VVN1TLET5H+xkX8cb+hIP5X2AMFeoB4N1FneF/ZhDxI0rpGsz95gxxljxYT4F+mPreeFebHMmpLAvoKu9zhOVpH85kZS64w6cejUUl7+yRKC54SyN0c/pF/dEvNMWryO56LG9Xg95/Mfsv3EIAxJS8bU5lROH5vD+Jl2lB3RUz3wUk0ZF4Vuqpqb6XoyG+h9jLZE1gQ3nIwLhQBQFD1JWwFFQeMhKO+04kgIL2KCSjn4kaVlmCnVs4SkrfpOswF6Dr5TAkSxYt0qnNPf6HGqyYQK04DdjsDcThi9Q/1blTQijRdLEeIGeecyOoJiFaWGrOzLLJ7mxDhXBjdlU5DErk9SUY8ai5tfNGExP+R5p82890kKjT0MpELY4vPod9DZ15HxxQGqBzHgKoo9gc/+hsDO+bdcIT/pA3brr3Qopou7J2ouk5NW3rECSVEayM7IoTU4BCc3NVxq61TH6xRkXOhwxStKA7mZubSGBOPkpoLygX9Z9YfGgiMcLQAhrLBzHI+djfFLr77mCjCOMWNhaEcqUyxvM0v1rIj09Ju8OM+X3B0f0URkdwGLGQ5db6uvpxEFRw8fxqjSOlbH1WXv53A2DHQUdXJxRaGSiqrRjHca3ZFeX1FCC0FMcLGCgq4B56LQQEbt7SJbSwzk1iwhysmVscBQOzElplSc2MbOvFE9Xq9rj+sbMBaMqYpSS9aujWTt6kgYXNmdcJ4ViafqOoaTZ/uckuy/rOm0kYYynIOWo+3+Ug+K4/EAOPbOba+MW2g45R/t7HfgrPDwwu1yoVn5cjNBvGWEs2ZtMFWfvsHmlDs/VdQZabwA0EjTza4pzU1NgBXqQW7jp9Tlc96QD0Ca/ghFz65nRchTzDucQmKxqbwQtnjG/Jhlc5y5euyP7DlXN6gHTogb5Cd8YgwQo43m+ioqS4qpudHaJV+1lRpopqlbVGbrzUZaUVCr1UBbpys3aWoyJ6vCxtYKhjn2X6hc8H94JQtn+zJhVNfNnoS4OpyxcB1Y3maW61lp8nt8lmPLlfyGIXpah0HX8/aRnBlMXOQrrA2/zrUrVVwtL+ZS7mnO6DOoHeBSf5VahaJ4E/3j3xBt5rqiUgFdjZe2psZuK/MucWLrRrJUNdQNqBYSS7lxKZWMS33LDRRLx9ThQIhJhIRNQrmWTGp2X3u79F/W3LRRGmHMCTL1XJCib18qfVu2POULyhUF4eGFTuPRRdx0miaM6GeCcMroe+pHiEhWrFuFr0sZWQfiycSja+AvHvjHBkPCa3cscFcaL3cQRWkgy3CeppBI3L0doLjrZ65QHJn+6Cssv8+TutMf8vGXGTQN+kuhlZr8E2Tk3hmFulO4LfwBj9+n4WraXr4+X8KNdlvJZsYSHp41uveb7yGU6yVcvOW9+JY+rYpSxdktr1PkG8oMnyloXF1x8gxjjm4eEaG72LI5nsoBGjBClJDy+R4uNple688XvKK0UleWZzRc5JTRHWG4Y14609eYOlyofOYR4AzVyUeNWxkMkaxZzp4h65kwtOJ4v+NYlJIi0rt5TkwDdvWk92MPGE3IGpbHasClrIuXpzNCeKGJDYaewgXMxLyYLcsVMF3zYpZv6XB4byOEGu/5zxI4Pp8TXx6mspPCqVQqo53c1tb1HutJzF75I2L9bSk7uInPdqdx/Q4Otq0trYA1NrbAjdvp6lG2qBHt1zszChubrilqGzvUtNHUePul0trcjECNupumWamN3plWMy+lvhDCien+E1FXJ7Lrr7so7dROjuMfAO6M8WJ5m41cFKWR6uxjHM8+BoAQdkxZ9iu+O+cBwibHszff8jzbWtuAVq7mnSCjWhoe9wrDEfMykDF1uBBCxbTwcBzFZZJPFtDX3i79le0JRdGTmbGK6CXepN/BVT2akGXMD4LMfbvZtBFi1q0eeGZmYl7MbVJX6R6GU2n3m80jjZeB0NxMiwC1lbXZy4rSSoOdDyHzdFjlGfgyvT3YUBlLcIQOa8oozr/OLUVWHINYvOolZrk3cGHXW+w6WjzgTekGSmXpZVrxw0frwtFDVcb6CjtmBExHTRVVpa10fvAUZQyTA/xQZ90K2B2Nb+A01JRTXdbWIdtSUc41AvGc7IVyvqg9qNWRyVNcoe0ClWZD5q/TeBPUo8agFsLMHHGLcZyyGoWNFR0zB0I9kaAAT0RPO5L00W+WYmmbjVQctUuJnmnDxeR/kFFp/KJWlAauXK0H7LEyN8r0oy+qKysQTGd6kDtHk0o74opGT5lLoJea0rMHKawb+e17rzEcMS+Wjqm3EEKF94IXCZuoovliAnuOXhz8ruLWQQTpHGgr+qYfe7tYINsLafv2Er32EbR7uq4iEh5euFHYJWh3sAjhhZuncQpqR4dn5s6cZ1Qev4kd/ZQdkcaLcA5iTqBH+6mTCm4TACt3/BbGoQFoKiTtcEaf6/J7pCWXS5fbmKZdxhOPTKGysRVoofRsPNntX4gVB//O2ZBXCF35Gg4ppym+qmL8jFn4e9lSZ9jGyVJAMb7swp7+AbM8W6hOO0WprY7ZC3VdiruS+Q3ny4b3q6LhzD85PtefeUv+ixcnneRiVQv23mHopjtw4/wuTnXbzVGICq65PsP3Xsgiq+wmYyaHoZvmQFPuHs6UdZItPMjpwvnE3P//8PwEPQVVbYzxDiNwujU1+iQumH2/XyQ/rwGd36N8Z9kECq61IKBTv10jKy2P+UvmsuwHNqRlV9Bq68LEAF/qszNp9p5q/kf2o98s0R1L22w4GC5dtyTfumsKE8NiCfKbyrSUTKobBKMmTGNmyFTEtWOcLzBTQD/6ov7MN6TeP4PgxetY5aEnr7KNMZqpTPP3wbZsN389NLA2kwwvwxXz0t8xtSs++EfPRut4nXOGrUNyHMqokLlMt22j4MzxPreEsES2O5qQZWjdIX3PTspLvuBQxgc8vm45lRs7BeRqwtGWF/Y4WzMQFKWI8v4t+LmrjEjjBfcI7n9oFlZdlMWb0DhvAMT1w1w+nNGxx4mlKEo5R7dvxXH5I8yMegh/GxVCNGC4FE92+woXpTGTrzf9juq4pYRMn0eUgxXNNUWkffUBSYeyOu2nocLKSoWijMI58EEeCDQtL+d64rAbL0prEcnvb6QubjmzdfcxR9fK9ZpychJ3kJCYYubBU1Oa9GfqZj9D5LyJjFHVU2H4B9/s6rrHi6JUoN/yO1qXPE6o71widSoar5aTk/A5CUmZZj1MilJP6j/eZ8KyJwgOjWOyrRqVonTpt6qD7/F3q2d4IEJL2ANWNF8pJCv5T3xzdQE/62FqtT/9ZonuWN5mw8Bw6boF+YriL9n2QT0LYu/DJ2IxWlsVLddrqMrax/69/ySvyVwf9+cZSmfPH96mMm4pwdMiidRa0VxbwWX9Ng7uPUjZQOIHJPcs/R9TO+Hqx2RH4IqeU5lNDPZrQgh7gkK1WDenk5rSaVnbIGU74xL6I5bHaqhKaN8Qrv13pX30Bpp1r/LyOti1bSfpJQpu7u49x5lY8rs8InG73Pf2/k7BpucaGfHAiWFf4NkFJSAgYHjXtEpGHMadWidwYtN/sq9AvkAkEsm3k9HzfsZPl86gdO9r/CWpn5GgvSDGLuKl/34Cp3Pv87ttp3td9myJLBhjQL7/gDui4usO48QkT+GF7sXVPB4A1RnlEKAhqz2IVggv3EI9etyd17gBnMH0dGf3MKLv733VkRCRrHg7jMx3zJ9kLYQXuiUeVO4xNYA0cet5WWtgV0LXcnusT/sqKA70vo/MyPS8SCQSieTfGiHUTJk6BaXlPKePlzMUc7guEZF4qupJOWXo0xixRBagbM+HHMWDdDMGwC0UpYj0ra9TGbKM+bHB+CnuOC2KImmr3jjdk1LUoyPG3KZwQJ9HBBjL1bPjF3p6akNFKTIGE5urd2k5Wd2PJeitPv1cBSU9LxKLkZ4XiUTybUcIXx7+n5/hl7OZ33+SIs+2GmFI40UikUgkEsk9xSD3j5VIJBKJRCK5s0jjRSKRSCQSyT2FNF4kEolEIpHcU0jjRSKRSCQSyT2FNF4kEolEIpHcU0jjRSKRSCQSyT2FNF4kEolEIpHcU0jjRSKRSCQSyT2FNF4kEolEIpHcU0jjRSKRSCSSQTAh5lVefesdHvFTD6nsUKKJW8NTIV6DykP7whoWDjKPoWLEH8xoM3MlL393HvZ1J9j1hy1k3ZDnW4w0hquPpe5IJJK+EMKDkFAvlNqDpGa10NsBkL3JCo9lxASXUF7az4Ldw4jWlrJz484eD3LsigbnIA9IMT2pWeMhKDdzWnSXunssIzpAQ9a+Qiw55FKErGFNUKmZ06N7qGVQHL7Es/Ojng+ohH8D48XacQJjrFVYO0zAYYh+rbBdwHMbnsH15O/57eeZZmVsotbyy+X+5u8v+4o/vfUlVZ06xsopiDmLHyJoxiQcrJupv1JC4al/kXj4PNfbBvfSFMKDhf/5P8zTKLTmbud3f0qi4Vt4SJn2+fdZplNx5dD/8u6/8gAQwoHIH77Fgz5qSvb+ig8TTY+1H44+Hq58+6M7Eomkb4RwJHj1eh71KSXht2+ir747x/SppkajdYGag0cpEr2Pqz3JCuGFblEw7NtJeh9GxC007mFUJZzumuYRiYumB3lXAA+0IZFd04PimBMAWZ++xo6UnsvWLVoMGXsp10Sh7VZGXwaHEyWkp+i73hO3nuV8yOb4Hk6b7uMdNeKNl3r9Jv5wwQmbm9XUNt65F3ZLwRGS4i90TbR2Y+acSNxaWmjulKxMuI8Vr3yXqVYV5BqSSasVjJsegfbhtXiO/y0f7MqiZTDGxlgtk12bKb1UjZuXH1OtkshoHXh2w4movYp14Gwm7c6lWCjgEI6v5io1Nyf0eM9w9fHd0h2JRNI3Y4KfIdbPhst7P+ZEVVufL7vhQAgVPuHhOFLKwRMX6d3r0ots6CM87mpg1+WuydoX1hNtxigQwgsXw7vsKFG6/O7yEj3lPTg4Kt3j8OU06Sk9GAu91T1kDdFsYfNWvek1j2VEB7hR9WnvnpKhZsQbL4rSSuO1ChrvcLltpac42sn9p3KKZOn3HsG1IYXdn+7lWnsnC6HG76EnmGpXxvF315NY1GJM35tM2Y/+D7FzHiMkcSOn6gdel1Ez/XCnmAMnKpmwTMsUHxUZ2d/Sw8Trcyi0CiFg6naK8wT2QaG45edS4B+BYw+3DFcf3y3dkUgkvSNsA1n0aCg2JXv46sBlxN3yJFsHEqRzpK0wAUMFvc+m9CKrpGxiQwpdDBEhIvEPKOfQz02NAkUp6tVDI0QkMS96UN5pqsboeQlHG+LRkeYfGwcJH7LDzFRS57xWxMKhjcdNDEQhvIhZuRgOvNGr12Y4GJHGixBexP7Xq8xx7qQIjXq2/+pDcrs1vsP8dfzkYSv2v/0JzTHPEDVzImOUOsrSvuHrL5MobbxlZPjz6PqfEDKm0/2z1/L67Nv/9jStYTUxhhUvPYl7dQKfbv2cgvrOdbCjuewUZ65mc6awuUM5FKWKvNxKYic7Md4ZGKDxIoQanxnTUVUfIj+lHJ/HZjN5hjdkF3STi+CpN1fjof8tf8sPZsmDs/Ecp6bxSgHnE7eTlFJKq6IgxHSW/PoXTD23nfSJDzPbtZ70Hb/lhONzfGeJL1blevZ8tI3sOgWhTGfJr35BmHKYv73xNwo7u0nt5rHy18/hfXE7v39vPzdu9Yt1NTlpE4kJnck3uUX46yZTmPpPrHUR3eo79H1sab4Atl4LuH/xAmZ4OmFvZ0VzXSVlOXqOxH9Nfq1oz9Ny3VE5TCcibinBPp6MtVdx81oFJWkJ7E88QVVT5/r2r98kkpGCEDb4PPIMOvtSjm79iopeptWFcCLouZ/ykN8oSvdvYltiPm1D+DyMCp7LdLs2is4ep7aPfPuSFcILXehtw4KgOHwzDGSGRqHtIumB/zOL4dPv9WowOAW4U/7RTtLby+rueRHCC00sUN5zDIsQkax4MYzMbbvRrNuAf/qH7Ii/fX/MuleZU7GFDfE9Gz/DxYg0XqCGnORdNIwGUHALewz/sb3JK7gveh4X61zSDmcxZmoEurCnWWl3k01bjrS/WCvISt5NrRWg9ka3MJAxl/ToMys7cqnNM7UwhCaGld9/kgmXvmDblr2UNXe3oOvJS9pGnvGfLtccHB2AaupqBtQI7UzHZ+ooGrKyKG8oobAU5vv44ygumn/YJsTy+MzRVJ07xCWVK9PCwpj97Fqs6l8lPvf2ZJfi7cfYvCNkWd1P6EPPIwoqSTfYExYxn0Xzj5L9VQGKyOHUqcuExoQTEvAZhem373cInc1kdTN5Z/W3DZf2Nqg8Z6D5e7OYEu+C76RsUj9tIXhZ94oORx9blq+wj+Kx1c8wnRLOn02ivK4Z63E++Ic9xtPeDnz89mcUt1quO8JWy5JXfkzwmBoKDEe5cLUVO/dAdAtWs8rbkT9vTqCme9/1s98kkuFGPcYZR9ueF7I21VVyvWngnl9rn+XEzRpP9ZG3OVjU0vt0kbU/ukAXRikK3mEhOCXmU9mztEUIYU9gmBab5gwMZ6/R+5RR37KKUtTJsIhkRWw5uzbuJA1v3DwLuwTUpqd80Wt5RjRoQqNu/2fiefHACajusc5G783Bj96lXFFI2xjPirdXs9DwGomXvYlZ9yq+FVvYYGYqyQRXM7E2ZjxBt2JnzE1PdWdEGi+KUkeh/msKMXoeQqb0/mJTFG88G99h098yaFEUhNhP2X9sYLH/PHQORzhRb/SEZB/YTTbGoEuvhYGMKtFzMKGPoEvXKXjYKlhNf4KXXp9L7pEv2JeYQk1rH5Hd6gC0/g6I0mSyr2JJcHdXJgUw2b6NS/nZCKWRgoIa5kf54WO3hxQz8yGOk1Ukv7mR1DpjgYdOLeXlnywheE4oe3P03AqVGVuXxle7D9PiPw7fVa5U/2k7+roZ2M38BaEuHijiIkJRqDh2mKIHnsYvYja2aYdpVBSEGI8uZAaqmwZSDTdMf1zxKS7c+BEz7h+NW+4Z/t5kQ3C3eg5HH1uar2qqjil2gvwvNvKP4w0d6afSHiDYC9SjgTrLdcc+7EGCxjWS9dkb7DhjrJgQ/yL9sfW8MC+WWVMS2NfVcdZnvw3l16ZE0huTFq/juahxPV7P+fyHbD8xMINaqCazYPl8xtUc5uOvs/v2KjancvrYHMbPtKPsiL7HF/WAGBeFbqqam+l6MhvofYy2RBbQvRgHCa8ZvSYe4Sxf+wiH3nm338G8ANUZ8aSfvT3lZM7zUsnpHlcZuXmWkLRV32k2QM/Bd0qAKFasW4Vz+hsmwbY9UmEasHs71uY2xjr2b1XSiDReLEWIG+Sdy+gIilWUGrKyL7N4mhPjXBnwlA0ABUns+iQV9aixuPlFExbzQ5532sx7n6TQ2MODJ4QtPo9+B519HRlfHKB6EC+ecb5+jKeYs1nGJ+ZSbg5Nc4OZMsOKlHOmUbui0EBGLR0PV2uJgdyaJUQ5uTIWuNIu19bSZBw4mptpoYmbjQDNtLSAolKjAAKg9ghnMpbiHTCXoHGHOXENcI5C66Vw4+wxspow8yAXkZ5+kxfn+ZK74yOaiOwuYDHD0cdt9fU0ouDo4cMYVVrHqrC67P0czoaBWpxOLq4oVFJRNZrxTqM70usrSmghiAkuVlDQte/66rdBOe8kEguoOLGNnXmjerxe1x7XZylCqHCPfY7ZrrUYPvwHhe1ebL9n3+XJ4Avs+vn/3zFFcgtFqSVr10aydnUkDKhsczjPisRTdR3DybN9GlGWyBqDY+PZ3HlKqLKUym7BvD3eL7xwC4XyVHAJjcKlPd2c58U/NhgwH/NSXmKaVkY4a9YGU/XpG2zuJU7mTiCNFwAaabrZNaW5qQmwQj3IbfyUunzOG/IBSNMfoejZ9awIeYp5h1NILDaVF8IWz5gfs2yOM1eP/ZE95+oG/MAJMZrp07zg2lHKW8cyxh4oL6JcROA9fQacO29yT1tTY7eVTZc4sXUjWaoa6gZQB0Vp4vyxU9Tpogme7cmJfSW4hs/GTanl9OlzPXoESpPf47McW67kNwyRlg5DH+ftIzkzmLjIV1gbfp1rV6q4Wl7MpdzTnNFnUDvAJe4qtQpF8Sb6x78h2sx1RaUCuhovQ91vEslAuXEplYxLQ5+vyu1Bltw/kespm9l3oeGurC66hRCTCAmbhHItmdTsvvZ2sUA2ZBlrntFQ9Sm3p1nc3QHQ3jJE3MN4/H4Nx955jSQzXhNFKaI8pYjybunmY16CobwQ4eGNYsZYuf0bIlmxbhW+LmVkHYgnE48u0z0dhlBC78uthxJpvNxBFKWBLMN5mkIicfd2gOKun/tCcWT6o6+w/D5P6k5/yMdfZtA0mAfUWstUbwVFGHBZAAAgAElEQVTF5j6e/Z/7upblMxMXkUllH/krSit1ZXnGF6CitLtTLKM1Zz/nyu9jbvh8PL45in+IO9QkYcjpeXmjcr2Ei7e8F99SLVWUKs5ueZ0i31Bm+ExB4+qKk2cYc3TziAjdxZbN8VQO0IARooSUz/dwscn0Wn++XE36TSK5QwxXzMuEwFl4qK9wxlDCGGcNY9rT7W3uvH6rfOYR4AzVyUeNWzoMkSxnT7OzfGeXqRxR7kG0lttTQCl60uOhuxFkEvDbjZ5iXgj+EWvuD8Ipw3z8iiZkDctjNeBS1qPBdNsQ6qFwMzEvPdbRdM2LWb6lr4V7GyHUeM9/lsDx+Zz48nAXA0GlUhlVrq2t6z3Wk5i98kfE+ttSdnATn+1O4/ogXzoqn5l4WbdRkPAuRy7eLs8lchWLdL74jIXK2kEV0S8UpYRTJ/OIeiSYgIgGpjlBZdIxSkfAS1VRGqnOPsbx7GMACGHHlGW/4rtzHiBscjx78y3Ps621DWjlat4JMqrv/TaS/HsxXDEvCqAoToSv+g3h3a6JO7jzgxAqpoWH4yguk3yygL72dumvLLR7TSyIaxEeXh0ek84Bv+bo0fNieJcd8aZlakKWMT8IMvftZtNGiFm3ut/1MsFMzIu5Teoq3cNw6ucOw9J4GQjNzbQIUFtZm72sKK002PkQMk+HVZ6BL9Pbgy6VsQRH6LCmjOL869xSZMUxiMWrXmKWewMXdr3FrqPFg9uUrh1PX1/sKCJHn0b+tdv5FY7J4wFdEJP9RqM/2dBLDkNH7clkch5cjU90ME6imORTRQw8CvnbgaN2KdEzbbiY/A8yKo2jp6I0cOVqPWCPlbmnqw/dAaiurEAwnelB7hxNKu3Yw2L0lLkEeqkpPXuQwrp7u+0kI5fhinm5ZtjBjrIxJume973EnCnm7xFChfeCFwmbqKL5YgJ7jl4c/J4w1kEE6RxoK/qmH3u79E9WExLZEZtiQvdpow7CiH4miKpP3+gSs2KMefEwya+/q42E8MLNE8pTvmBHyq3UO3OeUXn8Jnb0U3ZEGi/COYg5gR7tp04quE0ArNzxWxiHBqCpkLTDGX2uy++RllwuXW5jmnYZTzwyhcrGVqCF0rPxZLd/KVcc/DtnQ14hdOVrOKScpviqivEzZuHvZUudYRsnSwHF+KUe9vQPmOXZQnXaKUptdcxeqOtS3JXMbzhf1mZaj97aQLjiM80ZqlO42G21UktuDqWE4DXND9WJs3dmJUrDaU4bnmDlbE9aC3ZgqGJQtstw9bEl+dZdU5gYFkuQ31SmpWRS3SAYNWEaM0OmIq4d43yBmQL6oTv1Z74h9f4ZBC9exyoPPXmVbYzRTGWavw+2Zbv566GBtZlEcicYrpiX5soLXDC3zjnwxV7u8sE/ejZax+ucM2wdks3sRoXMZbptGwVnjlPX194u/ZQtT9H3OONiMm3UgZ70FFN5i2JegtxN5Izen15/1reCEWm84B7B/Q/NwqpLR3sTGucNgLh+mMuHMxjojImilHN0+1Yclz/CzKiH8LdRIUQDhkvxZLebsUpjJl9v+h3VcUsJmT6PKAcrmmuKSPvqA5IOZXXaV0SFlZUKRRmFc+CDPBBoWl7O9USLjRcctEx2g8aUbNOHojabS1UwycefiZzlTsSMK0obpZfLaBOOFJzRUz/YQWS4+tiCfEXxl2z7oJ4FsffhE7EYra2Klus1VGXtY//ef5LXZPob+6c76ez5w9tUxi0leFokkVormmsruKzfxsG9Bynra95cIpEYcfVjsiNwRc+pTLNLGy1CCHuCQrVYN6eTmtJped8gZe8GilJE0tZNWFIvp2DTc42M9L5nzHCgBAQEfEv3iZeMJIRwJPKHb7JoUgZfrv8jafKsIIlEMsyMnvczfrp0BqV7X+MvSf2MBO0FMXYRL/33Ezide5/fbTvd67JnS2R7LdNjGWtWYsHp0Z3v9UK3aDXRrm44uypU7d/Q/71ZOucjIlnxdhiZPew1I4QXuiUeVO4xPcpAE7eel7UGdiV0decYN6QzmDlt2jgdxoHe95EZmZ4XybcPpyi0U1TcTOvfJk0SiUQyGIRQM2XqFJSW85w+Xs5QDDouEZF4qupJOWXo0xixRLYvqioGNo+jlBSRvvV10kLWsCaolJ17Cge0+lBR9Oz4hZ6e2lBRikiPLzKfd2k5Wb0eCNkd89NhJmVKz4vkTuC86Nf8IHYchr/8nN0XvqVHWkskkhGDEL48/D8/wy9nM7//JEWe8TXCkMaLRCKRSCSSe4pB7h8rkUgkEolEcmeRxotEIpFIJJJ7Cmm8SCQSiUQiuaeQxotEIpFIJJJ7Cmm8SCQSiUQiuaeQxotEIpFIJJJ7Cmm8SCQSiUQiuaeQxotEIpFIJJJ7Cmm8SCQSiUQiuaeQxotEIpFIJINgQsyrvPrWOzzipx5S2c4Ij2U89cIytB53b1N87QtrWBjiddfK78yIP5jRZuZKXv7uPOzrTrDrD1vIuiHPt7hb3Gt9MVz1vdfaQSKR9IwQHoSEeqHUHiQ1q4XeDoC0RNYEjTu+rqUcvNz7bUJ44eZZSLmZ05/BaIBoUneTlGLZ6dLCYxnRARqy9hVaVG/Rfiik6enR5jGeNh3Pzo9MT6juzIg3XqwdJzDGWoW1wwQchujXCtsFPLfhGVxP/p7ffp5pVsYmai2/XO5v/v6yr/jTW19S1aljrJyCmLP4IYJmTMLBupn6KyUUnvoXiYfPc71tYC+37nUQoo225htcK05Bv+cLzhTWISw9Yj3gJX75wmxGdbrv5tlNbPzU0Oe9w9EX/UH7/Pss06m4cuh/efdfeQAI4UDkD9/iQR81JXt/xYeJFXesvndLJyWSexnh+zzrVs/F1syYJa4eYOuGTyi+C4cvqqZGo3WBmoNHKRK9l29OVggvdKEeZuU1QauYE5DKrp+/C0FBVKfv7vWFDsYTngnewA8XGdj50c4u8gM1QAB0ixZDxl7KNVFoNd3r2bvB4UQJ6Sn6rvfErWc5H7I5vofTpvv4nSPeeKnXb+IPF5ywuVlNbeOdU+yWgiMkxV/ommjtxsw5kbi1tNDcKVmZcB8rXvkuU60qyDUkk1YrGDc9Au3Da/Ec/1s+2JVFywAfSiEaKdbHk1MDoGA9xgOf8Lk8tMYHh3fXc6DYwhOey05y8OsSjA5PT3QPRTC2n7ferb4AELVXsQ6czaTduRQLBRzC8dVcpebmhB7vGa763s12kEjuWVQqFASlZ3eRWdbtWmMBV+5ClYRQ4RMejiOlHDxxkd69LuZlFaWI9E5eECEiWbHOg4Mbd3a8yAXexLhCVWr/jI6yPR+Ste5V5ofuZEfK7XTdomCqPn2NpB68Mj3WPWQN0Wxh81a96TWPZUQHuFH1ae+ekqFmxBsvitJK47UKGu9wuW2lpzhaevt/lVMkS7/3CK4NKez+dC/XlFtWtxq/h55gql0Zx99dT2JRizF9bzJlP/o/xM55jJDEjZyqH2hNmqlIjedo7m2lOqi/zEs/f5w5cdHo39tPgwUKp1Snod+f1l73SCZZYLzcrb4AoD6HQqsQAqZupzhPYB8Uilt+LgX+ETj2cMtw1feutoNEcq+iUgGC6vR4jp4zM2bdBa8L1oEE6RxpK0zAUEHvdoUlst3xDMfXpYwqotCG3Er0wD92Mc4VpkaFohSRuO0N3C6DJjQSl7PHSfNcjj/x7Ei5XbAmbg1aw7u9GjNCRLIiFg5tPG7SxkJ4EbNyMRx4o0u+d4IRabwI4UXsf73KHOdO7rJGPdt/9SG53RrfYf46fvKwFfvf/oTmmGeImjmRMUodZWnf8PWXSZQ23jIy/Hl0/U8IGdPp/tlreX327X97mn6wmhjDipeexL06gU+3fk5Bfec62NFcdoozV7M5U9jcoRyKUkVebiWxk50Y7wwM2Hgxpa0ilYvVj+Pu6o4zUNyeLmwnE75kOZG6yYy1bePGlTIuGeJJSjJQ0zpQz0//+wJAqJ3xi32K6Fm+uIxRcfNaJSXpSSQlHKHiVl8o01nyq18Qphzmb2/8jcJOrlphN4+Vv34O74vb+f17+7lxqwzranLSJhITOpNvcovw102mMPWfWOsiBlzf/urOQNrB1msB9y9ewAxPJ+ztrGiuq6QsR8+R+K/JrxXteVqukyqH6UTELSXYx5Ox9ipuXqugJC2B/YknqGrqXN8InnpzNR763/K3/GCWPDgbz3FqGq8UcD5xO0kppbTejZeF5N8XlQo1rbS19f8WIZwIeu6nPOQ3itL9m9iWmE/bEOrtqOC5TLdro+jscWr7yLcvWY2H6DFOBY07ThnxbG6fehEikhVvu5P58++R3kO5SkkRZXijo4Q0vIlZ5E7mRzu7GCBle3ajXbeBpxI+ZIeZGBghIlnxYhiZ23ajWbcB//QP2dE+zSOEFzHrXmVOxRY2xFsWPzMUjEjjBWrISd5Fw2gABbewx/Dv1T2g4L7oeVysc0k7nMWYqRHowp5mpd1NNm050v4CrCAreTe1VoDaG93CQMZc0qPPrOzIpTbP1MIQmhhWfv9JJlz6gm1b9lLW3FXRFKWevKRt5Bn/6XLNwdEBqKauZkCN0DM27ox3AKprqb1VT9VE7v+P/+Q+90YunztCRlUr9t6h6GLX4D3xYz74yyHqBvTQ978vhHBAt/K/eVxrTfX5k5y4XIuVRot23vO8MHE0W97fR1WbgiJyOHXqMqEx4YQEfEZh+u1JOIfQ2UxWN5N3Vn/bcAFQFCrPGWj+3iymxLvgOymb1E9bCF428Pq2Z9wP3bGwHeyjeGz1M0ynhPNnkyiva8Z6nA/+YY/xtLcDH7/9GcWtluuksNWy5JUfEzymhgLDUS5cbcXOPRDdgtWs8nbkz5sTqOnexxNieXzmaKrOHeKSypVpYWHMfnYtVvWvEp/bjETSHfUYZxxte17I2lRXyfWmAayYaZ82Qhg91qMcHbG+ebX3vKz90QW6MEpR8A4LwSkxn8qepS1CCHsCw7TYNGdgOHuN3qeMepcVwgvtyleZn/AGfz9rer8uSENWaqcETw+cK0tNfsut4NiOWBfPcDTlp+HF1Tilfki6pzcaAI0HLu33lKfD3Gdf4ylWd/GeCBFJzIseHPzoXcoVhbSN8ax4ezULDa+ReNmbmHWv4luxhQ1mppJMcPVAGxLZJUnjChCONuR2vM+t2Blz01PdGZHGi6LUUaj/mkKMSh4ypfcXkKJ449n4Dpv+lkGLoiDEfsr+YwOL/eehczjCiXqjJyT7wG6yMQZHei0MZFSJnoMJfQRHuk7Bw1bBavoTvPT6XHKPfMG+xJQ+PRlCHYDW3wFRmkz2VSyNrer867Bx0DDeyfi3taMXfgufwM+2gdzjRzumr+zCH2eOJxR/9b/8NbkcoSgIsYfclW/wZPBiIiYdIunSAEq3pC+mPkyM1p6a47/jg53n2/tiN6cX/oLvPxRH1Iwkdl8wfnZVHDtM0QNP4xcxG9u0wzQqCkKMRxcyA9VNA6mGG5g0WvEpLtz4ETPuH41b7hn+3mRD8GDqS/90x9J8VVN1TLET5H+xkX8cb+hIP5X2AMFeoB4N1Fmuk/ZhDxI0rpGsz95gxxljxYT4F+mPreeFebHMmpLAvoKu9zhOVpH85kZS64xteejUUl7+yRKC54SyN0c/pF+xkpHBpMXreC5qXI/Xcz7/IdtPDMDwVRSj8TJhDo/9bAVa99GoRAvXL59i/47tGErNTMQ2p3L62BzGz7Sj7IieastL7ZlxUeimqrmZriezgd7H6H7JllFdXgh4AO5oQ5ezPDaYrAQDThUfkukejuasMBolGnecKs6YxJgoKZs4FPQBL79YwoatenTBkG4IZ3mAG/AI2oozlBtKqCwvoZL2FUkpenD9gO7LS9w8S0jaqu80G6Dn4DslQBQr1q3COf0Nk2DbHqkwDdjtCMztRKV7HL70b1XSiDReLEWIG+Sdy+gIilWUGrKyL7N4mhPjXBnclE1BErs+SUU9aixuftGExfyQ5502894nKTT2MPALYYvPo99BZ19HxhcHqB7EC0JR7Al89jcEds6/5Qr5SR+wW3+lQzFd3D1Rc5mctPKOFUiK0kB2Rg6twSE4uanhkgX+2gEw2tMDB26Qkn6+U1+0UXX4L3x8yZXWKjXQXofaI5zJWIp3wFyCxh3mxDXAOQqtl8KNs8fIasLMAFFEevpNXpznS+6Oj2gisruAxQyH7rTV19OIgqOHD2NUaR2rzeqy93M4GwZqyTq5uKJQSUXVaMY7je5Ir68ooYUgJrhYQUHXAG5RaCCj9naRrSUGcmuWEOXkylhgqJ2CknufihPb2Jk3qsfrde1xfZaislKjYIPvgvlkndxD/JEW7L1mET4riodXtXLtzb9y0cSzXUvWro1k7epIGFDZ5nCeFYmn6jqGk2f7nEK1RNZIKelnd5KU8gWakGW47CkkLTQcHVAOuLlrqK4w/5JP27cFjeY4wmM5/pxmR0kRm3/xhRlJpdM9b1DZbQl2eYmpYVJGOGvWBlP16RtstnCp9VAjjRcAGmm62TWluakJsEI9yG38lLp8zhvyAUjTH6Ho2fWsCHmKeYdTSCw2lRfCFs+YH7NsjjNXj/2RPefqBvXACXGD/IRPjAFitNFcX0VlSTE1N1q75Ku2UgPNNHX7eGm92UgrCmp1J8NhmLBSWwE3aWrqmq40V1GcXdU1TWni/LFT1OmiCZ7tyYl9JbiGz8ZNqeX06XM9egRKk9/jsxxbruQ3DJH2D4Pu5O0jOTOYuMhXWBt+nWtXqrhaXsyl3NOc0WdQO8Cl8yq1CkXxJvrHvyHazHVFpQK6Gi9tTY3dVrpd4sTWjWSpaqgbUC0kI50bl1LJGICXti/aLuzi4/cTuVmdR2lN+8KGEwfJvv5rXn5gNsG+H3Mx/c5s4CbEJELCJqFcSyY1u6+9Xfova5bynca4lnLQhEJ6Cri4uvW48kgp0ZNUouAW5061wSgjQpaxwr2EzNLu0h74xwZTve01knp5zxhXQK3C16WMrAPxZOLRZbrnVj4kvHbHAnel8XIHUZQGsgznaQqJxN3bAYq7fpYLxZHpj77C8vs8qTv9IR9/mUHToL8UWqnJP0FG7p1RqDtJa85+zpXfx9zw+Xh8cxT/EHeoScKQ09ajwadcL+HiLe/Ft1T7FaWKs1tep8g3lBk+U9C4uuLkGcYc3TwiQnexZXM8lQM0YIQoIeXzPVxsMr3Wny9iRWmlrizPaLjIKSOJGYYr5kWpL6Egt1ua0kZZXh43HnBnnMt4uEMLplU+8whwhurko8atF4ZI1hwdQbyXT8Oi5WjOluAfkErmR/RoBwkRyXxtKQf33JJxx9e1hB3xehM5/1hI72XjO03IGpbHasCljGPvmF9mLYQXmthgo1vIHGZiXsyW5QqYrnkxy7d0+L63EUKN9/xnCRyfz4kvD1PZaZBXqVRGHekWMi+sJzF75Y+I9bel7OAmPtudxvU7+HJobWkFrLGxBW7cTlePskWNaL8+vLS0tgCjsLHpmi5sXPH20SAqLlBcfXuuXFFKOHUyj6hHggmIaGCaE1QmHaN0BLxUFaWR6uxjHM8+BoAQdkxZ9iu+O+cBwibHszff8jzbWtuAVq7mnSCj+t5vI8m3k2GLeekJxXjOjTLwwECLEELFtPBwHMVlkk8W0NfeLv2V7QtFKSK94hHmv+iOb8YZdphbrenhhU7jgSbIGJMymH1XNCHLmB8Emft2s2kjxKxbPeC8zMW8mNukrtI9DCcT75B5pPEyEJqbaRGgtrI2e1lRWmmw8yFkng6rPANfprcHRypjCY7QYU0ZxfnX6dikyDGIxateYpZ7Axd2vcWuo8UD3pRuoFSWXqYVP3y0Lhw9ZJyiEcKOGQHTUVNFVWkrpg/edRpvgnrUGNRCDHrp7I2SEurwZbJ2JlZZtwJ2VTjft4qVizWc+/NPKe4WcVd7MpmcB1fjEx2Mkygm+VSRmXreWzhqlxI904aLyf8go9L4haooDVy5Wg/YY2Xuqe1DJwGqKysQTGd6kDtHk0o7YptGT5lLoJea0rMHKay7t9tOcvcZrpgXp3lrWB5hR+6//sj+XKPrUAgbpmj9sKWByjLTCCwhVHgveJGwiSqaLyaw5+hFi3cVN8E6iCCdA21F3/RjbxcLZLvhEhqF1t0DKCF9j3EDuDJDKc5rgzn2znGzmSklRaThgX9A/ze0647xeAEoT/mi0wZ3d+Y8o/L4Tezop+yINF6EcxBzAj3aT51UcJsAWLnjtzDOuEysqZC0wxl9rsvvkZZcLl1uY5p2GU88MoXKxlaghdKz8WS3f9FWHPw7Z0NeIXTlaziknKb4qorxM2bh72VLnWEbJ0sBxWgghD39A2Z5tlCddopSWx2zF+q6FHcl8xvOlw1vvEnDmX9yfK4/85b8Fy9OOsnFqhbsvcPQTXfgxvldnDLrVrxIfl4DOr9H+c6yCRRca0FAl/a1qC/y9rA/M4KlUWv43vgTZBXXY+0WgDbAm6bcv3Msp820Eg2nOW14gpWzPWkt2IGhylw9+89w6Y4l+dZdU5gYFkuQ31SmpWRS3SAYNWEaM0OmIq4d43yBmQL6oZP1Z74h9f4ZBC9exyoPPXmVbYzRTGWavw+2Zbv566GBtZlE0pnhinmpOp9OQ+yzzH3x12gMZyi5pmDvFYLW15nGnO0cymw1M5Xpg3/0bLSO1zln2Dp4wwUYFTKX6bZtFJw53uf2Ef2W9fQA3PBdtAFfV6iqMED5cZJuxY8oCsJjmTFY9kA5c1YuJ33jTvOelcslVFeWmU7hmJ268cC5W4qiFFHevwU/d5URabzgHsH9D83CqkvHehMa5w2AuH6Yy4czOvY4sRRFKefo9q04Ln+EmVEP4W+jQogGDJfiyW73DCiNmXy96XdUxy0lZPo8ohysaK4pIu2rD0g6lNVp/w8VVlYqFGUUzoEP8kCgaXk51xOH3XhRWotIfn8jdXHLma27jzm6Vq7XlJOTuIOExBSzD56i1JP6j/eZsOwJgkPjmGyrRqUoXdvXgr5QlFpSP/7/aIp5kuhZs4icoabpWgWXjnxEUsIxrpiZL1aUNkovl9EmHCk4o6d+sIPTcOmOBfmK4i/Z9kE9C2LvwydiMVpbFS3Xa6jK2sf+vf8kr8lcO/RHJ9PZ84e3qYxbSvC0SCK1VjTXVnBZv42Dew9SNoD5eInkTqFUH2T75htEPxiDv/8CJtsKblwtJy/pzxxIOtmx7UMXXP2Y7Ahc0XMq0+wSRIsQwp6gUC3WzemkpnRahjcIWSEiWbF2Fc6VqRzat5v0jlU+t+WNcSdw6J3XSC9R0Lp+wMvr3Nm17V3Su8egeIbj6wJZ3QsyM3VjjHkxf66SOZyCTc81MuKBEwztUvQ+UAICAu7e+doSySARwpHIH77JokkZfLn+j6TJs4IkEkk7o+f9jJ8unUHp3tf4S1I/I0F7QYxdxEv//QRO597nd9tO9zpVbolsj3kIL3QvPoJ/xe6OnW1voX1hPcu07lSlf93lAEYhIolZFwbbbm/7L0LWsMZ9t8m+LJ3PUeotPsa4o28Yme+YMZZu1XOJB5V7TM830sSt52WtgV0JXd05xg3pDGZOmw4j+pkgOND7PjIj0/Mi+ffBKQrtFBU30/qxUZREIvm3QQg1U6ZOQWk5z+nj5QzF4OASEYmnqp6UU4Y+jRFLZLtjPGk6HA2nSf/oXbPBuelbX6cyJBLOdjUYFEVP0pt6Ov9eJWUTm1NMskBR9Ox4kz5XDiqKnh2/6Jpn1+tFpMcXmc+ntJwsTnc5fBLMb1JnRE+6mbqalCk9L5J7GedFv+YHseMw/OXn7L4w/CuiJBLJvYEQvjz8Pz/DL2czv/8kRZ7FNcKQxotEIpFIJJJ7ikHuHyuRSCQSiURyZ5HGi0QikUgkknsKabxIJBKJRCK5p5DGi0QikUgkknsKabxIJBKJRCK5p5DGi0QikUgkknsKabxIJBKJRCK5p5DGi0QikUgkknsKabxIJBKJRCK5p5DGi0QikUgkg2BCzKu8+tY7POKnHhJZTdwangrxGsoqDgnaF9aw8FtSrxF/MKPNzJW8/N152NedYNcftpB1Q55vIRl6hkvPpP5KJN9uhPAgJNQLpfYgqVkt9HYAZG+y2rj1+PNh++nRGpzdQZRHotOYycg9jGhtKTv7OA36Fpq49Sx3NXQ5fRpAeHihlPR8cnOXunssIzpAQ9a+wl5/o8l9IWtYE1Rq5vToHuoaFIcv8ez8yPSE6s6MeOPF2nECY6xVWDtMwGGIfq2wXcBzG57B9eTv+e3nmWZlbKLW8svl/ubvL/uKP731JVWdOsbKKYg5ix8iaMYkHKybqb9SQuGpf5F4+DzX2wb+wlLGTCHswccI85vEOAdrmq6VUZKexP59x6lsGli+DvPX8ZOHJ3Bi03+yr2BoXqYi4CV++cJsRnVqk5tnN7HxU8OQ5N9ftM+/zzKdiiuH/pd3/5VnrJtwIPKHb/Ggj5qSvb/iw8QKk/uGQ8+GK9/+6K9E8m1GiPHM+v56Hpp2ndN/fp2vc5ruWl1UU6PRukDNwaMUid7Hw95kKwHnbvJKiZ70EtCGRJKeou9I1watwqniTL/rWFZaDpymXFHQeHhRXlKEEJGsWLsK5wNvsDm+bwNGt2gxZOylXBOFtptB1ZfB4URJl/pDu0HFhyZld5w23YdRNuKNl3r9Jv5wwQmbm9XUNt65r9aWgiMkxV/ommjtxsw5kbi1tNDcKVmZcB8rXvkuU60qyDUkk1YrGDc9Au3Da/Ec/1s+2JVFywBORBUqbxZ8/xfcp2mkJO0kJytuYusZTGD0Kp73sOUvfz5ATR8P2x2j7CQHvy7B6Ej1RPdQBGPvUlVE7VWsA2czaXcuxUIBh3B8NVepuTmhx3uGS8/ulv5KJN9mRoesYP50G66efI/E7Jt9vuiGCyFU+ISH40gpB09cpHevS/9lu9U+Hd4AABa5SURBVJNW7sGKOC92xBchQtYQ7bqXDzb27JnQhETi0jnBXQOu4WjjHmHZA8Fc+GQDmUGr8M3YwoZ+GC4iZA3RbGHzVr3pNY9lRAe4UfVp756SoWbEGy+K0krjtQoa73C5baWnOFp6+3+VUyRLv/cIrg0p7P50L9faO1kINX4PPcFUuzKOv7uexKIWY/reZMp+9H+InfMYIYkbOVU/gEpMvY8wdysq9/+ej+ILaVMUhNhD9lMbeCbiESJ9DvB17hD82CFAqU5Dvz8NACEimXQXjRfqcyi0CiFg6naK8wT2QaG45edS4B+BYw+3DJee3S39lUi+rQhrfxY+HIrdtWN8uTud5rtkuABgHUiQzpG2wgQMFfRuj1gi2w2l5AsOBq/hqThw1sKhPqaLylP0lHf6XxBGNKdJjy8iPd7o9Xi53QDqy/ATIpIVsXDIjKwQXsSsXAwH3mBHyp3thxFpvAjhRex/vcoc505ze416tv/qQ3K7Nb5xCsSK/W9/QnPMM0TNnMgYpY6ytG/4+sskShtvGRn+PLr+J4SM6XT/7LW8Pvv2vz1NKVhNjGHFS0/iXp3Ap1s/p6C+cx3saC47xZmr2ZwpbO5QDkWpIi+3ktjJTox3BgZivIwezSgERWWXaevIt4mLB/7K7iInamtUgLjdRmpn/GKfInqWLy5jVNy8VklJehJJCUeoMPnqF7SpvQl/5lnmzpyIbUsNZRf2s++ft9usQ9J2MuFLlhOpm8xY2zZuXCnjkiGepCQDNa0DV3ibifNYELsA38ka7G3auHG1nMuGRJIPnKCq05SYEBE89eZqPPS/5W/5wSx5cDae49Q0XingfOJ2klJKae2sF9bV5KRNJCZ0Jt/kFuGvm0xh6j+x1kV0/V3DoGeW5gtg67WA+xcvYIanE/Z2VjTXVVKWo+dI/Nfk14r2PC3XX5XDdCLilhLs48lYexU3r1VQkpbA/sRBtq9EMkCEUOP54NMEj71K6pa/k9eHN1IIJ4Ke+ykP+Y2idP8mtiXmd4yFQ8Go4LlMt2uj6OxxavvI1xJZc5QZSnFeuxgytlA50Apj9KIs1xr4oJMBJDy8cLtcaGIQCRH5f9u787gozjSB47/qbhBQiIh0c6hEvKE52wMR8UJjMJlETdYc7k40zpFzN3Osn5mNu/NJZnbG2XwmM7ujmzgzTrKaSWLikWE0xhNvVBCQS1A8AIHmVAHB5qj9oxE5WujGoIF5vv9R9VZ19UtV9VPv+7xvsWyFiezNCRhWv01Q5u2cnNbAZfWbRJfZ13rzdRuQwQtUcz5xO/VuAAo+picJ6vYxXsF3wbfxdrpAxpFcBgdOJcT0DMtdb7Fu41FuKgpQRm5iAjd0gDaAkHmhDC5KIin7zml0I79rhKEa4lj+vacZVrSNzRt3U9rY8eRQlFry928m3/pHh3XuHu5AJTXVvaoEuFpAWctkAqMfQZ+5k7LWz26pyCatotNxqu6ELP8pi41OVOac4uTVG+gMRowx3+aFEW5sfH8PFR1ybyx4z3qBseSTcTTPWmeTn+F5twbWbzzWWmegakYw5/v/ykzfBq6ePUpWRTNDAiIJmf8KASM2seFPh6npTZeYYT7Pv/Q0vg35ZKfso6pBh/uIUIxxqwh82I333jvY9QYxbD6LJ7lRcfYwRRo9Y00mpj3/BrraN9l1oV1HnqJQfjaNxu9MYfQubyaMzCP9L02EL+l8FH1xnjm2X3XIdJ5c9RzjKCbnzH7MNY04DR1DkOlJnglwZ9M7n1DY7Pj5q7oYWfT6a4QPruZy2jHOXWvG1TeUkNmrWBngwR/W76W6t/UrBjTt4OF4uNx9IKulppw6i3rX9d3yjmNhjA+1Z9az7wK4OGloaGy5e3mnIEJCvRmkKASYIvDad/GefvjbU9UhhJqMODdmkXbmOt13Gdlftuu2owhZ9Dix+hS2/ug7EPkqS9+Jp+JgGtlpyZRzBXOxgqqOwifSr2N30W3tuo1i5xioOJiCd+R0a1lfE7FzwvDK2sjb7bqFVDWKuBV+HPrz7zErChlrd7HsnVXMS1vDvqsBxK1+kwllHbe5K70fxoioDosMeoDJGCP87ixrzZ2x1T3V2YAMXhSlhitJX3IFa6QeMbr7HxVFCcC/4V3W/V8WTYqCqh6g9PtvszAohhD3o5ystbaE5B1MIA9rwuOoeaEMKk7i0N4eEh71o/FzUdCNe4oX/30GF45uY8++1B5bHFRtMMYgd9SSRPKu4VATY5uKA+w7Mo1ls55k1U/CyUk5QUbyKfJLa1E7//AEPkaccQjVJ37Dhq05rfWQQPK8H/O9R+OZPn4/Cefu3CQUxRd9zbus29K5zmZidD/GqdbfQdfJi4n2h8K//YoPE82orV1XF5b/nKfDFzJ15GH2Fzn+1Vxd68nb/zGJyQe4dON261gC55/9T5aZYgkdfpCjlR238XhYQ+Kv15JeYy1/+PQTfPdfFhEeHcnu80kdn8gKT3Pu5quMn+OGz4UUPrU4E97pGPriPHN0v5rAEEa7qlzctpbPT9S3LT+dMZfwUaB1A2ocP3+HmB4hbGgDuZ/8nC0pta31+1cyn3yLF2LmM2X0XvZcvof6FQPWyIWr+afpQ++6/vxnL/PxSceDWVV1xRgfj19DAfnDlvHPv/DCiVtU5+5l55YELtXYCIga00k+Ho3nJFdKjyZR2bVE7w2dTkiglluZSWTX0/092p6yJbvYeuZK60OsmYoSMEQsYZYvZKf9nvXFinVd6jrWmaOIWxDP4jfCOf6XP2IuLkBRCjCnFnToLmqTmkRGxCu8Mh8O/2gNme2vxdQkMnd13cTHv5j9HyS16w1I4tC7xcB0lq1eyfBM+xJ9ASjrmrDblpjbTrlvPBOwb1TSgAxeHKWqN8k/m9WWFKso1eTmXWXhWC+G6uldl81tl/ez/aN0tIMewmdiLKa4l/m213re+yiVhrvczFXVhTHfepaQITVkbTtIZS9v+opi4VLCr/nQ/Biz58QQPPtZjLOXUH3uAF9u2UF+u4vdzd8Pd26SmpnTrh5aqDjyJzYV6Wmu0AJ3gpfu6syzXZ15+/qj5SrnM8xtAZOi1JOXdZ7m8Ai8fLRQ1M2T0100XD7KscugqjpcPTxxdbY+6dVWVwFDGfwQdL5TqVfSyLpB242juTiNC9WLmO6l5yGgYwNXAZmZt1gRM4ELW/6MhY5PDb3RF+dZS20tDSh4+I1hsCajbWRaTd4BjuRB76Je8PLWo1BOWYUbnl5ubctry4ppIoxh3jq43Nzx+zlUv2KgKju5ma35g+66vqY1r89h+rnMMLqiWJyoz9tNwtFmho6bQdSUx3huFWz47ReUdxqAoCg3yN2+ltztbQt699k2DJ8Shb+mjrRTZ3rsFrWnrDk1CZUA4l54HNJTyGYyRorJLgHaj/DxNRFrhMOb1/D2B/Z9H0P8Wyw1ptk9tBrAbGMIdSmTeeWNcCr+8nPWp97/rqL2JHgBoAHLrY5LGi0WQIf2HqfxU2oukpN2EYCMpKMUPP8WyyL+gZgjqewr7FpeVV3wj3uNJdHDuXb8v9l5tuaeLjhFqaf09Gd8fGob7gERhEUtIGryoyx7Scemd7ZQ2Ppjp9PqgFtYOo04VBorKMyr6LpjO+tMq9MCjVg6ZZw232qgGQWttmNQZC9V403QY8uZN20CwwZ1nOxJVa/Z/MlusTR0GrVVxMkP1pKrqabGRvmSxPf45LwLVRfrv6YrpQ/Os/w9JGaHEx/1Om9MruN6VQXXzIUUXUgmJSmLG70cZq/RalCUAGJf+wWxNtYrGg3QMXhxtH7FwHSzKJ2sXrSm9kQfORWDcp30j37FX3OsrYxq2nHya97kxbj5xIZ+ydb0+9M9qaojiTCNRLmeSHpeT3O72F8WAL0BzCfILFbIpOtcLComFutTyCzu+do2vrCBWH0pXpg5vrf4TlcRYAhbSTQb2dDDfCrW7xDFstUrmeBdSu7BXWTj16G7B/wImh8Oe9fct8RdCV7uI0WpJzctB0tEFL4B7lDY8VFbVTwY963XWTrTn5rkP7JpRxaWr+lJQVGaqS1I5uiVVC5c/wmr4uYyw/Q3Pjld3/PG30A+815i8UwD1zJ282VOMTdb71nO4xfx2BS37jdupSjN1JTmW39YbdSzUlfMpdutF9/QK0VRKjiz8d8pmBDJ+DGjMej1ePmbiA6JYWrkdjau30V5LwMYVS0m9bOdXLIxhYY9T8891a8YmPoi50VVtfiN8AHLaXKyb7brymihJO0sVXHx+Izwh/TLPezp66EZE0PwcKhMPGadTuFrKmtLyII3WWxnkNGeIWIJscFQcbDrXCpwp4ump30aIl5h6XwDeJdy/N017LcRNKnqKAzzw7HdZ4XNnBebn6UHuo55sekbekvu31RVS8Cs5wn1vMjJHUcob3dyaDQaa9zd0rG1QXUaybTlrzI/yIXSQ+v4JCGDunu44auqFt+IhYzzKuPcgVNtzamK0kxpegbVcaPw0hsA68Xe1NwEDMLZudN+nPUEjDGglp2jsNLxp5rmpmbACWcX4Oad5dpBLmhRW9c7+t28GBc0Am3lPrZ/uJ2SdvXk4TkXsC94GSgUpYHKvOOcyDsOWHMDRi/5N/4xei6mh3ex+6Lj+2xpbgGauZZ/kqxKCTyE/foq50UBULTWVsr2sY+zDi2372F9T1U1jJ08GQ/1KomnLtN9q4v9ZW1vPwqDHnL32h+4qH5RxC0w4ZWewNaD4cwqcWxG3NsMEUuYFQbZexJYtxbiVq9yeB9tbOS82JqkrtzXhFdJ541tk+ClNxobaVJBq3OyuVpRmql3HUNETAi6/DR2ZLYmPCoPET41BCdKKbxYx+0TSvEIY+HKF5niW8+57f/F9mOFvZqUrvMxuI6Zw+wolWElmXyRfaeFxSMwEHfAXHu9bdnN4mJqmMDDxknocm8n7GoYPnMlyxcaOPuHH1DYi2y38pKrNDORMUZvjh22dj+pqivjg8ehpYKKkma6Xlh1NNwC7aDBaFXVRh9xkzX20w3CWUdb74WqHUFYsD/q39GsKB7GJ4id5MylxM/JKrfe0RWlnqprtcAQdLau8B7OX4DK8jJUxjEuzJdj+0va8pXcRs8gdJSWkjOHuFIjQY3oqi9yXhSlmcLLhbRMDCIyaji5xytak/9dmTBjCp5c43Te1S7bqaqGgNkrMI3Q0HhpLzuPXeo6WMFRTmGEhbjTUvCVHXO7OFDWJj+8vNPJPtPzttZRSZMxlCRbE20Bgy8M952O0Ub5u7VyqOoofPzBnLqNLam3l96f9xmZd61ji51lB2Twog4PIzrUr/Wtkwo+wwCdLxPnxWMAsFwh40hWr8baA9B0gaKrLYw1LuGpx0dT3tAMNFFyZhd5rU+pZYc+5UzE60QuX4N7ajKF1zR4jp9C0CgXatI2c6oEUKw/5KZnXmKKfxOVGacpcQlh2ryQDh9Xlf0VOaWO54Vc3LeV86ErCF3+H7ifTaGo0oKzfiLBoWNwqkkmKbmKtisifycHsqfyxPRX+I7nSXILa3HyCcYYHIDlwqccP99Cb6L3+pQvODEjiJhFP2HFyFNcqmhiSICJkHHu3MzZzumrtnZ7iYv59YRM/BbPLhnG5etN1gettv/bdXIz8pm1aAZLXnImI6+MZhdvRgRPoDYvm8aAQIePszf66jxzZL811xVGmOYTNjGQsanZVNarDBo2lkkRgajXj5NjqxXdjvO3NuUr0ueMJ3zhalb6JZFf3sJgQyBjg8bgUprAh4d7V2di4OurnJeKQx9zMvLHTF/8JivHnuJiWSNDAqcQEjiUG6nvkZjfYqN7cgxBsdMwetRxNu2Dew9cgEERMxjn0sLllBM9TvPgSNk7zG29Lz6L4pmQtYtD/gEY2uZhKSHXxnuCFKXAOgldp+UVJSfItJGHYu026kpRCjDbN+DngRqQwQu+U5nz6BR0HU6WACLjAwBQ645w9UgWN3q5e0Uxc+zjD/BY+jiTpj9KkLMGVa0nrWgXea2tE0pDNl+u+w2V8U8QMS6G6e46GqsLyPjbBvYfzm03p4cGnU6DogxieOgjzA3t+nnn6/b1KnhRrp/gs9/VEr3wUYLHRBMVrsNyo4qy5M/ZsWc/l+ru1I+i3CB90y+xxD1N7JQpRI3XYrleRtHRP7N/73GqevkaAaW5gMT311ITv5RpITOJDmmmrtrM+X1b2Lsv1eYFrSi1pH/+PsOWPEV4ZDwPu2jRKEqH/1vFoff4VPccc6caMc3V0Vh1hdzE/+Wra7P54b0PDLJPX51nDuxXLdzB5g21zJ4/kzFTF2J00dBUV01F7h4O7P6CfBvvr7Lv/M1k5+/eoTz+CcLHRhFl1NF4o4yrSZs5tPsQpd+U10qIvxtKUz57/+eXVMcvZVpINNONGizXCsnauZF9h87ZHr2pn8jDHkBVEqezLfR29N1tqjqEsEgjTo2ZpKe2G1p3j2VvU5QC9v96HaBYc02MZravPUEpAYQsepWlRgNgJncvGFT1vk7HD+AV3vW9RlZ+eNFlgGefUoKDg3s5W5AQQgjxzeUW80N+8MR4Snav4U/77cwE7Yb60AJe/OlTeJ19n99sTu52iLQjZTts5zeKkAWriKXrW6ChNRdl/kImdJNA21Y2/i2WsovDNvJIDGHxTCiznczb5ZjUKJa9YyL73d/bHOVk7bLyo3xn19wcQ/xbfNeYxva9HZtzrBPSpdl427SJ2OfCoIcXRg7MlhchhBB/11RVy+jA0ShNOSSfMHOvrS4A3lOj8NfUkno6rcdgxJGyql8UIeF+BOl9qSxLIXPPmjuT0nViTt3Gp2eSCVmxiiADdDenm7feh4r0u3Qb4Qdm+5J5FSWJLT9OumvZ211WNkcVlpjJJZnM1Lu8PbqLJDJTba7o+JnS8iKEEGKgUdUJPPazHzLx/Hp++1GqvF9rgJHgRQghhBD9yj3OHyuEEEIIcX9J8CKEEEKIfkWCFyGEEEL0KxK8CCGEEKJfkeBFCCGEEP2KBC9CCCGE6FckeBFCCCFEvyLBixBCCCH6FQlehBBCCNGv2BW8aFw9ecjDDa0ik/EKIYQQ4sGy68WMw2Je4+VHRtJiqaIgZQc7tx+nskXeEyGEEEKI+0+r1+t/1lOhprpySgsvUamMItgUzYjG06RerrsfxyeEEEII0YFd3UYWczbZyQc5uCmBCy0aDCMC+vq4hBBCCCFscjBhV4tGgeYmS98cjRBCCCFEDxwLXtzcGKRA/U3pMhJCCCHEg+FY8KLTogOaLNLyIoQQQogHw7Hg5UY+RVUqnpNiCRo9Ai8vPZ5ewxmskyHUQgghhLg/lODgYIciD43XVBYsW0rEaE+cFAVVrSdt42sk5MjQaSGEEEL0PbvmeblNVd0YP38pJkMVKbt2crWqgRalkaqivjo8IYQQQoiOHApecJ3MlEhPrh/dwO6D+e1WSKuLEEIIIe4Px3JeXK2jjVqam/rocIQQQgghuudY8FLfgAUY5OLaN0cjhBBCCNEDx4KXW/XcUsHZZXAfHY4QQgghRPccnGFXpUVGRQshhBDiAbIrYVfj6slQD0/0k+cQqGmhrLigr49LCCGEEMImu4KXYTGv8fIjI1FVC9dyt7H7cBkywkgIIYQQD4JdwcuNs5/zWTFcLyugtKyGFkUCFyGEEEI8GA7PsCuEEEII8SA5mLArhBBCCPFgSfAihBBCiH5FghchhBBC9CsSvAghhBCiX5HgRQghhBD9igQvQgghhOhXJHgRQgghRL8iwYsQQggh+hUJXoQQQgjRr/w/pFoYG3Epj10AAAAASUVORK5CYII=;" vertex="1" parent="WIyWlLk6GJQsqaUBKTNV-1">
          <mxGeometry width="297.57" height="140" as="geometry" />
        </mxCell>
        <mxCell id="wTCChwKyPf_tFk7K6GKb-1" value="" style="shape=image;verticalLabelPosition=bottom;labelBackgroundColor=default;verticalAlign=top;aspect=fixed;imageAspect=0;image=data:image/png,iVBORw0KGgoAAAANSUhEUgAAAysAAAKXCAYAAACCKNXmAAAgAElEQVR4nOzde2DU1Z3//+cnF+6gEpJJBkzkZiRMyA0xIA0iRGmoVUIrXUtdZK27K+qv7m5191vxu190f79la9ft7wts1+UL7C7VlTbQFonIRS4qBAWSkEk03IQAk0wucodASM73jwnJJJkkMyHAFF6Pv5iZ8zmf8/l8Jnrec877HGv06NEGERERERGRIBNysxsgIiIiIiLii4IVEREREREJSgpWREREREQkKClYERERERGRoKRgRUREREREgpKCFRERERERCUoKVkREREREJCgpWBERERERkaCkYEVERERERIKSghUREREREQlKClZERERERCQodTlYGTj1NV77+ds8dl9ot5Z1zJnHlJTYrjbrujEmlimvLODJLrbNpMzjyTnZOOwm8GPt2Tw5JxubMV7vpTMlq+v3ydizef6VwNpj7B2fz6TM4/k56S3a6XfdJpYpc+bhsBuMicXWyblERERE5NYX1pWDjLGTkhqLdWYbhaVXAKt7ytqzyRhto3TD0Q7LtTkuZR7zksrZXujyq7wtKYt4cslZvhO3ZXnVsYfthY2FkrLIiCogZ2FOYxk7EZFuSvYeBcv/tl1l5S9mW8wCnpsNVU11+ic6OZl4clnldYzlysP9yDs8n/UmS3LL/KrHMWcBCZW5lJSDLSmG0o17wDYeh62xQEwaMybb2PH2fDa7fLVvLM+/MtbrnrQVAS0+M/ZYLJd/7SMqiYzkOJyuMrDN4/nZsH3lIpw+2yIiIiIit7ouBSshwzJwRMLJbZ9RZjruSAZSNvGRaVC8Hrd3B7qRrwDDWwQunPl5LY/JWsBMlrbpzDvz89gMbYKOiMbPABxJc6neuBtSx+MAiMkivriAkquvAZKymDGaNp17k5LNrBgXJeWtGlleQGkURKaOJ7LFB3YyMmN8dsyNicXhiKZ0405aB3BFhYXMeOoxHOsW4fQr+IlmEC6c+WVt7hWAcdvJcJTjPNHmVB4ndlPKa8ycvpsluWXYUtJbXkeMDaLsOFLSG1+nkf1wMl/9+llW5fsXcFSXewJVd/5itie9w4yXX4C/8ff6RERERORWEnCwYkwIw8eOZQDlbNv1NR2PqgRQNmUeGSxjyQofnWh7Nhmjo6l+13eg0t2MSSeBZazKLwPKcOMJXkoLc3B6d7rz83ACra8rMWkaFP4YZ76FMbFEc7Sp3c58H+dLmUdGZevIptHgscSznpy9cThS7S0/i4Ga4nKvgCqNjMk2StsdGbk2llWGuxIimgKKPNze10EaM6K8gsb8PJy5EMgombei5ctIeNVOFXHY7Edxa4RFRERE5LYS+MhK+BiSEgfQcHQjBZV03A/1s6wx6czKhO0Ld7YZ7TAmlqmzp8GWN/3+db5L3OXUXP13aho1GxY1NdiYWGxRhZTspdN+t0mZx4zRFezY4Hmd+MxrzIgqZM3C5tEBW0o2k5KgZEMORSfiSGQtS1aU+aw8OjmZ6o3zcVsW7vxW06magiWv150FB1FjcaTYfX8WEwO0EzQ1cq54DqdX/S1GV1qMrKSR8VQS1e/+uMVzs9nTiWw1auZhJwIYFOM1cgWUbHTheOY1Joyu6GB6moiIiIjcigIOVnomP8jI3g2U7d3JmU5GOfwpa0w6s55Jo2TlWmyvvkGCcymrGqdtGRPL1FdfY0LlMt7wMy+jOyTG7GGzd2A0eCzxlXvYbFnYsrKJLMhpN4/Cyl/MG/kAFrasBWSwjHcWekaEHHPeYQbLeGd5Du/vjWPqM28wI8rNjpWLWgQAVxmTzqTJ0QwqHg+NoxVtpl418R0ctFG5G2froOfq+dx2Mhw+P2qX9+hKy5GVvMZRpJZtcbvycPtILTImFlvmtKZpat6apu11cYRGRERERP44BRSsGNOPMWkOetQVU7D3NB1PAeu8rDHpTH3Gzrbli3BbFkULc5n11rNMKZjPphNxTH31NeIrl/GGj6lhbXjnSjSyRQG0HEm4mvvia7pZMzs2Y5qmbkUnJ0Pl7sbPkslI3u1JAu+ALWsek1jqGTGxrKYRl9ItngR0izI2r3gdZ9YCnnv5Bdw+8jKip2cxqKqC6sLmfJXWU6+a+Q4O2ujCyIqxx5Jo8xyTkJnFIOdSFhfQ9F7z8a1yVrCTkDmtzTM0JpbE6Xaq1rWd1hfhGItt3dEW79vssbj9TdIXERERkVtGYCMrd44ncVgol5x5lFyk436xH2WjB7vYvCKvaeqXZeWx7W0XMJ5Zr85lkNP/la6obJtg3/yLfLOqmCzi6XjVsKJ1LmY9M5Nty3OoIA6HA0pXNq9QdjUJvHU+ClztiI+FgkWsahx9MfZs5j3lWWVrEzOZNSedbY0LBbhzX2cN6VS1aoMx6UyKyiXHmcUk/+6Af7owsmK5ynC6yhpHP6Cm4CiWy2obsDVNQ2vmzF/dtj6rjKKCscx76w2qtzSPpAGUVsbgGEzT6IstawHPTYbSd+df32mAIiIiIhJ0AgpWBt2fzuCQ8xR8vpf6TqaA+VPW16/lFYxl3svJVL/7Jkva6VRfb5aVx7bKBcycvpuc8seYgJsdjSuU2aJgEJ68ioTMucSznne8lvK1rDKcuc35J8akM2t2MtXvevItLFbz/oZs5r36QtPqX87cvDa5OonT7WxbngPTs5reMyaW6FR7J9PA3mxcGODGaHflM9LIyGx/6WHLtZqcLck8N/nqSFrjB4V7iHhkPKzIw5Y1j5lRBax5u/1pdyIiIiJy6/I7WDHmblLS7sY6vZXC/Z3treJ/2eZj0pn16lziIyso3ZJLCfZW05XsJGQmw8Yb8wt7RbmbiCQ7FevWsgaaRiOqYrKIKN+JM99qHslpLx/Hns6s2VnUrGyZGG65VrN4ZTqzZv87GRSyfeXaFqMUxh5L1TpPAOSdi25ZZbjzyzqZBtaJa0yw93EQ8VEuVuW2HNUyBhIy7VS1twwyULEul9Iou2ep5CY7KeENnpyTRk3h2saRNQUqIiIiIrcjv4OVkOETGT0IarZ+xrHO9lYJoCyALWUeMzNtENn+ik+eKUjJtNNT95mz4vNcUUBlp8WIjvGECZZV1mEQ4GsqGHhW/JqZGQNAjY99YyCNQRRSXWkj+6/mkw1UOz9k+4YcnK6ydpdo9uTC7PExkuHJJ2Hj0g5GViqoLvRMAzMmlsRUqNrb3HbjBp8LdXXG5723M6iTwywrj1UrwBBH4vTHiI+EaqBoQwEZs2FbFzfgFBEREZFbg1/BijEhjBg7lgHmBFs/P0Jne6v4W7Z5Cd+1LF4IU199NtD2N/ORs+JrU8iqmDQiOhg8MPZ0Zr08l3g8yfC+kvavTgNrSiD3mgpm7OlMfSQNCr2uyb2z7WaPdjsZxFCyfD7vD44jMdl3wnlbNp8rZl3NJ8HdnFvTmnPF6xSlzGPenD3kLN9JES/w+lvNO9Zbrjw2u/A7QLClxHr+4ePeG5NOQmY7IzhebU6c/hgZUXvIWb6WUkcSEXhGnrZXvsNzz7j8W1xBRERERG5J/o2shCeRlNifhrKP/NhbpfOyxsQSPRjc+atZ1TRqERtYy7vInbuYVR18brnyeP9tiGanz00IvaeBgVcCuXU14b5x0QCg82sqp4rmBPbrOYrgSElvCigiaFyRLH8xa5IWYLMBLs/0s+gTR4mc/gK28rVs7iD3xTFnHrYNi9hkI+CRlaYgxQGlGz1TvQyxLfZXKVq+jIS35vL8HMhZfmM2AxURERGR4OJXsNIz5UFG9mrgyJ6dnO1sbxU/ylpWmc+9Nm4qWwwRjauEWa483F3IkwjK68KzGllGksvndDbniteb9niJTh5L5ImjFK3bQ8Jbr/F8jO/V2OJnv0HExvme1c5s+D2yYkwsic88S8boaCheRs7C9oMQy8rj/bftzHt5Ls+9msaOjR0HTyIiIiJy6+k0WDGmH0mpDsLrnBTmn6GzvVX8LdueiGRf+R1wdYfzGl8f3W58Jsn7vj/Gns28l6fBljf9qDiZhNTdOPPz2LYli5k+y0QTUbmMJV1Y5MCyyqiqdFNd2JhX00nga7lWs/htF7Nmz+XBHyYTn3Q1p0ejLCIiIiK3g85HVu6cQOKwEGr37eTLTvdWCaBsG3YiIt2UFLTN7wDPr/LEuHyuLhXdZjNCD1+bQnp4lvllSwD7uFwDnwFYl1beauRjr5SmBQhasVyryXl7d/My0e5yakbPZf4rWa0Cm2giIj15OuSDO/d1lrSuyypj08plOE/s7HAFtKmPpBGBjXgK2Nbq89bT8Dzls4iP8px/R6sFFCxXHu8vdHmmDbq0MpiIiIjI7aTTYCVyXDqDQ86R/0VBp3urBFK2NcvKY9VP82ivM9q0f4mvesvdlNK2A+9rU0gP38v81lR2PocrMgoojwP83azSdwBm3HYSovw7X41XTFNRsJQlPvansawynCvn+8yz8d7PxnKtZslP227U6C/Llddm6pb3fbNceWxa7mLqM89SujGn01wTy5XH5hV5uOcsIKMy1+dKcME6vU5EREREri9r9OjR5mY3QkREREREpLWQm90AERERERERXxSsiIiIiIhIUFKwIiIiIiIiQUnBioiIiIiIBCUFKyIiIiIiEpQUrIiIiIiISFBSsCIiIiIiIkFJwYqIiIiIiAQlBSsiIiIiIhKUFKyIiIiIiEhQUrAiIrc9E9KLfgMH0TfM3OymiIiIiJewm90A6Zoeo2bz3I8m0u/sLtb8chmlF6ygrlckGJl+CUz+/izG3RdDz5BaCpa9yNovb3arRERE5CoFKzeZ40//jezEEL7Z/o8s+sMhAIzpT/rzP+fR4aG41v+MpZsq2xwXPmAgfcNDCO8/kP7d+BSvR72m10M8/cZTRH3+L/ziNyXdU6k/5737e7z00iPcZbUfcJn6fFa/spjiDsrcSCbxx/zs6fsJ89EeY75m0xv/wM4z19bW8LsnM/2JRxhhH0ifcM/g6qX8X7Hw13sCrqvH+Jf525kJXm1s4MrFk7hLt7N17UccPlN/TW29nowJJ2HGn/OtUZf4evsq9p2ooer4zW6ViIiIeFOwEgTMmVOEj3mAu9ce5JixoP9Y4m2nOHlpYLvHnMtbzC+/iqDHpRrO1HZfR/t61XtTnNrHjg/P06vxZY+4DCYm9ONYXi4HTja+acqpuFnt86X8c7Z8eJwQfLX3FEdqr616Y2KZ9NQPSOxzlPytn3CyzjPtqb7i2DXUWdvcRiuMXhH34kh9gqeG2njvrWUcCtrvUQyD7b3BtYF1azdy0rKAYG2riIjI7UnBSjA4d4CjYSmMHvYexw4Z+iWlEn34IEcSxjGgnUMsq57a05VcY9/1htV7M1hn97Pn4/1Nr/tPGsPEhJ5UFuby2UGvTmmQjKoAWNWF7Py4EGivvdfY1vA4bIMsLn7xBz74yHltdTWpa3NPdx15kee/P57MSR9x6CNXN52nu9VRXw+Ehil5T0REJEh1GKwYM5Lp//OnDNv3Hs4h3+GBqHM4V/2CXQOe5k+mxxPmzmPd8pXsP9vcSQnpP5JxWY+TPHwwd/QL4dLpSlxFG/l40y6qL7fsaPWKfYjJ0x7i3sER9OsdRt3ZKioO5PFp7occPmO6XLbHkIk8lPkQ8ffY6NejgQun3Jwo2MTWLb7a8DDTnniUeHt/zDkXBz95nw9OT+GnPxzOnn/9G9Yf7tq1BSS8hgNFQ5iaOoqPDpaRkHgPRwt/T3jiuFbPI5bMv3uNCYOaz2Vq83jvZ0s52KrD3X/Sq/zkO2F8/NavqZv6FONHDaGvdZaKoo/48HebKff6tTuQej33rPNnYUwC313wE1L6eh3/wMu8/kDzy9ZT3Py9v8aM48l/ehZ73i/4z8PJTH/0AQbfGUrtN0f4ctN7bM4vp76LAUggz9if71lX/ob85e8zNiacfhF30cMCegwgHKDHHdwVEdVUV8OlU5w+d7nptel1D2OnzyQ98R7u6NXAhW8qOF6Qy+bNBZys77ytZ53FVHw/kSG2IUBzsBLI/Q3pn0BG9ixS46PoUfcNrsIPWPdFDH/y0jRqfjuP93bVBXzPWjrHxVrgzr70AWqusTYRERHpfn6NrFhx93HHoU8pDZtM6rf/FHOkCmdBP9LGTeKRSZ+x/4MjAJheDqa/9CLJfU9ypOAzvjpVT++YMSQ+9Cxz4wbw70uuTrUA0288Tzz7FCNx8eXezbjP1hF+53AS0p7gB3H9+a+3/ptj9V0oa8vkh3/5fWJqD1GyZxPf1IbRf8gYHFOfZdg9ffjVr7Zw5mobBjzE9/78BwwNPcmRvVs4ftrizjE/YnpNdZt7EMi1BcyyqNpXQN2P72dobiTxd++n8N0rJGe3LniSA1vXcLEPgEV02hMk3NFhxcQ88qdEhh+k6JNS+g4bR2LaD5jd+xKLl33Khab2+l+v/8+iktKtazkTBoTGkThlDH2P55FXUtVU15lD55rr7cr9HZjJjFF9qN63neMhUYxIS+OBH75M2LnXyD0YeEc2oO9vAN8z8P9vKHD+POORPPz/tAock+fwYnLzS++cFRMyhMl/8QrfiqnlxL5PKa6up19cKomZ84gb8l+883+2c7aT73poVCR3AOfPnOra/bWGkPHjl/hWTB1VJZ9S4LpIr7u/zXcnd+ekvYvUXQLCwwjtxlpFRESk+/gVrNxxtogP1n7ClYQ7iZ8bRc2/vkfe2XvpPeqnpEbasczXGMuiX9qjJN1ZS+l/v8mqPZ6OqDF/wPnEAuZMzOT+oRvZ0NgnCxmWyNDehsOrF/LbnRebzvVF0cMkx0JoH+Bs4GV7977I/s3vsXX3x3x95uovy2s58Cf/L7PSMhgzaAufNv6EGjV+MkN7XOCrd9/kN/meCsyGLUyY9/c4uNDiHgRybV1y7Au+uvAC907uQ/TBPbx/uQfJrYpY1lmO5n3IUcCYUFKGdhysWFYcg2vfZvF/FnPFsjDmYyr+4g2mJUwksf+n7DoXeL3+PgvLqmb/lrXsx5NgHztlDD1deWzb6DvBviv3d8A9IWz9p4UUNo5KbP/icZ77yXSSJ6Sy/kAeDQEGj4G0IZDvGfj/NxQo/57xcXavWsrhcCD8PiY+OZE7Dqxj3eflTfXUnzzY9O/eY2cwYTAc++Af+Y+tboxlYcw6Ds5+k+8nT2Pc3dvZ3CIR3aJHfxt3RQBWGL0jE0h/LIM7TQWf7T7QpfvLyIdJiwnh5I7/zb+vLqXesjDmQ0bNfpMnLavLoyAhve/ijj7hEBJGr0EpJAyBC4e+Cq68JREREWniV7DScOWyZ1pNXR1XuMylWoA6rlwBKyQUCzBARGQUFlVUVvfhrog+Tcefq3RxhSQGRobBEc/qQA3nzlGLxQD7cPqGFHG+wdNRO7v/Yz7ZD95z8wMpW3vkUz47AsaE0XvAXfTu4ZmNfu7kN8Cd9L0DqAFjLKJsg8CUUlp0pqkOy1Tx1Vcupsbd2eIeBHJtXVOG03mJZybGc3DVci6Tfg11eRhzgUP7PJ1YAMs6Sen+E0wbEcGdUcC5jo/3JZBnEYiu3F9ztIDi5kdHvauAgyenMz4iijuAkwQmkDb4+z27yt+/oUD584wt6wzlxZ9TDphefUh9EvqdPEBxge/AMTJmMKGc4ECRuymAsqyL7C8+QH1yChHRoXC8oam8ZfVjzA//gTFeddSfP0b+ql+x9VhDU05QIPe3T2QkfbhAaXFp05Q+y7rIfudBriSndOFOeQyc+CLPP3q3597Vn6U8/z3+67e7qA2ivCURERFp1q0J9iGhIVhWHBkv/gMZPj63QkKAxg7noQ1sLUkmK/0lXh57ntPfVHPKfYzjB3ezJ6+YMw1enYcAypqQSBK+M5spD8QzsGfLyR3GnPLqSocQHh4ODZe5XEeLPvbly22nEAV0bV1UvvVX/PeBXnxz+GI3PZlaLl9q+U7d5ctAGKFdzSgO5LkFoCv3t+FybVMn3eM4u1YspDTk5NWBtuvWBv+/Z9db9z/j0LBQoI7LrVZZqL9USz0WoaGhQHOwYswFDm/8NQWV0HvUY3w7dQDFq/4/Piiua7F4QSD3NywsDLjE5csty9RfvnhNf2Vn9v2WnKp+YPWgry2FBybP4NvlpfzHtmBdBEBEROT21u2rgRnjIv836/j6ctvPzpZdafq3ZVWzd9nrlMWncu/wodiioogYnMaExImMS13DsiW5VDVYAZeNnvKXzPiWjVNF6/nwSxcXGuOOHvdO5zv39/FqTQMNDQasEE+nzutn7ZB2fmX199q6yjrv4uuroxNBuk5bIM8iUNd6fy2rnrMVhzyBShd/Kfe3Df5/z24H9Zw8vIvigxbmUB8Skp5iVMYkNjk3cq7Vc7jef0Oduewuodh9tS0FhAz/ZzLHTyRm6/uUa3RFREQk6HRrl7ihvgGo59ShXRTXdP4/fsuqpWb/Dnbu3wGAMb0Zmv0zfjThYdLuyWX94cDKGhPByIQhhNZsYs1/rGnR+Rhw18NAH6/6DKdOnoKQwcQMCaH42NVVrMKIGRwNtOw4BXptt7JAnpu/guH++tuGQL5nf4zqr9QD4fToBd6pW6E9exGKafy8HWc+Zde+x3kyZQrj7/mYjUebR2ACecZXrlwBetGjR8v3Q3v07sZk+MtcqQN696Z3t9UpIiIi3albtxeoqarEYGdkUgyWaR6q6DP0QdInZRDXv/m9AY7H+c73v8/oSK8Vk6yLfHPqHBBOmFcY5X/ZKzQ0AGE96eF1vAkdQtLowW1yAk7sK+CUiWTsD/6MB0YPx2YfSULmXzA2pu0kokCu7VYWyHNrUlfHFQOhYeHt1hsM99f/NgT2PftjU1V+gnrsDHdENr1nTG/uHT2SUKqpLm8/WLGsK+zf/gnfEEHqw+n08rqPgTzjC1VVXKA3Q8eMJsxc/SGhN/c6RhDWbSMgfenVC6it5WKnZUVERORm6NaRlXN7PqJw8r0kT3uVufY8DlU10Nc2jBEJw+lVsZb/2N5c9uxpiyFpmSTdN4wR+SXUXDT0HDiCUSnDMKd38OWRwMta1mlKiw4xafqDZP9lD4r2V1LfK5Iho+M5t7+EurhhLdp75dDv+P1H0WQ/Mo5Hn3kAYxq4cPRDfr+3B8OzWv7WGsi1XS9mUBITxtgbI0yL6IFAWAz3TcnCBnD5KEWfFLdYMre76w3kuTW5cpDjJxoY4cjme48Npaq2HrhC+d5c9jf+wh4M99ffNgT6PQuE97PoEXcnEE5UUhYPxgKc4vCnOyi/lj19/HBxz+/Z+WACE6f/Hc/c/TlfV1+hX1waiSP7c+HLNXxxgg7XUWg4tokvDmfy6KhHGBf9Gdsbp10F9IwPfMye8gl864G/5LkBn/PVifP0ujuVwaEnOGP6d9OV9qVnb6D2wi2xCaqIiMitqFuDFavWybpfvkVV1uMkj0gn3RFG3ZlKTuStZNv6bVQYr0T4Y79j5TvneCjzWwwfNw1HrxCunD9JdekGPl7/ew5d7lrZ6m2/4v2wp3h4nIO0h8Oo++YopVv/lY9OPcRft1pgy7IuUrb5bRbvHUqs/Q7MueMcO1JF74f/B9CA92yXQK7tuokZx+Rv39/ql+U4UrPiADDnP+HEJ8WcuY71BvIsrrIsN5+9t4IBMx9j1Phvk9AjBGMuUnA8l/2NK2YFw/0NpA2BfM8C4uNZxI7PJhYw5msadu+g3Ee+R3ey6svY+m8LOZs1kwcSv8WExHrOn3RzYNMqNm7K73SPFcs6w97te8gYNo6xDyfz2bsF1FtWQPfXMsfZvvR/Y2Vn4xiazrh7TlPhXM/viu9hzojuutIGT65aQ4PXcgEiIiISTKzRo0f/sc9a6VbGDGDsn/8DWcOPkPu/3mLPhds7P0UkmJhRc/jbuRMo64Yd7I0JY/TTv2Cm4wz7Vq8k73AN505Wcf6K/uZFRESCRZCuOXXjmF7DSJ4QTz/ACu3HwBFjcQzrwZkvNlJ0nq5uGyIiQc6yrlC87teMsP2QMd/7a8ZQS8GyF1n75c1umYiIiFx12wcr9B3FA99+nGjLouHKBc7WuCj58D/YvK2Yy1rKVOSWZn3zOb//RRHbBt9N1F19OXf8ZrdIREREvGkamIiIiIiIBKVuXbpYRERERESkuyhYERERERGRoKRgRUREREREgpKCFRERERERCUoKVkREREREJCgpWBERERERkaCkYEVERERERIKSghUREREREQlKClZERERERCQoKVgRkT8aA6e+xms/f5vH7gvt1rLdwdjTmfLKAp5MMV07PmUeT6bEtnzPpPPkK/OYYu9anSIiIn/swm52A66nHqNm89yPJtLv7C7W/HIZpResm90kEekiY+ykpMZindlGYekVoP2/5/bKGns6ibaWZW1JaVC4Fid2Itupz5aURTy55Czfidvy1GXLysZR7oKYNCKigMo9lKxcipPxOFJ81ZJGRiZsX7kIp6tt2xOTkhhUuRbyW30QCe4TzZdrTCzRHG1qh4iIyK3slg5WwgcMpG94COH9B9K/m67U9HqIp994iqjP/4Vf/KbEZ5ke41/mb2cm+D6+4gP+9ee/o9qroxEWkcSEad8m6d676R9ex7lvXBz94g9s+uRLzjeoQ3I76jFkMt+d/T0SBvXAHHiPhb/azOXbvHMaMiwDRySc3PYZZabje9FeWcuVh9PVXM6YdBIyocR9FLerDPfV9+3ZzJsNOQtzcFsWzvw8NgO0eAbJRJDDqty8Vmcvw+3yjJS8nlnOO411GLudDKDKK/Bo0Y7RhWzfAI6UdK9P7AzChi11fNM7CZlziWd9U70iIiK3sls6WDmXt5hffhVBj0s1nKm9cf9Tv3LkUzbnftXyzfBoRk1IJ/rKFeq83rYGfotZL/2IYWGVHCzYStEZw50jx+H4zssMvusXvLOmlCvqkNw2jOlFzINP873HxjLgzHGqLw0h4mY3KggYE8LwsWMZQDnbdn1Nx6MqHZc1JpboVHDnl5H4TBolCxfhbP03ZouheuMiv4MBY9KZ+owd94acplGT6B851TkAACAASURBVBgbNc61LeuodPmuMzWN+OI9rHKVgausRb0JT8Xg3ruzqY3O/MbgSP9dEBGR28AtHaxYVj21pyupvcHnbSj/gs/Km1+HRKTz+I8fI+piPmvfXc/pxk6GMaHc9+3vMax3BTsXLWBT2RXP++u3UvHC/yJzwhOkbFrIF+du8AXIzRM1lcdnJFK3912Wrakg7W//SsEKQPgYkhIH0HB0IwWVdBSrdFrWssqoYB7zXrFRunE+m5v+HmOZ+sxjULgHkqCm8Op0LjsJTyVT8+58Nuf7PrFl5bFpQzbzXn6DhHfn8/7eOBwOKF15tLkBthgicPk8PjHJxo4NOzu5MBERkdvPLResGBNL5t+9xoRBzf/TN7V5vPezpRxs9Utk/0mv8pPvhPHxW7+mbupTjB81hL7WWSqKPuLD322mvPZqJyaB7y74CSl9vY5/4GVef6D5pWv9z1i6qbJNe8KGTGXWn32fmJqNvLviNxw5592G3tRVfMGeU/vZc7Su6ZdSy6rm0MEqMu+J4K5BQBeCFWPG8eQ/PYs97xf85+Fkpj/6AIPvDKX2myN8uek9NueXU+91P0L6j2Rc1uMkDx/MHf1CuHS6ElfRRj7etIvqyy3vW6/Yh5g87SHuHRxBv95h1J2touJAHp/mfsjhMy0Tgf2t19/2mpAEHpv/E5JP/Z7F//IBJ72uwfSayOy/f5p7jr7PvyzZxPnGzwK5tpvu0hF2rfhf7HNWUc8ov348NyaCpKf/im/f15PyjxezctNhGm6xX917Jj/IyN4NlO3dyZlOrs2fslb+YnJiFvBc0ng253tN44qygXsnm1c0v9c8uoHPWMIzUjOWSTEutm+JYUbSeCCN+MpclnjlpkTH2KipbBusGHs2GaOjoTKOza6yFkGTGzuDqmieBpaURUar3BkREZFb2S0XrMBJDmxdw8U+ABbRaU+QcEdH5S1iHvlTIsMPUvRJKX2HjSMx7QfM7n2Jxcs+5YJlAZWUbl3LmTAgNI7EKWPoezyPvJKqplrOHGobURjbVGb/+fcZeHw1K5etp6KuZefCss5xaPNKDnletPis/4D+QA1nT3bpJjQbmMmMUX2o3red4yFRjEhL44EfvkzYudfIPeiZkGZ6OZj+0osk9z3JkYLP+OpUPb1jxpD40LPMjRvAvy/Z2BQUmH7jeeLZpxiJiy/3bsZ9to7wO4eTkPYEP4jrz3+99d8cq7cCrtfv9tZ/SdG+k6RMuJ/EqA/Y3vwI6J2USlxoA0cKdjUFKl1qgx9C+w5iQK/2F9O7fLaK85cDX8HJOuOkoBjP98Hfw8MTSBwTSU/LIi4thYhNh6nq/Kg/Gsb0Y0yagx51xRTsPU3HU8DaL+sJKryT6N2UYseRkk5CZhZszKXGq2xiKlTtPUpFO+eKjIom3vEG85IK2L4hh1X5Fsa4qEody6ykPeQs34kZHEdi8mNkOGxERMKOt71GWholPpLMIMviq3KvzxqDJqfLwumVcG+LyQLamUomIiJyC7rlghXLOsvRvA85imeaVcrQjoMVy4pjcO3bLP7PYq5YFsZ8TMVfvMG0hIkk9v+UXec8Ix37t6xlP54E+9gpY+jpymPbRt8J9k2ihmLvZRE28nv82esPcvDT1WzYlM/J+o47GiZ0NI6E/pjyrew/xTXNDBlwTwhb/2khhWc9lWz/4nGe+8l0kieksv5AHg2WRb+0R0m6s5bS/36TVXs8QZcxf8D5xALmTMzk/qEb2XDEU1/IsESG9jYcXr2Q3+682HSeL4oeJjkWQvsAZz3vBVKv/+2FI3t2c2pCJgmpg9n+kaux3t6MShxF6JUSivLPNt20rrTBH3dPe5Wnx9/Z7ucHfvM87+2qa/fzblVXyO4dE7hrVG8qPs1r6nDfMu4cT+KwUC458yi5SMd/Dx2Utawy3PnNSfSOpLlQuIiiveNJyCygxO2ieaEwOwlPZQHzeX+v71MVFa7Hxm4255c1nSg6dSwOdrNqRRlYFparDKdrMVXl2Tjcu9ncahUwY9JJIJfVzrm0XpIjInk8jtYrl0UBbQdwRUREblm3XLASKGMucGhfcVMSu2WdpHT/CaaNiODOKLo0BavJkc2s+XUhoT3vIPq+DNKmPs+fRizhV7/Op7adX0aN6cXw7/4Jif3OUrx6CzXX+AuqOVpA8RmaOm31rgIOnpzO+Igo7gBOAhGRUVhUUVndh7si+jQde67SxRWSGBgZBkfqAWg4d45aLAbYh9M3pKhptbKz+z/mk/3g3TsMpN5A2svRzyipymRC8nii1v+WSsuC3mNJGBHK5S+/4EuvTmpX2uCPyl0ryTnUs93PzzbmH90IlnWG0jULKV3T9MYNO/eNMOj+dAaHnKfg870tpi5ea9mroqfbKVmYQxFxtIwN3JS0E6gAWPmrcc9ZwJMxuZQ05ai5cGPHkWJvWTgpmfgocC5sueRw4vQ0SpYvgmfmtqm/pmBnmyWOq2KyiPfrqkRERG4Nt32wArVcvtTynbrLl4EwQq9xy0zr7GG+LDgMQFHep5T9cAGzUp5k4if5bDrWtrwxvRg89UWyJwzi1I7/n3X7zl5zx7Phcm2r1cSOs2vFQkpDTl4dACEkNATLiiPjxX8gw9d1hIQAjR36QxvYWpJMVvpLvDz2PKe/qeaU+xjHD+5mT14xZ7yWWg6o3gDaa1kuCgtOMCEzjTGxv2XTMeidlEJc6CW+yt9DnXVtbfDHheOFFB8P+DAJkDF3k5J2N9bprRTu72xvFf/LenPnrvYEEF3adzEaynfi9Eq8t2UtYCZLWZLrtaoXacxIajl9y9jTocCzEpmjK6cWERG5DShYuUEs6yKlBV9yOSWdmLj+cKzlkI2xBjDyuy8x81uDObt7Kf/1u+Lrsq+GZdVztuKQp+Pv3XEyLvJ/s46vL7c9xnuUwLKq2bvsdcriU7l3+FBsUVFEDE5jQuJExqWuYdmSXKoaAq830PZW7f6c8qkzuC9lBBvLXIweM4rQ2r0UF1+i7VK119YGX65Xzoq0FDJ8IqMHQc3WzzjW2d4qAZQNBpYrD2cHAZWmgYmIiChY6XbGhBI36YeMueswu373CVXev/KHhHi6Jg0NLY8Jv5sHZr9AZkIvKrYt5r/XFjUliN8IDfUNQD2nDu2iuKbz81pWLTX7d7Bz/w7Aky8yNPtn/GjCw6Tdk8v6w12rNyA1Oygue4KpY9KJ21TGfSNCuZi/iwOtflC/Xm0IqpyVW5QxIYwYO5YB5gRbPz9CZ3ur+FvWL4PtDKoq92uhgkEx41uMjNiiAMa2nAoW0yrq8IOmgYmIiChYCVxdHVcMhIaF+/zYsuq52Hs4KRMTCTtUwO+cjUnd1h0kj0sknAqOHT7P1c6UNSCJaXP/jPtjLvLVmp+z5rNjN3wTyJqqSgwjGZkUw2ebyzGN5+8z9EHGxIZSvncbRxsT3gc4HidjVA++3vpbiqtM4zVf5JtT54B+hIV1rd5AWdZp9u0t5eEZY0h4uD+xIWfZt9fZZsne69WGYMpZMSaEuIeeIW1ICHVfb2TdZ183XecftfAkkhL701D2kR97qwRQtgNuZ65nh/nUGCIqyyE1Dva62PZ2+ytwVbeaBuYJKHbjzG81DSyqa20SERG5nd1ywYoZlMSEMXY8E3QsogcCYTHcNyXLkzx7+ShFnxR3uldDu64c5PiJBkY4svneY0Opqq0HrlC+N5f9jb/cV257n70pL5E6ez7983dz7FQId917PwmxvThbsJLPywHLMyKR9oO/5P7BV6gp+oLyXok8MCWxxem+KfmILysa2rajG53b8xGFk+8ledqrzLXncaiqgb62YYxIGE6virX8x/bmsmdPWwxJyyTpvmGMyC+h5qKh58ARjEoZhjm9gy+PdK3eLrU7/3OOfPdp4lMsws7spehAPa17qderDdcrZyUk5n7GjxrU+GoQUWHAnfeRPqUn9UB9xR7ySlrPAxpOQsYDOAacZ1/BilsjUAF6pjzIyF4NHNmzk7Od7a0SQNn2WFYZztwyDHFMzUyidOMiKtwzmfdqDNtXLsJ9gzds1DQwERGRWzBYIWYck799P2EtOixxpGbFAWDOf8KJT4o508XqLcvNZ++tYMDMxxg1/tsk9AjBmIsUHM9lf+OasVZtCR8u/mdqsh4nZeRExvcPo+5kGUUfvMPm7aWNe7cAhBAWFoJl9WTQmEd5eEzb8x04v+m6BytWrZN1v3yLqqzHSR6RTrojjLozlZzIW8m29duo8Jr/b479jpXvnOOhzG8xfNw0HL1CuHL+JNWlG/h4/e855LXJYiD1dsmFz9n31SxmOO7i5Ce7KPNR33VvQzcLu2ciU7JaLWIbmcJDWSkAXMqvbBusRN3HPQOAb/L4ouQyt8Iu6Mb0IynVQXidk8J8r+XhrrGsP6KnP0t85TKW5FtYrGbxxnn8z79aSsbHb7RImr/eNA1MREQErNGjRysLWOSPWJ+Jf81fPX4v5evn83823xo/u5s7HuHP/sf3iNj3b/zzyt0dLkMcSFkAW0o2MzOnERFZwY635zftfWLs6Ux9JIuIyqWsahWU2LIW8NxkN2v+xrN611WOOe+QUbmM7eVeZZOyiKeA7YVeu9XHZDEjKpc3VuT5bJNjzjskVL5JSbkdsJOQmQxO7yWRW9ZdHTWNeNbzzsIcbRApIiK3tFtvZEXkNmJMKEOHDcW68iW7d7q5FUZVACLHpTM45Bz5XxR0GnwEUhbAnb+axW4XU20uNrssz27108diK9+Nc/l8n53/inVL2YG9RaByVeucFWd+HptblTHYSSh30b4KasqPNuW5OPNX+yzVXHfj5wpURETkFqeRFZE/YsbE852//2vuO7CEf/l1vt8bIYqIiIj8MVCwIiIiIiIiQeka92gXERERERG5PhSsiIiIiIhIUFKwIiIiIiIiQUnBioiIiIiIBCUFKyIiIiIiEpQUrIiIiIiISFBSsCIiIiIiIkFJwYqIiIiIiAQlBSsiIiIiIhKUOg1WQnrfxR0D+hBqaaN7ERERERG5ccI6KzBw4os8/+jdNFz+hrI9v2Pdmh3UNFg3om0iIiIiInIbC42Kivr7jgpcOV9FxbGvqbFiGZ02gSF1X5B/5PyNap+IiIiIiNymOp0GdtldQsnuLWz5r7UcbAjBNiTuRrRLRERERERucwEk2IcSYkH9lcvXrzUiIiIiIiKN/A9W+vShpwUXL2gKmIiIiIiIXH/+BythoYQBVy5rZEVERERERK4//4OVM4c4/o3hrlEZJAwdQkREFHdFDKJvmJY0FhERERGR7meNHj3a72gjJGIcj8yaScrQuwi3LIy5SMGyF1n7pZYyFhERERGR7tXpPitXGdOHezNnkmb7hj256zjxTS0NVh3fHL+ezRMRERERkduV38EKvcdyf+pdnP70HdZvOeT1gUZVRERERESk+/mfs9LbsxpYQ/2V69gcERERERERD/+DlYu1XAZ69up9/VojIiIiIiLSyP9g5dJFLhno0avvdWyOiIiIiIiIRwA72BsatEqxiIiIiIjcIJ0m2If0vos7B9xF1NjJDAtpoNJVdiPaJSIiIiIit7lOg5WBE1/k+UfvxpjLnCpdzfrtlWgFMBERERERud46DVbO7Pstv3HB6coyKirP0mApUBERERERkesvoB3sRUREREREbpQAEuxFRERERERuHAUrIiIiIiISlBSsiIiIiIhIUFKwIiIiIiIiQUnBioiIiIiIBCUFKyIiIiIiEpQUrIiIiIiISFBSsCIiIiIiIkFJwYqIiIiIiAQlBSsiIiIiIhKUFKyIiIiIiEhQUrAiIiIiIiJBScGKiIiIiIgEJQUrIiIiIiISlBSsiIiIiIhIUFKwIiIiIiIiQUnBioiIiIiIBCUFKyIiIiIiEpQUrIiIiIiISFBSsCIiIiIiIkFJwYqIiIiIiAQlBSsiIiIiIhKUFKyIiIiIiEhQUrAiIiIiIiJBScGKiIiIiIgEJQUrIiIiIiISlBSsiIiIiIhIUFKwIiIiIiIiQUnBioiIiIiIBCUFKyIiIiIiEpQUrIiIiIiISFBSsCIiIiIiIkFJwYqIiIiIiAQlBSsiIiIiIhKUFKyIiIiIiEhQUrAiIiIiIiJBScGKiIiIiIgEpS4HKwOnvsZrP3+bx+4L7dayjjnzmJIS29VmXTfGxDLllQU82cW2mZR5PDknG4fdBH6sPZsn52RjM8brvXSmZHX9Phl7Ns+/0rX2dCdb1gKen5Pe4tpaMya2w89FRERE5NYU1pWDjLGTkhqLdWYbhaVXAKt7ytqzyRhto3TD0Q7LtTkuZR7zksrZXujyq7wtKYt4cslZvhO3ZXnVsYfthY2FkrLIiCogZ2FOYxk7EZFuSvYeBcv/tl1l5S9mW8wCnpsNVU11+ic6OZl4clnldYzlysP9yDs8n/UmS3LL/KrHMWcBCZW5lJSDLSmG0o17wDYeh62xQEwaMybb2PH2fDa72rbPljWPSeyhpNzPhidlkdHqPnsz9mxmTobqLRCZOp5In5XYScicRjzreSfA+yYiIiIif9y6FKyEDMvAEQknt31Gmem48xhI2cRHpkHxetzeHehGvgIMbxG4cObntTwmawEzWdqmM+/Mz2MztAk6Iho/A3AkzaV6425IHY8DICaL+OICSq6+BkjKYsZo2nTuTUo2s2JcbTv15QWURvnqmNvJyIxh+8pFOFsFCcbE4nBEU7pxJ60DuKLCQmY89RiOdYtw+tWJj2YQLpz5ZW3uFYBx28lwlOM80eZUjWxNx/vDFpMFuHwHKiaWqbOTqX53PqvyO267M3+15x8KVERERERuKwEHK8aEMHzsWAZQzrZdX9PxqEoAZVPmkcEylqzw0Ym2Z5MxOprqd30HKt3NmHQSWMaq/DKgDDee4KW0MAend8c6Pw8n0Pq6EpOmQeGPceZbGBNLNEeb2u3M93G+lHlkVLYzXDF4LPGsJ2dvHI5Ue8vPYqCmuNwroEojY7KN0nZGRoJJ4jPPErExl5qkmThoZ0QsJo0MBz6DOBERERG59QU+shI+hqTEATQc3UhBJR3P1vKzrDHpzMqE7Qt3tvn13PML/DTY8manv8BfE3c5NVf/nZpGzYZFTQ02JhZbVCEle+l0dppJmceM0RXs2OB5nfjMa8yIKmTNwubRD1tKNpOSoGRDDkUn4khkLUtWlPmsPDo5meqN83FbFu7WIxpNwZLX61w6bmTUWBwpdt+fxcQA/s7x6hpjYkmc/hi2DfN5/8R4Zj0Vg3t5js+RIc9ID1S1O9IjIiIiIreygIOVnskPMrJ3A2V7d3Kmk1EOf8oak86sZ9IoWbkW26tvkOBcyqrGaVvGxDL11deYULmMN/zMy+gOiTF72OwdGA0eS3zlHjZbFrasbCILctr9pd/KX8wb+QAWtqwFZLCMdxZ6RoQcc95hBst4Z3kO7++NY+ozbzAjys2OlYtw+uiNG5POpMnRDCoeD43Ttmwp6e3kdqSR8VQS1e/+uOOgrnJ3u9O4rgYH/vA8NzslLfKE7CRkJsPGpY2jUm1Fp9qp8nvamoiIiIjczgIKVozpx5g0Bz3qiinYe5qOp4B1XtaYdKY+Y2fb8kW4LYuihbnMeutZphTMZ9OJOKa++hrxlct4w8fUsDai7DhS0lu8ZYsCaDmScDX3xdd0s2Z2bMY0Td2KTk6Gyt2NnyWTkbwbp6vj4MmTjL7UM2JiWU0jLqVbwG1ZWJSxecXrOLMW8NzLL+D+m7Yd+OjpWQyqqqC6sDlfxZ2fh9vnGfMap5h1EgR058hKFFTt9VqkwKST8FRMh4sQuPPzWn1mw5Y6vnvaIyIiIiK3lMBGVu4cT+KwUC458yi5SMf9Yj/KRg92sXlFc+fVsvLY9rYLGM+sV+cyyOn/SldUtk2wb0qk91IVk0V8ezkSjYrWuZj1zEy2Lc+hgjgcDihd2bxCWXW559+t81Hg6jSnsVCwiFWNoy/Gns28pzyrbG1iJrPmpLOtcaEAd+7rrCGdqlZtMCadSVG55DizmOTfHfBPN42sdB837r07O5wGJiIiIiK3p4CClUH3pzM45DwFn++lvpNpPP6UdfsYnahgLPNeTqb63TdZ4ueqU93NsvLYVrmAmdN3k1P+GBNws6NxhTJbFAzCk9CekDm3zZK6llWGM7c5/8SYdGY1rnq12WVhsZr3N2Qz79UXmhLHnbmtRxsgcbqdbctzYHpW03vGxBKdau9kGtib7U7BCk4aWRERERER3/wOVoy5m5S0u7FOb6Vwf2d7q/hftvmYdGa9Opf4yApKt+RSgr3VdKWr+RCdL3XbHSrK3UQk2alYt5Y10DQaURWTRUT5Tpz5VvNITnv5OPZ0Zs3OomZly9W5LNdqFq9MZ9bsfyeDQravXNtiWpmxx1K1zhMAea/gbFlluPPLOpkG1oluTbCPwdFiGWY7gwI42jOSBo7ZWST4yHMxe11UFRzV3ioiIiIitym/g5WQ4RMZPQhqtn7Gsc72VgmgLIAtZR4zM20QWdHuhoTGxGLLTKadnrrPnBWf54oCKjstRnSMJ0ywrLIOgwBfU8HAs+LXzMwYAGp87BsDaQyikOpKG9l/NZ9soNr5Ids35OB0lbXbQe9oY8aEzKwOk9uhgupCzzQwY2JJTIWqvc1tN25o08wOleP0kbMSkOQsJkRCaYwdB62CqMZNJTvOLxIRERGRW5VfwYoxIYwYO5YB5gRbPz9CZ3ur+Fu2eQnftSxeCFNffTbQ9jfzkbPia1PIqpg0IjoYPDD2dGa9PJd4PMnwvpL2r04D87W7urGnM/WRNCj0uib3zrabPdrtZBBDyfL5vD84jsRkO1Xr/NlHxvfGjJ5gDnA359a05lzxOkUp85g3Zw85y3dSxAu8/lbzjvWWK4/NLvzcfNHFtpUtN3y0rDxW/bTtlLb2GHs2Mx0FvPM3u4lMPdpiDxtjz2be6Giq3+04v0hEREREbl3+jayEJ5GU2J+Gso/82Ful87LGxBI9GNz5q1nVNGoRG1jLu8idu5hVHXxuufJ4/22IZiduHyM83tPAoOXu6p5RlsZFA4DOr6mcKsBylXmmgV3H6U6OlPSmYC6CxhXJ8hezJmkBNhvg8kw/iz5xlMjpL2ArX8vmDnJfLKsM9zXEEcakM+sRyGkM8irc40m0e4I6Y89uzFvqZBlmEREREbml+RWs9Ex5kJG9GjiyZydnO9tbxY+y19rRvS5sMUQ0rhJmufJwd2EXwqC8LjyjFBlJLp/T2ZwrXm/a4yU6eSyRJ45StG4PCW+9xvMxPlZj6yjnpZX2ptwZE8vU6bBtudfCBK48qrJe4PlHbBDlZvvb87VrvYiIiMhtrtNgxZh+JKU6CK9zUph/hs72VvG3bHsikn3ldwDYiYDmXeZvZz4DBt/3xzNKMQ22vOlHxckkpO7GmZ/Hti1ZzPRVpIOlj1vzLBPdlmWVsTm3eSTJs8rZY8ycnARVFQDYbHGd7mUjIiIiIre2zkdW7pxA4rAQavft5MtO91YJoGwbdiIi3ZQUtM3vAE+HlhgXVSfa1hsdY/N7U0gPzzK/bAlgH5dr4DMAu5ZleX0EDE0LELRiuVaT8/bu5mWi3eXUjJ7L/FeyWgU20UREevJ0yAd37ussaVObm+pAmlxewPYOcmiMPZbE5MfImGyD4lxy3l6E23U17+dZXv9hDNWVBVQ7yykp9wxZeW9CKSIiIiK3tk6Dlchx6QwOOUf+FwWd7q0SSNnWmpKz2+nYNu1f4qvecjeltO3A+9oU0sP3Mr81lZ3P4YqMAsrjAH83q/QdgBm3nYQo/85X4xUgVBQsZYmPEQfLKsO5cr7PPBvv/Wws12qW/HS1f21vXU8n+T5tyuevbjOdzmZPx5GcRkQUULmHkoJFLMm9WqZ5StjmFXlsMrFEp45lUlIyGY5kSlfO97l5pIiIiIjcmqzRo0ebm90IERERERGR1kJudgNERERERER8UbAiIiIiIiJBScGKiIiIiIgEJQUrIiIiIiISlBSsiIiIiIhIUFKwIiIiIiIiQUnBioiIiIiIBCUFKyIiIiIiEpQUrIiIiIiISFBSsCIiIiIiIkFJwYqI3PZMSC/6DRxE3zBzs5siIiIiXsJudgOka3qMms1zP5pIv7O7WPPLZZResIK6XpFgZPolMPn7sxh3Xww9Q2opWPYia7+82a0SERGRqxSs3GSOP/03shND+Gb7P7LoD4cAMKY/6c//nEeHh+Ja/zOWbqpsc1z4gIH0DQ8hvP9A+nfjU7we9ZpeD/H0G08R9fm/8IvflHRPpf6c9+7v8dJLj3CX1X7AZerzWf3KYoo7KHMjmcQf87On7yfMR3uM+ZpNb/wDO89cW1vD757M9CceYYR9IH3CPYOrl/J/xcJf7wm4rh7jX+ZvZyZ4tbGBKxdP4i7dzta1H3H4TP01tfV6MiachBl/zrdGXeLr7avYd6KGquM3u1UiIiLiTcFKEDBnThE+5gHuXnuQY8aC/mOJt53i5KWB7R5zLm8xv/wqgh6XajhT230d7etV701xah87PjxPr8aXPeIymJjQj2N5uRw42fimKafiZrXPl/LP2fLhcULw1d5THKm9tuqNiWXSUz8gsc9R8rd+wsk6z7Sn+opj11BnbXMbrTB6RdyLI/UJnhpq4723lnEoaL9HMQy29wbXBtat3chJywKCta0iIiK3JwUrweDcAY6GpTB62HscO2Tol5RK9OGDHEkYx4B2DrGsempPV3KNfdcbVu/NYJ3dz56P9ze97j9pDBMTelJZmMtnB706pUEyqgJgVRey8+NCoL32XmNbw+OwDbK4+MUf+OAj57XV1aSuzT3ddeRFnv/+eDInfcShj1zddJ7uVkd9PRAapuQ9ERGRINVhsGLMSKb/z58ybN97OId8hweizuFc9Qt2DXiaP5keT5g7j3XLV7L/bHMnJaT/SMZlPU7y8MHc0S+ES6crcRVt5ONNu6i+3LKjjieDiAAAIABJREFU1Sv2ISZPe4h7B0fQr3cYdWerqDiQx6e5H3L4jOly2R5DJvJQ5kPE32OjX48GLpxyc6JgE1u3+GrDw0x74lHi7f0x51wc/OR9Pjg9hZ/+cDh7/vVvWH+4a9cWkPAaDhQNYWrqKD46WEZC4j0cLfw94YnjWj2PWDL/7jUmDGo+l6nN472fLeVgqw53/0mv8pPvhPF/2bv3uCjPO///rxvwgGdFGEAD8RQiBzkZRWMxiZIYrE3EtHatbY1Ns21M+mvabf3ud5N8d012v2s33Wy/D0271jW2tUlji7a1EqMSD4mKUQTCQIKnKCowHDzhATndvz9mGE4DzCDoRN/Px8PHw5m57uu+7vu+Zrg/93X64PXfUzd7EdMmjmagUU1Z/vu89+dMSls87fYkX/s56/pamGYkX1nxQ+IHtth+6ou8MrX5Zdsubu6eX9Ocwtd+9gyhWT/ntyfjmPvYVEYN86Xm/Ck+3fkOmTmlNHQzAPHkGrtTz7rzHXKXu9fYNPswKGA4fQ2g7xD6APQdyvCAIGdejTcuculKrfO12f9eJs9dQFLMvQzt38i182Wczc0gMzOXCw1dl7XaWkDZV2MYbRkNNAcrvfX70D1XuF4DDBvIAKCqB3IUERGRnuVWy4oRfj9DT3xEkd/DJDz+bcxTFVhzB5E4ZSaPztzH0b+dAsDsH83cH7xA3MALnMrdx2cXG/APmUTMQ8+wNHwIv36zqasFmIOm8eQzi5hACZ8eycRWXUefYeOITHySr4cP5nev/4EzDd1Ia0nhG9//KiE1JyjM3sn5Gj8Gj55E9OxnGHvvAH71q11cbirDkId46u+/zhjfC5w6souzlwyGTfomc6sq250DT47NY4ZBxSe51H33AcZkBBJxz1Hy3q4nLq1twgsc272Z6wMADIITnyRyaKcZE/Lotwnsc5z8D4sYOHYKMYlfZ7H/DVav+4hrzvK6n6/716Kcot1buOwH+IYTM2sSA89mkVVY4czr8okrzfl25/yOSGH+xAFUfrKXsz5BjE9MZOo3XsTvyktkHK/r8rS3OzZP6q8H9Qzc/w55zp1rPIFH/r82gWPcEl6Ia37ZcsyK6TOah7/3U74UUsO5Tz6ioLKBQeEJxKQsI3z071jzP3up7qKu+wYFMhS4evli986vB9/57rtO3Q2gjx++N5mTiIiI9A63gpWh1fn8bcuH1EcOI2JpEFW/fIes6vvwn/gTEgJDMczPMQ2DQYmPETushqI/vMbGbPuNqGn+FeuTK1gyI4UHxuxgu+OezGdsDGP8TU5uWsmfDlx37utQ/iPEhYHvAKDa87T+/tc5mvkOuw9/wOeXm54sb+HY3/0bCxOTmTRyFx85HqEGTXuYMX2v8dnbr/HHHHsG5vZdTF/2z0RzrdU58OTYuuXMIT679jz3PTyA4OPZvFvbl7g2SQyjmtNZ73EaME1f4sd0HqwYRjijat5g9W8LqDcMTPMDyr73KnMiZxAz+CMOXvE8X3evhWFUcnTXFo5iH2AfNmsS/Uqy2LPD9QD77pzfIff6sPtnK8lztErsPfQEz/5wLnHTE9h2LItGD4NHT8rgST0D979DnnLvGp/l8Ma1nOwD9LmfGV+bwdBjW9n6cakzn4YLx53/9588n+mj4Mzf/p3f7LZhGgamuZXji1/jq3FzmHLPXjJbDUQ36DvYwvAAwPDDPzCSpHnJDDPL2Hf4WLfOryffeU/4+A9n6IA+4ONH/5HxRI6Gayc+865xSyIiIuLkVrDSWF9r71ZTV0c9tdyoAaijvh4MH18MwAQCAoMwqKC8cgDDAwY4t79SXkI9sYwI9INT9tmBGq9coQaDIaHjGOiTz9VG+41a9dEP+PAotOyb70namlMfse8UmKYf/kOG49/X3hv9yoXzwDAGDgWqwDQNgiwjwSyiKP+yMw/DrOCzz0qYHT6s1Tnw5Ni6pxir9QZPz4jg+Ma3qCXpJvKyM81rnPjEfhMLYBgXKDp6jjnjAxgWBFzpfHtXPLkWnujO+TVP51LQfOloKMnl+IW5TAsIYihwAc94UgZ361kTd79DnnLnGhvGZUoLPqYUMPsPIOFrMOjCMQpyXQeOgSGj8OUcx/JtzgDKMK5ztOAYDXHxBAT7wtlGZ3rDGMSkb/wrk1rk0XD1DDkbf8XuM43OMUG99fvgiREzXuC5x+6xn7uGakpz3uF3fzpIjReNWxIREZFmPTrA3sfXB8MIJ/mFfyXZxeeGjw/guOE8sZ3dhXGkJv2AFydf5dL5Si7aznD2+GGyswq43Nji5sGDtKZPIJFfXsysqRGM6Ne6c4dpXmxxi+NDnz59oLGW2jpa3fvU1rbvQuTRsXVT6e5f8Ydj/Tl/8noPXZkaam+0fqeuthbww7e7I4o9uW4e6M75baytcd6k253l4PqVFPlc6M5Dd4/K4H496209f419/XyBOmrbzLLQcKOGBgx8fX2B5mDFNK9xcsfvyS0H/4nzeDxhCAUb/y9/K6hrNXlBr/0+eODyJ38ivWIQGH0ZaIln6sPzeby0iN/s8dZJAERERO5uPT4bmGmWkPPHrXxe2/6z6uJ65/8No5Ij616hOCKB+8aNwRIURMCoRKbHzGBKwmbWvZlBRaPhcdrgWd9n/pcsXMzfxnuflnDNEXf0vW8uX35gQIvSNNLYaILhY7+pa/FY26eDp6zuHlt3GVdL+LzpqbGXztPmybXw1M2eX8NooLrshD1Q6eaTcnfL4H49uxs0cOHkQQqOG5gnBhAZu4iJyTPZad3BlTbXoTd+HzxRayukwNZUllx8xv0nKdNmELL7XUrVuiIiIuJ1evSWuLGhEWjg4omDFFR1/YffMGqoOrqfA0f3A2Ca/oxJ+ye+Of0REu/NYNtJz9KaZgATIkfjW7WTzb/Z3OrmY8jwR4ABLfIzuXjhIviMImS0DwVnmmax8iNkVDDQ+ubY02O7k3ly3dzlDefX3TJ4Us++iBrqG4A+9O0PLYdu+fbrjy+m4/MOXP6Ig588wdfiZzHt3g/Ycbq5BaY3fx+6p5b6OsDfH/+bzUpERER6RY8uL1BVUY5JKBNiQzDM5qaKAWMeJGlmMuGDm98bEv0EX/7qV4kKbDFjknGd8xevAH3waxFGuZ+2nsZGwK8ffVtsb/qOJjZqVLsxAec+yeWiGcjkr3+HqVHjsIROIDLle0wOad+JyJNju5N5ct2c6uqoN8HXr0+H+XrD+XW/DJ7Vsy+aitJzNBDKuOhA53um6c99URPwpZLK0o6DFcOo5+jeDzlPAAmPJNG/xXnsrd+H7htI//5ATQ3Xu0wrIiIit0OPtqxcyX6fvIfvI27OcpaGZnGiopGBlrGMjxxH/7It/GZvc9rqSwajE1OIvX8s43MKqbpu0m/EeCbGj8W8tJ9PT3me1jAuUZR/gplzHyTt+33JP1pOQ/9ARkdFcOVoIXXhY1uVt/7En/nL+8GkPTqFx56eimk2cu30e/zlSF/GpbZ+1urJsfUWc2Qs0yeFOiJMg+ARgF8I989KxQJQe5r8DwtaTZnb0/l6ct2c6o9z9lwj46PTeGreGCpqGoB6So9kcNTxhN0bzq+7ZfC0nnmi5bXoGz4M6ENQbCoPhgFc5ORH+ym9mTV93HA9+y8ceDCSGXP/kafv+ZjPK+sZFJ5IzITBXPt0M4fO0en49sYzOzl0MoXHJj7KlOB97HV0u+qt34fuG0g/f6Dm2h2xCKqIiMidqEeDFaPGytZfvE5F6hPEjU8iKdqPusvlnMvawJ5teygzWwyEP/NnNqy5wkMpX2LclDlE9/eh/uoFKou288G2v3CitntpK/f8inf9FvHIlGgSH/Gj7vxpinb/kvcvPsSP20ywZRjXKc58g9VHxhAWOhTzylnOnKrA/5H/DTTSsreLJ8fWa0Km8PDjD+DXKhgJJyE1HADz6oec+7CAy72YryfXoolh2Nj3znqGLJjHxGmPE9nXB9O8Tu7ZDI46ZszyhvPrSRk8qWcecXEtwqalEQaY5uc0Ht5PqYvxHj3JaChm93+vpDp1AVNjvsT0mAauXrBxbOdGduzM6XKNFcO4zJG92SSPncLkR+LY93YuDYbRa78P3ddoH6vW2NhiugARERHxJkZUVNQXvddKjzLNIUz++38lddwpMv7ldbKv3d3jU0TuVKbpR9S3fs6C6Mt8smkDWSeruHKhgqv1+s6LiIh4Cy+dc+rWMfuPJW56BIMAw3cQI8ZPJnpsXy4f2kH+Vbq7nIOIeDnDqKdg6+8Zb/kGk576MZOoIXfdC2z59HaXTERERJrc9S0rZsBc/v5/PUGwYdBYf43qqhJOZ28hc08B1Q2KVETudKbhz7BR9xA0fCBXTh2htFrfexEREW9x1wcrIiIiIiLinXp06mIREREREZGeomBFRERERES8koIVERERERHxSgpWRERERETEKylYERERERERr6RgRUREREREvJKCFRERERER8UoKVkRERERExCspWBEREREREa+kYEVERERERLyS3+0uQG/qO3Exz35zBoOqD7L5F+soumbc7iKJiIiIiIib7uhgpc+QEQzs40OfwSMY3ENHavZ/iG+9uoigj/+Ln/+x0GWavtNe5H8tiHS9fdnf+OV//JlKozlw8guIZfqcx4m97x4G96njyvkSTh/6Kzs//JSrjd4ZYLlzHrxJ39EP85XFTxE5si/msXdY+atMag3vPLciIiIiYndHBytXslbzi88C6Hujiss1t+7GtP7UR2RmfNb6zT7BTJyeRHB9PXUt3jZGfImFP/gmY/3KOZ67m/zLJsMmTCH6yy8yavjPWbO5iHrdVHebafYn5MFv8dS8yQy5fJbKG6MJuN2FEhERERG33NHBimE0UHOpnJpbvN/G0kPsK21+7ROQxBPfnUfQ9Ry2vL2NS47gwzR9uf/xpxjrX8aBVSvYWVxvf3/bbsqe/xdSpj9J/M6VHLpyiw/gThI0myfmx1B35G3WbS4j8X/9SMGKiIiIyBfEHResmGYYKf/4EtNHNrdGmDVZvPNPaznepoVi8Mzl/PDLfnzw+u+pm72IaRNHM9Copiz/fd77cyalNU1BRSRfWfFD4ge22H7qi7wytfllybZ/Yu3O8nbl8Rs9m4Xf+SohVTt4e/0fOXWlZRn8qSs7RPbFo2SfrgNH+QyjkhPHK0i5N4DhI4FuBCumOYWv/ewZQrN+zm9PxjH3samMGuZLzflTfLrzHTJzSmlocT58Bk9gSuoTxI0bxdBBPty4VE5J/g4+2HmQytqbPw+3zY1THFz/L3xiraCBibjTSGWaAcR+60c8fn8/Sj9YzYadJ2lU65aIiIjILXfHBStwgWO7N3N9AIBBcOKTRA7tLL1ByKPfJrDPcfI/LGLg2CnEJH6dxf43WL3uI64ZBlBO0e4tXPYDfMOJmTWJgWezyCqscOZy+UT7iMK0zGbx33+VEWc3sWHdNsrqWt/wGsYVTmRu4IT9RavPBg8ZDFRRfaFbJ6HZiBTmTxxA5Sd7OesTxPjERKZ+40X8rrxExnF7hzSzfzRzf/ACcQMvcCp3H59dbMA/ZBIxDz3D0vAh/PrNHVy4ifPgDt+BIxnSv+PJ6WqrK7haa3qcr3HZSm4B9vPr7uZ9IomZFEg/wyA8MZ6AnSep6HorEREREelhd1ywYhjVnM56j9PYu1nFj+k8WDGMcEbVvMHq3xZQbxiY5geUfe9V5kTOIGbwRxy8Ym/pOLprC0exDywPmzWJfiVZ7NnRxcDyoDGE9jfwm/AU33nlQY5/tIntO3O40ND5U3rTN4royMGYpbs5ehG4iYf6Q+71YffPVpJXbc9k76EnePaHc4mbnsC2Y1k0GgaDEh8jdlgNRX94jY3Z9mDDNP+K9ckVLJmRwgNjdrD91E2cBzfcM2c535o2rMPPj/3xOd45WNfh5z2qLo/D+6czfKI/ZR9lUXVr9ioiIiIibdxxwYqnTPMaJz4pcA5iN4wLFB09x5zxAQwLoltdsJxOZbL593n49htK8P3JJM5+jm8HvMmvfp9DTQfdikyzP+O+8nfEDKqmYNMuqm6y+5F5OpeCyzgDnoaSXI5fmMu0gCCGAheAgMAgDCoorxzA8IABzm2vlJdQTywjAv3gVMNNlaMr5Qc3kH6iX4efVzvG89wKhnGZos0rKdrsfOOW7VtEREREmt31wQrUUHuj9Tt1tbWAH743uWSmUX2ST3NPApCf9RHF31jBwvivMePDHHaeaZ/eNPszavYLpE0fycX9/4+tn1Tf9I1yY21Nm9nEznJw/UqKfC5Q7XjHx9cHwwgn+YV/JdnVcfj4AL0brFw7m0fB2V7dhYiIiIh8wShYuUUM4zpFuZ9SG59ESPhgONO6ycY0hjDhKz9gwZdGUX14Lb/7c0GvrANiGA1Ul52wByot8jfNEnL+uJXPa9tvcytaNXprzIqIiIiIfHEpWOlhpulL+MxvMGn4SQ7++UMqWs645eNj743V2Nh6mz73MHXx86RE9qdsz2r+sCWfq7ew61FjQyPQwMUTBymouj1dnrxqzIqIiIiIeAUFK56qq6PeBF+/Pi4/NowGrvuPI35GDH4ncvmz1TFg3RhK3JQY+lDGmZNXaRpEYgyJZc7S7/BAyHU+2/wfbN535pYvAllVUY7JBCbEhrAvsxTTsf8BYx5kUpgvpUf2cLq6TZm6OA+e8qYxK6bpQ/hDT5M42oe6z3ewdd/nznMiIiIiIrfOHResmCNjmT4pFHuHIoPgEYBfCPfPSsUCUHua/A8LuNzdm8/645w918j46DSemjeGipoGoJ7SIxkcdbRKlO95lyPxPyBh8csMzjnMmYs+DL/vASLD+lOdu4GPSwEDTNOfxK9/nwdG1VOVf4jS/jFMnRXTanfnC9/n07LG9uXoQVey3yfv4fuIm7OcpaFZnKhoZKBlLOMjx9G/bAu/2du98+CJ3hqz4hPyANMmjnS8GkmQHzDsfpJm9aMBaCjLJquw7bow44hMnkr0kKt8krtegYqIiIjIbXLHBSuETOHhxx/Ar9UNZjgJqeEAmFc/5NyHBVzuZvaGYWPfO+sZsmAeE6c9TmRfH0zzOrlnMzjqmOPWqCnkvdX/SVXqE8RPmMG0wX7UXSgm/29ryNxb5Fi7BcAHPz8fDKMfIyc9xiOT2u/v2NWdvR6sGDVWtv7idSpSnyBufBJJ0X7UXS7nXNYG9mzbQ5nZ/mbdnfPgDfzuncGs1MjWbwbG81BqPAA3csrbBytB93PvEOB8FocKa7mpuaNFREREpNuMqKgojVoWaWHAjB/zoyfuo3Tby/xPZttWFxERERG5VW5ycl6RO4tp+jJm7BiM+k85fMB2u4sjIiIicldTsCLSynjuHdOXa/m7sV693WURERERubupG5iIiIiIiHgltayIiIiIiIhXUrAiIiIiIiJeScGKiIiIiIh4JQUrIiIiIiLilRSsiIiIiIiIV1KwIiIiIiIiXknBioiIiIiIeCUFKyIiIiIi4pUUrIiIiIiIiFfyDQoK+ufbXQgRERERuXkjZr/Ej78/n6FndnK00uyxtNFLlhFj2Pi87FJPFvemmWYYs5f/mAeunaCgG2Uz45excM49GOWFlFcbHm8fnbqChwa133f0khU8ZHRdJjM+jYUJQ6k8eoarhoEZv4xlc+7hujGUoJDRrf8lPMFDE2wUHLt118A0w5j99I95wI1j6S1+t2WvIp3oO3Exz35zBoOqD7L5F+souub5j8etzFeku1TX5YtM9cz7mGYo8QlhGJf3kFdUD3R8TTxKG5pGcpSFou2nO03Xbrv4ZSyLLWVvXolb6S2xqUSQQfpbB7AZRos8stmb50gUm0pyUC7pK9MdaUIJCLRReOQ0GJ7XQSNnNXtCVvDsYqhw5tlFOVOXEZ27iswSA4KCofQ0phnO7OXPELBjLe8eCSUyKhjy3DlfIUREw56tze8EUII1J6v9fkNSGRkUChR7dIxtmWYSC5cnUrhhFdYSN85ZEFTZ2h+LGRqGUXJzZXGHgpUvILP/Q3zr1UUEffxf/PyPhb22n4HJP+VH8wI59Mt/YNvJbjxt+PZ/kxbjw/m9/86qv54AwDQHk/Tcf/DYOF9Ktv0Ta3eWt9uuz5ARDOzjQ5/BIxjcgzW0N/K9Vdei3X7veYof/OBRhnfyo2o25LDpp6sp6MaPd28YPHM5L84b73zd2FDDlYpjFOzexJ5DZ6i9yXLermtxM1TX3div6no7PX0tzBGP891/nE//Pf/Gqr+dcnu7O6medYdfQCzT5zxO7H33MLhPHVfOl3D60F/Z+eGnXG28PXXRZ2wy0YFwYc8+is3Oy+BJ2phH50DBNmyWaURbWn/mKsBoydWNtyV1BQtYy5sZrW90rTlZZEK7oCPA8RlAdOxSKncchoRpRAOEpBJRkEth02uA2FTmR8H+N162BxQOZnwaC0NKKCxtU8jSXIqCIDBhGoGtPgglOSWEvW1u6su2ZjPz9VeZ9cbL2JreTJhHRHkGb+YUw6jJjKzYRvoR3IvtykvcCpKa0rZkhoYRYwntIHEokYvmEFGwjjVtr08gcK51+SzxSW2O355HAEBc22ufSPKiWChYx5vr2wdWPUnBivQq8/JF+kyayj1bjnPGNGDwZCIsF7lwY0SH21zJWs0vPgug740qLtf03A9+b+V7W1z8hP3vXaW/42Xf8GRmRA7iTFYGxy443jRLKbtd5euAaV7j9P5tnLgEPn2HYbl/ClMXvsSYgH9n7bbPafSSm81bRXXdDarrXuuOqmceMkZ8iYU/+CZj/co5nrub/MsmwyZMIfrLLzJq+M9Zs7mI+lt8jU3Th3GTJzOEUvYc/JzOW1U8SBu/jGRc35DaW1yCqXzbdaDS00wziUjWsTGnGCjGhj14KcpLx5rTYv85WViBtscVEzsH8r6LNcfANMMI5rSz3NYcF/uLX0ZyedvIBgwji8KCVJrv3cOJCckm/a0DYBgEx8WBde0tOSdGSTFWR+uGvUvcSwTs+C4bc5qOa1NTobvMy5aT1Rx8OZhmGJaUOMg90KYVJsvlOesNClakd105xmm/eKLGvsOZEyaDYhMIPnmcU5FTGNLBJobRQM2lcmp6uCi9le/tYFQfJfuDo87Xg2dOYkZkP8rzMth3vMWPidfdENVQlpPBvlOO5v33d5D0vf/Do48sZMrH/07WhS42v8OorndNdd173Un1zBOm6cv9jz/FWP8yDqxawc7ievv723ZT9vy/kDL9SeJ3ruTQlVtcsD6TiI0ZQuPpHeSW0/kTfTfTmmYSC1Ng78oD7b5jphnG7MVzYNdrzhvjXmErparp/wmJVG1f5SywaYZhCcqj0I0WDDN+GfOjyti/3f465umXmB+Ux+aVq7A6js0Sn8bMWCjcnk7+uXBi2MKb64tbZW4JTSLQAuRlYLNMwxIEI0NCoRRmLv81I62vsTcIKstDiY5vbvGITFlKRLm9haOMcGISHJ+FWCAolOjUFcx/2Mbmt7G/jk9qdwyWIKB9h5RmoyYTEZjHXhfnw5K6gmeDclnzVnqnD3ecx+fkqmXF0aqy67V2rWO94Y4LVkxzCl/72TOEZv2c356MY+5jUxk1zJea86f4dOc7ZOaU0tDiC+czeAJTUp8gbtwohg7y4calckryd/DBzoNU1janGzxzOT/8sh8f/Oy31MxaxPTIMAb7XqW8cAcZm7ZTcr11rXA3X4C+o2fwUMpDRNxrYVDfRq5dtHEudye7dzWnNc1IvrLih8QPbLHt1Bd5ZWrzy7bdqjwpg2/gFFKeepKY8OH4XLNx6sBGMms6H2znlj5VHMsfzeyEibx/vJjImHs5nfcX+sRMaZXMNMNI+ceXmD6yRXNtTRbv/NNajrf5gXRei9d/T93sRUybOJqBRjVl+e/z3p8zKW3xhM+TfAH6hz3Ew3Me4r5RAQzy96OuuoKyY1l8lPEeJy+bjjx771p4Wn890fN1cgJz/89PGPvJO1hHf5mpQVewbvw5B4d8i7+bG4GfLYutb23gaCcDFg2zkuzso6SMjWJ0mA9caK5zvfW9cCdfT3h6HlTXm8qruu5ZGW5/XbeXwzvq2e3lT13ZIbIvHiX7dJ3zJt4wKjlxvIKUewMYPhJoE6yYZgCx3/oRj9/fj9IPVrNh58kebWHrF/cgE/wbKT5ygMtd5OtOWtNMYuHTiRRu2IJl+atEWteyMaP1E/zp5et49RbcrDaJCckms2VgNGoyEeXZZBoGltQ0AnPTOxyDYeSs5tUcAANL6gqSWcealfYWoegla5jPOta8lc67R8KZ/fSrzA+ysX/DKqxt7vptJVnYHD2xLKkrSAsy+Ky0BGtOMdacLMd4EBuF2+0tEfZz9QxVG77LqyUGGAYGxVhzHOeSROYHlWDN2IQ1wxFUlTd3nWsas5P+1gEqSAQ6HgcTHBcHBbnOLnKW2FQiypu721WVH7a39nRye9fy+KCjlpVb16oCd2Cw4jQihfkTB1D5yV7O+gQxPjGRqd94Eb8rL5FxvA4As380c3/wAnEDL3Aqdx+fXWzAP2QSMQ89w9LwIfz6zR1caPUl9iFkzhICfE5QsO84/mEJxMR9lW8OquPNX+2iumkwmAf5mpYUvvH9rxJSc4LC7J2cr/Fj8OhJRM9+hrH3DuBXv9rl+CEpp2j3Fi77Ab7hxMyaxMCzWWQVVjhLd/lE8y+jR2XoG0Xq954hblA1Z/J2caqqkWER3+CRqz3w6M8wqPgkl7rvPsCYjEAi7jlK3tv1xKW1TXiBY7s3c30AgEFw4pNEDu00Y0Ie/TaBfY6T/2ERA8dOISbx6yz2v8HqdR9xzXnd3M/XHDSNJ59ZxARK+PRIJrbqOvoMG0dk4pN8PXwwv3v9D5xp6N1r4eRG/fVE79RJx5UIv5+hJz6iyO9hEh7/NuapCqy5g0icMpNHZ+7jaBd94OuuXqMOH/r09wPqPCyDh9fCw2PzhPvnQXW9FdX1L1hdv/31zBM7ENepAAAgAElEQVS+A0cypH/HqzTUVldwtdazB3OGcYUTmRs4YX/R6rPBQwYDVVS7+vPZJ5KYSYH0MwzCE+MJ2HmSChfJusM0BzEpMZq+dQXkHrlE513Auk5rmknMfjqUPW+twmYY5K/MYOHrzzAr92V2ngtn9vKXiChfx6vujFVw0UpgCQKY3KrloWnsS+fjH0KxmKaze1VwXByUH3Z8Fkdy3GFnl6iOWFKXMZO19hYTx+xb86PKKNoFNkcgkbn+FaypK3j2xeex/UNzy0urcxS/jAXRueyzBhMQMpnnFj1D5dsv8y6JYM1uVeaAQBuFbcaHeCIAe9nIWY2tg0xMM4mZD9vY+w/pzeWNXUqAoxdbWakNQrq3/85YQsOw9fIg+zs2WBlyrw+7f7aSPMeTrr2HnuDZH84lbnoC245l0WgYDEp8jNhhNRT94TU2Ztt/CE3zr1ifXMGSGSk8MGYH21v87TGMMIKvvM4vN31Gg2Fgmhkc+8arLIx/mMTgXex2dPTzJF9//+sczXyH3Yc/4PPLTU/QtnDs7/6NhYnJTBq5i4+q7E9sju7awlHsAxDDZk2iX0kWe3a4HoDoSRn6xc8idkgdp7f8X367t9KedvteZjz/z0Rw9eYvxplDfHbtee57eADBx7N5t7YvcW2SGEY1p7Pe4zT2Jvb4MZ3fwBlGOKNq3mD1bwuoNwxM8wPKvvcqcyJnEDP4Iw5e8Txfn7ExjPE3OblpJX86cN35/qH8R4gLA98BQHXvXosm7tRfT/RGnWwytDqfv235kPrIYUQsDaLql++QVX0f/hN/QkJgKIb5OaaH5e2t74Wnx+YJd8+D6nrrbVTXv1h13RvqmSfumbOcb00b1uHnx/74HO8c9DwodsX0jSI6cjBm6W6OXqT9jWldHof3T2f4RH/KPsqimz81rg2bRsxYX25Ysyi87mLfHqYNHlVC5vqsFq1GWex5owSYxsLlSxlp9aD7T3n7AfbOgfQtVISkEkHns4blby1h4dML2PNWOmWEEx0NRRuaWxoqS+3/bzseBewtBDFzJ0PuKjY6WgjM0DSWLbKw/42X2ckCFi5JYo9jILot4xU2k+QyoDRD01gYW0r6ynQCn55DQGk6q9+AZY8uYHZ5Nu/mhjLbAtYSYFQoIytKuwxMLfFpzAwpYU8pVNEiwGvqJhafBIQSmTLH5fkPnptKREEGG5sexphJREblUfhW17OkmWYYwQmhLgbXQ8cD7IGQVNIeCaHyg1d7tTvYHRusmKdzKbiM80vYUJLL8QtzmRYQxFDgAhAQGIRBBeWVAxgeMMC57ZXyEuqJZUSgH5xqaM7TvMqpgs+cXRMM4zrHC4/TEB9HQLAP2OxPZzzJt+bUR+w7Babph/+Q4fj3tT8BunLhPDCMgUOhO79onpQhINCCQQknrBXOE2aY5Xz6aQmPhHX6yNdNxVitN3h6RgTHN75FLe37YXrKNK9x4pMC5wBGw7hA0dFzzBkfwLAg2jW/u6PxyhVqMBgSOo6BPvnO2Vyqj37Ah0ehu49EPK1n4F797a0yeFonG+tr7d+JujrqqeVGDUAd9fVg+Phi0GmLs0u99b3orXyhd84DqK6rruN1dd1dvVXPPFF+cAPpJ/p1+Hm1Y7zJzTLN/oz7yt8RM6iagk27qHJxc2gYlynavJKizc43emTfACMfSGKUz1VyPz7SZfdJd9K6elJexmSWvRhH5duv2We8ug0MI4s95StYMPcw6aXzmI6N/Y4ZyixBMBJ796fIlKVEsI01LaYiNoxirBnN409MM4mFi+OofNs+Y5jBJt7dnsay5c87Z/+yZmS1u072GcUOs9HRMhNIHlU2MEo2sToviZgjB4BpEBcOOcVgCSGgPLvDwfbBIUBUKjPz7N3sLKmpVOatck4Y4Owm5gj4nAPmW5bJTGJmdC5rdiTy3BLsrVMJiURUlLLHrfNajC2nuN3gerB3dYsAikoPtJrEwAxNIvjIy6zI6P3v8R0brDTW1rSZieMsB9evpMjnAtWOd3x8fTCMcJJf+FeSXeRh+PgALf+w3qC2tnWahhs1NOBD3xbN+p7ka/oEEvnlxcyaGsGIfr6t0pnmxW7/lHtShn79+gKXqG0zSvJG24O9CaW7f8UfjvXn/MnrPVTraqi90fqdutpawA/fjlv8O3diO7sL40hN+gEvTr7KpfOVXLSd4ezxw2RnFXC5m1NRel7P3Ku/vVWG3qqTnuitMnjDsXlOdb23yuAN9eGOruu9VM88ce1sHgVne3cfptmfUbNfIG36SC7u/39s/aT6lk74YJr3EJ94D8al3eQd7WptFffTNm+TxMLlS4kILKNoVwaFtB44bn/aHwc7Xu7dgfYOZaU2AmJDKdu6hc3gHPtREZJKgOOG2tmS09F4nNAkFi5OpWpD66mNjZJNrN6QxMLFvyaZPPZu2NKqW5lphhFsS3ceZ/P6M47tc7LsXbDMEgiajMU8DSEWqsrbtxhZ4tOYmTKHkZRBQYZjhjMIDIKqXM/OSczTiRSuXEUZ06hclMqs0APYYmOpsm65qRnJmrq6rVl5mOinF2A5Yg/+TDOJhS8uZWQBHU5Z3ZPu2GClLcNooLrshP2PX6tmwRJy/riVz13cl9/MExd38w2e9X3mf8nCxfxtvPdpCdccrdF975vLlx8Y0H7jXijDrWBcLeHzpidpXlrrDKOSI+teoTgigfvGjcESFETAqESmx8xgSsJm1r2ZQUU3/7je7LXoqP72Rhl6s066q7fK4A3H5g1U1+28oT7cyXW9N+uZu3pjzEpLpjGECV/5AQu+NIrqw2v53Z8LbnodHU/5jJtB1Eio2r3PvkRAD6UFsMQvY0GKBQLL2q1Z0sQ5ANvVY3nocGardvvqaqYrh+AQe18kwyjudJC3q65gYA8SFqTYB29UuVg3BhIZSR6V5RbSfvQyaUCl9T32bk+3By4ttrHExhFQkWtffyYukeToUsdilcVYy+cRPSocooOp3NF6ULxpJjFz0Rx4+zVWM49XYpvLbAmyYWMBX1sChXklrbuBxaaS3GZcjxmfhmX7KjIdQVJVgX375Kg89rrRBazD8xe/jGUpsNfROlWWN4+FCfDuEceCkm981z7g/hbUdy+9bbw1GhsagQYunjhIQZU7J7sfffu2fse3rz++NFJb0/wH0N18TTOACZGj8a3ayebfbKa0xQUfMvwRoPt/UDw5ths3aoE+9O0PXGt+v1/bg70LGEYNVUf3c+DofgBM058xaf/EN6c/QuK9GWw76XmenteznucNdbIjfQcNpA+N1N2o79Uy3I5j82aq66rrt0Jv1DNP9OaYFbPPPUxd/Dwpkf0p27OaP2zJ5+ptWFtl/OTJDDHPsfvjU3S1toq7aZun8N3C6pUwe/kz3S+kizErrhaFrAhJdA4Gd1n+UPvT/Ajsg+FdDdpv6gbWNLajZVcwMzSJ2Y8mQl6LY7K1XTsEzNBQkgmh8K2XeXdUODFxoVRsbW49aFqLxDSTiEyxsXmlfUC7JSQVWrRklJXCgkfngYuphA0ji40/cZyT+BY7d8xutpNQkoOg4sgBbEYW1gzHMYakQptxPUbOJjKbuvAbxWSuX030kjWw67VWEwM0BXnusKSuYMHDwa3zOLKFquWvsjAkgz0rV92SNWSa3NXBSlVFOSYTmBAbwr7MUufAyAFjHmRSmC+lR/ZwusVUlIYxkHuj7se3qGmA/QAiJo3HFxtVZY001UT3862nsRHw60dfP5y9I0zf0cRGjcLsaPb6ujrqTfD169Mjx1ZVWY5JBBNiLOzfbcM0DEwjiIkTQ6EnBth/QQyJfoLkiX35fPefKKiwP2kzjOucv3gFGISfq29LD1+L3tLrdbKbTGMkiQkTMBo/5+znTd+h3vpe3Npj82aq66rrt0Jv1TNP9NaYFWNILHOWfocHQq7z2eb/YPO+M10uAmmaPoQ/9DSJo32o+3wHW/d5PiFDO31iiY0ZTGPx+26srdJ1WtMMI3gU2HI2sdHZahF2c2V0ky1jNRs7+dwoyeLdNyCYA9hctPC07AYGrRdDtLeyOCYNALo+JvuAeOeCiy6uU/DcVEZa12J1dIuaGW1j78oWLRlHsqlctJSRbYKGzgTHxVGZlw4scCu9K2b8MpKDtpHejVYVe0CXSkD5WtJ3PdOqFIZRzM4dNpalhMLWbhevW+7qYOVK9vvkPXwfcXOWszQ0ixMVjQy0jGV85Dj6l23hN3tbpzfNci4FLeK7S4ooKrvBwHsTiRk/mNrjW8kuw/nFdzdfw7hEUf4JZs59kLTv9yX/aDkN/QMZHRXBlaOF1IWPdV3w+uOcPdfI+Og0npo3hoqaBqCe0iMZHHU8SfTk2G4cySQ/JYpJqct5evTHnKxsYNiEBPyvnaQR9yPxm2GOjGX6pFDsjfUGwSMAvxDun+VYIbb2NPkfFng81aYn+VZfMhidmELs/WMZn1NI1XWTfiPGMzF+LOal/XzqalbSHr4WvaXX66Tb+hMcn8qDY5tX9b5/VB9sO9/lY8fsOb31vej9Y3OP6nrvUl3vfl3vF/4lZqbEtHu/ofQQH1nty8h5Qz3zRG+MWTFNfxK//n0eGFVPVf4hSvvHMHVW6/N2vvB9Pi1rbLPlOCKTpxI95Cqf5K6/+UAF6Bf/IBP6N3Iq+4Bz+YSbSWsYxa3W2PAKlhACHK0JRklWh1P3dqY3jqts61rSR4Uya8kzREQFQ8E2KkbhbPgITkhkZEUZRE/GsrV9d7S2TDOM6GgbhVuBUd0rkxma1qrrVqvy5q4l/ZzrAKZppjQLJVjfehmbYWBJbZ+/kbOa9JAVPLs8hM2OSQhuhbs6WDFqrGz9xetUpD5B3PgkkqL9qLtczrmsDezZtoeydv05fSnN/DXVUxeRNGM0A32uUJ77J97fvKvVF9+TfCv3/Ip3/RbxyJRoEh/xo+78aYp2/5L3Lz7Ejzvo4mkYNva9s54hC+YxcdrjRPb1wTSvk3s2g6NVnpfBqLWydc06bqR9hUkxDxN43Ubxx+/y15Jp/PD+WxOsEDKFhx9/AL9WX6JwElLDATCvfsi5Dwu43Iv5mmf+zIY1V3go5UuMmzKH6P4+1F+9QGXRdj7Y9hdOuFhEraevRW/p7TrpdjmMAdz7YBr3Ao0NNVytPMmhjens+vh0qylqe+t70ZvH5jbV9V6lut79fAeOSWbmmPbv38gpcQYr3lDPbj8f/Px8MIx+jJz0GI9Map/i2NWd7YOVoPu5dwhwPotDhbXc7GxopjmI2IRo+tRZyctpMaXeTabtSICrqWuBpqltveby3CKGUUwZocwMgqK3X8PKPBa8+CpFb7yMNe5VFkTnkr5yFcx91eXNfdOYGudq8gnzCNjhGHsCQAjRCdNaTSfc2bgeMzSNZYshvYMuWkZJcYcBU9NMaVb7izb5hhETN49Istmz9QC2jFdYU7qMBS/+muSKPIp2bMFqcz2DXE8xoqKiemCZ8juffSXpERxc/VO2n7o9fbFFRETki2nAjB/zoyfuo3Tby/xPphsjybtgDn2U7/zvpwj45L/5zw2HO52y2JO07bY1k1j4eiKFb7h+km5/Kt96XEcTS+oKno3OZfOO1s0a9gUgc9mb17a5I5HkRbGwq3kdETN+Ga/EZne5AKUldQUzS92bkaxpVfkAawaFbcfJhLQcKN/RbGJhxDw6j8hyxw1809omjnExAXlbnLN7AUQvWUFadAiV5e+xd0O6c2X7mLnPONYp+R+KgMwMx6r1zsCjdRlcjfUB+0QIM0Nal8VVmWfHzSMg2sLIwGACKlpP7dxW9JI1pEUbmOW5LltRmrqMTY+CorfXtjrennZXt6yIiIiI9DbT9GXM2DEY9Z9y+ICNnlhjJnBKEqN8rpBzKLfL4MOTtG01Dwbv/Km8y/ERpTaKOOycXriJq0Uh7bJczvDlaurftgKDgNJwwN3FKm0U5roYYG8LJTLI9f5MM4yYhMlgO4x1/epWLRGW+DSiQ0qwvtW+ZcO6/hUq4sPgyOk26768QkVuGGVAcJsuWpWujrk0lyJb88xiTYs5YltlD9I6ubZGSTGZJasxt9pn8yra0HGgAlBRXkblB02BkauWmiwy13d0HXuWWlbcpJYVERER6Q7TjODL//xj7j/2Jv/1+xyPAwaRu5mCFRERERER8UrdXf9YRERERESkVylYERERERERr6RgRUREREREvJKCFRERERER8UoKVkRERERExCspWBEREREREa+kYEVERERERLySghUREREREfFKClZERERERMQrdRms+PgPZ+iQAfgaWuheRERERERuHb+uEoyY8QLPPXYPjbXnKc7+M1s376eq0bgVZRMRERERkbuYb1BQ0D93lqD+agVlZz6nyggjKnE6o+sOkXPq6q0qn4iIiIiI3KW67AZWayuk8PAudv1uC8cbfbCMDr8V5RIRERERkbucBwPsffExoKG+tvdKIyIiIiIi4uB+sDJgAP0MuH5NXcBERERERKT3uR+s+PniB9TXqmVFRERERER6n/vByuUTnD1vMnxiMpFjRhMQEMTwgJEM9NOUxiIiIiIi0vOMqKgot6MNn4ApPLpwAfFjhtPHMDDN6+Sue4Etn2oqYxERERER6VldrrPSxDQHcF/KAhIt58nO2Mq58zU0GnWcP9ubxRMRERERkbuV28EK/pN5IGE4lz5aw7ZdJ1p8oFYVERERERHpee6PWfG3zwbW2FDfi8URERERERGxcz9YuV5DLdCvv3/vlUZERERERMTB/WDlxnVumNC3/8BeLI6IiIiIiIidByvYmzRqlmIREREREblFuhxg7+M/nGFDhhM0+WHG+jRSXlJ8K8olIiIiIiJ3uS6DlREzXuC5x+7BNGu5WLSJbXvL0QxgIiIiIiLS27oMVi5/8if+WAKXyospK6+m0VCgIiIiIiIivc+jFexFRERERERuFQ8G2IuIiIiIiNw6ClZERERERMQrKVgRERERERGvpGBFRERERES8koIVERERERHxSgpWRERERETEKylYERERERERr6RgRUREREREvJKCFRERERER8UoKVkRERERExCspWBEREREREa+kYEVERERERLySghUREREREfFKClZERERERMQrKVgRERERERGvpGBFRERERES8koIVERERERHxSgpWRERERETEKylYERERERERr6RgRUREREREvJKCFRERERER8UoKVkRERERExCspWBEREREREa+kYEVERERERLySghUREREREfFKClZERERERMQrKVgRERERERGvpGBFRERERES8koIVERERERHxSgpWRERERETEKylYERERERERr6RgRUREREREvJKCFRERERER8UoKVkRERERExCspWBEREREREa+kYEVERERERLySghUREREREfFK3Q5WRsx+iZf+4w3m3e/bo2mjlyxjVnxYd4vVa0wzjFk/XcHXulk2M34ZX1uSRnSo6fm2oWl8bUkaFtNs8V4Ss1K7f57M0DSe+2n3yuP2PswkZv10GbM62IcltePP2qXtxXKKiIiIiHfy685GphlKfEIYxuU95BXVA0bPpA1NIznKQtH2052ma7dd/DKWxZayN6/ErfSW2FQiyCD9rQPYDKNFHtnszXMkik0lOSiX9JXpjjShBATaKDxyGgz3y9bEyFnNnpAVPLsYKpx5uic4Lo4IMtjYYhujJAvbo2t4LvU13swodiuf6CUriCzPoLAULLEhFO3IBss0oi2OBCGJzH/Ywv43XiazpH35zPg0FoaUUFjaPu/IlFSqNrTdrgRIxHYOl5ezbGs2M19/lVlt9meGhmGU2I/JEp/GzJQ5RASWdVguEREREbkzdStY8RmbTHQgXNizj2Kz85tHT9LGPDoHCrZha3kD7eAqwGgpgBKsOVmtt0ldwQLWtruZt+ZkkQntgo4Ax2cA0bFLqdxxGBKmEQ0QkkpEQS6FTa8BYlOZH0W7m+gOb+pLcykKgsCEaQS2+iCU5JQQ9m5YhbXNzbhphhEdHUzRjgO0vePPz8tj/qJ5RG9dhdWt4CeYkZRgzSlud64ATFsoydGlWDsILiCEiKASNma035bYVCzt322/j9AkYpwJQ6HCZg+Y4poDJWvcMyx4NJeivBJstsPsWZnuCNQUqIiIiIjcTTwOVkzTh3GTJzOEUvYc/JzOW1U8SBu/jGTW8eZ6FzfRoWkkRwVT+bbrQKWnmWYSkaxjY04xUIwNe/BSlJeONafF/nOysAJtjysmdg7kfRdrjoFphhHMaWe5rTku9he/jORyF80VAKMmE8E20o+EE50Q2vqzEKgqKG0RUCWS/LCFotvcAhG9ZAWWvLXsPNL+M6Mki3ySiLHYg0trjv18L1xeypp/WIXNMDAtNuAwmTmOIPMWXHMRERER8T6et6z0mURszBAaT+8gt5zOH3a7mdY0k1iYAntXHmh3Y2qaYcxePAd2vcbGnF68abWVUtX0/4REqravchbYNMOwBOVReIQuH+6b8cuYH1XG/u321zFPv8T8oDw2r2xu/bDEpzEzFgq3p5N/LpwYtvDm+mKXmQfHxVG542VshoEtp013L2ew1OJ1Bp0XMmgy0fGhrj8LCQE6CJqc24cSHZ/U7m1LUJs3bKeBcJdZGCVZ8OgangtxdGFLSGRkefYtCURFRERE5IvD42ClX9yDTPBvpPjIAS53cXPpTlrTTGLh04kUbtiCZfmrRFrXstHRbcs0w5i9/CWml6/jVTfHZfSEmJBsMlsGRqMmE1GeTaZhYElNIzA3vV13rSZGzmpezQEwsKSuIJl1rFlpbxGKXrKG+axjzVvpvHsknNlPv8r8IBv7N6zC6iLAMM0kZj4czMiCaeDotmWJT2rThaxJIsmLYql8+7udB3Xlh7G2DXqa9mcLJTna5Ucttm/ubteqm11IYhcbtpa/fRvJiydj2XqawJBS9r7VPlBtVbY2LVQiIiIicufzKFgxzUFMSoymb10BuUcu0XkXsK7TmmYSs58OZc9b9u4/+SszWPj6M8zKfZmd58KZvfwlIsrX8aqLrmHtuHjib3/a37oloWnsi6vuZs1CsZim88Y4OC4Oyg87PosjOe4w1pLOgydL6jJmstbeYmIYzhaXol1gMwwMislc/wrW1BU8++Lz2P6h/biT4LmpjKwoozKvebyKLScLm8s9Zjm6mHVxM3+zLSttVJbaJ0OwZqzuct+mGUZwQqgz2CqylhCYsIDIIChMmMaslKVMZxtrdrQtZyiRKXOIKF/Hmg7GLImIiIjIncezlpVh04gZ68sNaxaF1+n83tSNtMGjSshcn+V8om4YWex5owSYxsLlSxlpdX+mq5ZP/Js4B9K3UBGSSgSdzxqWv7WEhU8vYM9b6ZQRTnQ0FG1onqGs6Qbd1dN+0wwjZu5kyF3FRkfrixmaxrJF9sHjO1nAwiVJ7HHcdNsyXmEzSVS0KYNpJjEzKIN0ayoz3TsD7rnJlpUqQpmVmoSt1B4MjsQ+XsYSm0pA3lrHOB/XDKMYW06xM9jKPxLG7OX2WcSsJYbzepnxy5zlNEPTWPZoCW/+7NmmTDw+ZBERERH5YvIoWBn5QBKjfK6S+/ERGrq4aXQnrc1F60QZk1n2YhyVb7/Gm53c+PYmw8hiT/kKFsw9THrpPKZjY79jhrKWN+iRKUuJYBtrWkxFbBjFWDOax5+YZhILF8dR+bZ90LvBJt7dnsay5c87Z/+yZmS1uwmPmRvKnrfSYW6q8722LROtNXUDe63TgOFmBIfYp/GKCCohMyOLipBUAkoPYM0xqAhJZSaeTTktIiIiItIZt4MV07yH+MR7MC7tJu9oV2uruJ+2eZskFi5fSkRgGUW7MigktE13pVAiU+Jgx8u9O9DeoazURkBsKGVbt7AZnK0RLW/QnS05HY3HCU1i4eL2648YJZtYvSGJhYt/TTJ57N2wpVW3MjM0jIqt9gCo5XTAbVsmWstyOdNYOzfZDayyvJSRbQfTe8AMDSPG0ty9KwAgbhrRluYxN3tC3JkEWURERETudG4HKz7jZhA1Eqp27+NMV2ureJAWwBK/jAUpFuhk4T/TDMOSEkcHd+odzlLVbl9BQHmXyZytCIZR3GkQ0NHAb0t8GgtSQgCocrFuDCQykjwqyy2k/ehl0oBK63vs3Z6OtaS4w3EZ9rEw2R0uzMiOzrpilVGZ5+heZYYRkwAVR5rLbtrodK2UwCCoyuOmghWjpNgZmDmvae4BrCXNY24sIc1d7URERETk7uVWsGKaPoyfPJkh5jl2f3yKrtZWcTdt8xS+W1i9EmYvf8bT8jdzMWbF1aKQFSGJBHTSeGCGJrHwxaVEYB8M72rQflM3MOfA7xZdwczQJGY/mgh5LY7JdqD9Yo+hoSQTQuFbL/PuqHBi4kKp2OrO4HGLc2HHVvmZYVhScEwZ7DoP6/pXyI9fxrIl2aS/dYB8nueV15tXrDdKssgswWVLkX3tmVz22CCiixJ2xd6KlkjVhi2OQ5rGrDiwOo4/MAiqcm9yJyIiIiLyhedey0qfWGJjBtNY/L4ba6t0ndY0wwgeBbacTWx0tlqEeVbybrJlrGZjJ58bJVm8+wYEcwCbixaelt3AAKw5mxwbNg24d0waAHR9TKVU0KK1oRcHj0fHJzmDuQAcM5LlrGZz7AosFqDE3kUr+NxpAuc+j6V0S/OijAAJiZC3ijIWuMw/MCi4RQ8yW4cNYGCf5SyiPIMV52A2gO0AO3meV5aHsmZlCZFBNgrPoYYVERERkbucjzuJ+sU/yIT+jZzKPkB1V2uruJHWMIpdDq6/rSwh9vET2AMWV4FKV7zyuLDPRpYc6/oz6/pXnGvKBMdNJhDI35pNwKKXeC61OdiKCSllj4sV6SGc6CUrmB9VRpWtKc/VHa5DY5phREfb2PzWgdYfHNnCfkIITEhkpHVLu2mcRUREROTu02XLimkOIjYhmj51VvJyLtPV2irupu1IQJyr8UTGv00AACAASURBVB3QNBi7ytVHdxuXg+Rdnx8zNI1lL86BXa+5kXEckQmHseZksWdXqrMNxQxNwlKa7gggSti7vXndFzhN/ltrqRh12r0AL2EeATtWkWkYYDa/bRjF7NyQzezFiexdeVpTFIuIiIiIG93Ahk0nZqwPNZ8c4NMu11bxIG07oQQE2ijMbT++A+xP5AkpocJF96DgEIvbi0La2WeeYpcH67jcBJcBWDcWYHRysVaKc7B6G0bJJtLfONzc4mMrpSpqKS//NLVNYBNMQKB9nA45YMt4hTedeWQ5Jz0wSrKwtrkA9halFmvNOMbtRATFEhCYx+YWZYxhCxtzDMcEBHPsnzuuaXBcImxoszimJYSALtbFEREREZE7U5fBSuCUJEb5XCHnUG6Xa6t4krYtw8hi40+y6CjCca5f4irfUhtFtL+Bd7UopJ3raX6ryru+KQ4MAkrDAXcXq3QdgJm2UCKD3NtfVYuYpix3LW+66GpmGMVYN7zssnWjZdc0o2QTb/5kk3tl75LN2fWrVVlKsshcn4U1Po1oW7oz+Gg5s5otZxOrbSXEWEqwGvbgJTB3lcuZ4KrcmL1NRERERO48RlRUlNl1MhERERERkVvLrQH2IiIiIiIit5qCFRERERER8UoKVkRERERExCspWBEREREREa/k3gr2IiJ3kWH3jXU77cWjJ3uxJCIiInc3tayIiIiIiIhXUrAiIiIiIiJeScGKiIiIiIh4JQUrIiIiIiLilRSsiIiIiIiIV9JsYCIibjAH1rDwqUrmRd0geEgjOb8fy08/9L3dxfr/2bvz+KjrO/Hjr+9kcgEJR47JgQl3IEzIhRAQAwJBDOIRtLRIrVJ0a7E+ai92t+p20e6W1q7b34K6lkXbRSm4gC0lIvdNEEISM4kmECABJpkcHDkg53x+f0zucyYkMOL7+XjweCQzn+9nPt/v9zPh8/5+LiGEEOKuJsHK15TbhKU8/90ZDKo4wbY/rCfnhubU+QrxdaZUHU++cImXwlXza67y1RBCCCH6nQQrd5jxe/9NUoSOK4d+w5q/5QGglBdxP/wdD452wbzzl6zbU9zhOFfvYQx01eHqNQyvPryL/ZGv8pjF068vwf/z/+T3H2f3Tab2fO49T/DSS/MYqnXdqlQNaWz9xVqyuklzO/kmvMYL8/Qc/v2rHChqKZPu3hf55bfGkb7+R2z/su/KOjD+F/xkoR8n3/kZO8/1Pt++vsdu017mHxeFt+SvrNTfvIol5xAHtn/GufKGW/4MhwytYt4EKygdpz8O4Ze7XKmwOkedEUIIIe5mEqw4AVV+DddJU7ln+1kuKg28JhNmuMbVmmFdHlOZspY/fOWDW00Z5dV912jqr3zviGtfcOzTKjwaf3ULjWdG+CAupiRz5mrji6qQojtVPtEtpapb7pWmx8NnHMaYx1gy0sDGN9eTdzvrp6vC1fYD6ekSqAghhBC3iwQrzqDyDPn6aCaO2sjFPMWgyBgCzp3lQvgUvLs4RNMaqL5eTHUfF6W/8r0TtIpcUvflNv/uNXMSM8LdKc5I5ujZVo1NJ+lVEe3VdbhXJy78iB8+OY2EmZ+R95n59hWlSscNAKx4uN2+jxVCCCG+6boNVpQay4J/+TmjvtiIafjDTPWvxLT595zwfprvLAhDb0lhx/sbyK1oNVzFayxTEh8lanQwgwfpqLlejDlzN/v2nKC0tm2j0CNkFg/Mn8W4YB8Geeqpqyih6EwKR5I/5Vy56nVat+EzmJUwi7ARBga5WblxzcLl9D0c2N9ZGWYz/7EHCQvyQlWaOXt4E3+/PoefPzWa1HZDYxw5N4e4lnEmczhzYybw2dkCwiNGkJ/xV1wjprS7HyEk/NMrTPdt+SxVncLGX67jbLsGt9fMlfz4YT373vyQurlLmDZhOAO1CooyP+PTT/ZS2OqptCP52q5Zz/dCqXAeWfVjoge2On7qy7w2teXX9kPc7L2+Sk3hW79dTlDK7/nzuSgWPDiV4CEuVF+5wJd7NrI3rZCGXgYgjtxje+pZb75D9mq+x7/9M9VzljA9PAQvlyqKs3eTvHUX5ptt83Txm0LCE48REToU3Q0LF45vZm+16jRv+86t/+5xVypMWRQ9GcFww3CgJVhxJF+dVzjxSYuJCfPHre4K5oy/s+NkIN95aT5l/7eCjSfqOn7wDR2VCtCsDBrQYzGFEEII0Ufs6lnRQsczOO8IOfoHiHnoe6gLJZjSBxE7ZSbzZh4l9+8XAFAeRha89COiBl7lQvpRvrrWgGfgJCJmLWdZqDd/fHs3VxsbkWrQNB5bvoSxmPny9F4sFXW4DhlNeOxjfDvUi/998y9cbOhFWkMCT73wJIHVeWSn7uFKtR6v4ZMwzl3OqBEDePfd/ZQ3lcF7Fk/8w7cZ6XKVC6f3c+m6xpBJ32VBWWmHa+DIuTlM0yj5Ip265+5lZLIfYffkkvFRPVFJ7RNe5cyBbdwcAKAREPsY4YO7zZjAed/Dz/UsmYdzGDhqChGx32apZw1r1x/hRnN57c/X/ntRTM6B7ZTrAZdQIuZMYuClFFKyS5rzKs+rbMm3N9d3WAKPTxhA6ReHuKTzZ0xsLFOfehl95Sskn+2kwdkDh+qvA/UM7P8OOU5H4Pxn8NHlkXX0LJ4hMUREPcl3B9Xx9rv7qWgqr9tEEn+wnKhBFVzM2M+FMitDwp5idtXVDjnaf2634R634+Lvx2Cgqvxar/JV2nDin3uJ+wPrKMk+Qrr5Jh73PMQjD/QwGFBp1DUAeiueHt0nFUIIIUTfsStYGVyRyd+3H6Y+fAhhy/wpe2cjKRXj8Jzwc2L8gtDUeZSmMSj2QSKHVJPzlzfYnGprpCj1N0yPreKZGQncO3I3uxrbZLpREYz0VJzbupr/O36z+bNOZs4mKgRcBgAVjqf19LxJ7t6NHDi1j/PlTU+At3PmO//G4th4Jvnu50iZLa3/tAcY6XaDrz56g4/TbBmoXfuZvuJXGBsHfTRx5Nx65eJJvrrxIuMeGEDA2VQ21boR1S6JplWQn/Ip+YBSLkSP7D5Y0bRQgqvfYu2fs6jXNJTaR9EPXmd++AwivI5wotLxfO29F5pWSu7+7eRim3wdMmcS7uYUDu7ufPJ1b66v9wgdB367mozGXolDJx/l+R8vIGp6DDvPpGB1MHh0pAyO1DOw/zvkKE0LIaDyTd7Z+hUNmoZSyZx56nUWRz9AbMB+Dlhs6dyj5xDpXUf+9n/nz4dswbjadYgZL/6KMKra5GnvufX/PdZw8zIw1AfQ9Hj6hRO3MJ4hqoijp870Lt+xs4kN1HH12H/xx605jdfsUyYsfYNvaRpldKS0BkLiKpmoB5QblzqudyGEEEKIfmJXsGKtr7UNq6mro55aaqoB6qivB03nggYowMfPH40SiksHMNSnZaxEZbGZeiIZ5qeHC7ZVfKyVlVSj4R00moG6TKoaJ6xW5O7jcC5AS8PNkbTVF45w9AIopcfTeyiebrZ9LyuvXgGGMHAwUAZKafgbfEHlkJNZ3pyHpkr46iszc0OHtLkGjpxb7xRgMtXw7Iwwzm5+n1ribiEvG6VukPeFLVAB0LSr5OReZv4YH4b4A5XdH98ZR+6FI3pzfVV+Olktt44Gczpnry5gmo8/g4GOfQZ9VwZ761kTe79DjlKqigtZXzUPe9O0m5zNPktDdBQ+ATqwqMZzM6BhJs9UQktdL+bLL83MDmkbmTp6bvZy9B5r2iAmPfVrJrXKo6HqImmb3+XARWvzXCNH8h3g58cAbpCTldPmmuWazlIfFd2mvFOezuM/ZlkbLzRcLfTk0z1+fHiZ3lZzIYQQQjioTyfY61x0aFoo8T/6NfGdvK/pdEBjYyRvFweyo0iMe4mXJ1dx/Uop1ywXuXT2FKkpWZS3Xm3HgbRK50f4w0uZMzWMYe5tN2xT6lqrNoYOV1dXsNZSW0ebxkdtbcchRA6dWy8VHniXv5zx4Mq5m310Z6qprWn7Sl1tLaDHRdfLLB25bw7ozfW11lY3B2I2lzjxwWpydFebOtr6rQz217P+VkNtbdtXGmqqaUCHm4cesNVld3c34Dq17VZOqGl/MP13bo7eY6VucG73h6QXg+eEhTwU403W5n/n71l1bRZFcCRfvV5Pp9es9maHb6+1QUdtnRVQuOlhgFcDQwdbcYO7YgEKIYQQ4uugz1cDU8pM2sc7ON+xDURFQX3zz5pWyun1r1EQFsO40SMx+PvjExzL9IgZTInZxvq3kymxag6nDZjzAo/fb+Ba5k4+/dLMjca4w23cAh6+t/XMWCtWqwJNZ2u4t3qsretiOI6959ZbWpWZ8029E066Tpsj98JRt3p9Na2BiqI8W6DSy/lD9pbB/nr29dOf5+bYPW7g6rkTZJ3VUHkDCI9cwoT4mewx7aay3f3tj+/mqQ9HMvtDUErhayzh7Z9cI+4RC0vTRvB2Qa+yFEIIIYSD+rRJbG2wAg1cyztBVlnPjUVNq6Ys9xjHc48BoJQnI5N+yXenzyZ2RDI7zzmWVikfxoYPx6VsD9v+tI3CVg0a76GzgQGt8lNcu3oNdMEEDteRdbFpFSs9gcEBQNsGjqPndjdz5L7Zyxmur71lcKSeOaqmtgYYiN697eturm5AA9YOnXfuuLVbStfFzRMXrNRWt9ThmppawBU3D2g9Hcu93cH9eW63dI/Lj3Dii0f5VvQcpo3Yx+58a6/yra+vBzy6uGad0zSNUtMAztRfI1hfj+8wQIIVIYQQ4rbo7WCgTpWVFKMIYmxkIJpq6aoYMPI+4mbGE+rV8pq38VEefvJJJvq1WjFJu8mVa5WAK/pWYZT9aeuxWgG9O26tjlcuw4mcGNxhTsDlL9K5pvyY/O3vM3XiaAxBYwlP+AGTAzsOInLk3O5mjty3ZnV11Ctw0bt2ma8zXF/7y+BYPXNEuaWIGoYwanxwcxmU8iJsQiioYsraLVqlaQMZMXE8Ls1pBxA2aQwuWCgramnQl5UWowhmbIShJV/NnwkTgtqVoJfn1s/3WNPqyT10mCv4EDM7Do9WxzuS742SEm7gychJE9E3XzNPxhnHoO+uN87VykA9gI6Kqq6TCSGEEKJv9WnPSmXqZ2Q8MI6o+StZFpRCXomVgYZRjAkfjUfRdv50qCVtxXWN4bEJRI4fxZi0bMpuKtyHjWFC9CjU9WN8ecHxtJp2nZzMPGYuuI+kF9zIzC2mwcOP4RPDqMzNpi50VJvy1ud9wl8/CyBp3hQefHYqSlm5kf8pfz3txuhEz16fW39RvpFMnxTUGGFqBAwD9IGMn5OIAaA2n8zDWW2WzO3rfB25b83qz3LpspUxxiSeWDiSkuoGoJ7C08nkNj4Jd4bra28ZHK1nDsnZxfFLU5k15+cs800hr7SeQSPuZdIYTyoz9pBxnTbzq5Qq5rr/Ep57JoecohoGjoglYowXtWd3kFrUkrbm9F4yEyYyKXElzw7/nHOlDQwZG4PnjXNYbXf51s7tNtxj68U9nDyXwIMT5jEl4CiHGlc6cyjfM/tILZzO/VNf4Hnvz/nqchUe98QQ7HKZcuXV9Yd7Wxs3aNVT0YuFKYQQQgjRO30arGjVJnb84U1KEh8lakwccUY9deXFXE7ZwMGdBylSrSbCX/yEDe9VMivhfkZPmY/RQ0d91VVKc3axb+dfyavtXdrSg++ySb+E2VOMxM7WU3cln5wD7/DZtVn8tN0CW5p2k4K9b7H29EhCggajKi9x8UIJnrP/GbBS32rIjSPn1m8Cp/DAQ/e2ewIcSkxiKACq6jCXD2dR3o/5OnIvmmiahaMbP8B70UImTHuIcDcdSt0k/VIyuY2rSjnD9XWkDI7UM4fKoAo58sc3qV7wOLFj45hq1FFzzULu7o3s3pvOzQ6BqAuFe/9IxdQlxM0YzkBdJcXp/8dn21r2WAHQak3seG89NUmPMCniAfxuWij4fBN/M0/jx+MNbXLszbndjnusaeWcPpRK/KgpTJ4dxdGP0mnQNIfy1dQlDq37L7SkJIwj45gy4jpFpp18kjWCZ8Z09+FNP9QxblwdbmZXanu7r5IQQggh7KZNnDjxmzF+yU5KeTP5H35N4ugLJP/rm6TekAaJcE62HeyHcWLtL9h1QerprVATnuEfl02noHEH+yHj2vYgKVXH069c4B9G23631kHKhlH84rAL13J7MUlLCCGEEHZx0jWnbh/lMYqo6WEMAjSXQQwbMxnjKDfKT+4mswrZT0EIgaa58uHbweifLGN+eA0BXlZc5W+DEEII0e++8cEKAycw9aFHCdA0rPU3qCgzk/3pn9h7MEuGeQghmlmvDuD99wbw/p0uiBBCCPENIsPAhBCinfbDwLojw8CEEEKI/tOnSxcLIYQQQgghRF+RYEUIIYQQQgjhlCRYEUIIIYQQQjglmWAvhBDtyDwUIYQQwjlIz4oQQgghhBDCKUmwIoQQQgghhHBKEqwIIYQQQgghnJIEK0IIIYQQQginJMGKEEIIIYQQwilJsCKE6HPD5r7CK797i4XjXfo0bROlQpjzi1V8KzqkV+VT0Sv41jNJGINUr44XQgghxO1xVy9d7DZhKc9/dwaDKk6w7Q/rybmh3ekiCXHXUyqI6JgQtPKDZOTUA11/77pKq6JXsCIylUMZjQkjE4n3T2fL6i1YNA0IwsfPQvbpfNAc/15raWs5GLiK55dCSXOeQgghhHA2d3Ww4uo9jIGuOly9huHVR2eqPGbx9OtL8P/8P/n9x9mdpnGb9jL/uCi88+OL/s47v/uE0laNI71PJNPnP0TkuHvwcq2j8oqZ/JN/Y8/hL6my3lojyp7yOgMV8Ry/fPpe9J00GpU6z57Xf83x8u6vxcD4X/CThX6cfOdn7Dz3zWl8ug1/gEeWPkG4rxvqzEZWv7uX2jvY+NaNisfoB1cPHqVAdV+O7tL6AKa0FACMkcso3X0KYqZhBAhMJCwrneym3wEiE3l8Ihx761X2mlvyUtFJLA40k13Y7sML08nxB7+Yafi1eSOI+IRADm1Yg6kxH0fqp9fMlby8cEzz+9aGaipLzpB1YCsHT168o/dGCCGE+Lq5q4OVypS1/OErH9xqyiivvn0NhPoLR9ib/FXbF10DmDA9joD6eupavawNu5/FL32XUfpizqYfILNcMWTsFIwPv0zw0N/z3rYc6r8JjZvCz9n/6SV0gFtoPDPCB3ExJZkzVwGucaH6DpfPCSnlQeB9T/PEwsl4l1+itGY4Pne8TDpGT56MN4UcPHGe7ntV7EurVBzhrGdzWgFQgAVb8JKTsQVTWqtj0lIwQYd8IiLnQ8ZzmNI0lAohgPzmnhRTWiefF72C+OJ2kY2D9VOpG+Qf20neddC5DcEwfgpTF7/CSJ/fsG7neazfhO+0EEII0Qfu6mBF0xqovl7M7W7nWgtPcrRVW0fnE8ejzy3E/2Ya2z/ayfXGhopSLox/6AlGeRZxfM0q9hTU217feYCiF/+VhOmPEb1nNScrb/MJ3AFaaQbH99nG/HjNnMSMcHeKM5I5erapUSeNuw785/Lo4xHUnf6I9duKiP3Hn9zxYAXXSURGeGPN3016Md3ftu7SWgopa/o5JpayXWuaEygVgsE/g+zTPeSPLfB4fGIRx3bZfo949hUe989g2+o1mBq/h4boJGZGQvauLWReDiWC7bz9QUGbzB2vn9UUpSVz9EJjmT/bTdwP/oV5sxcz5fPfkHK1+3ILIYQQwuauC1aUCiHhn15hum+rYSDVKWz85TrOtnua6TVzJT9+WM++Nz+kbu4Spk0YzkCtgqLMz/j0k70UVjc1jsJ5ZNWPiR7Y6vipL/Pa1JZfzTt/ybo9xR3Kox8+l8Xff5LAst189MHHXKhsXQZP6opOknotl9T8uuax95pWSt7ZEhJG+DDUF3AwWOlNeXVeY5mS+ChRo4MZPEhHzfVizJm72bfnBKW1ba+b2/AZzEqYRdgIA4PcrNy4ZuFy+h4O7G9Jq9RYFvzLzxn1xUZMwx9mqn8lps2/54T303xnQRh6Swo73t9AbkXvghAXvykkPPEYEaFD0d2wcOH4ZvZWf8MmS9dc4MQH/8oXphIamGDX1A2lfIh8+ic8NN6dwn1r2bDnXJ8+5XePuo+xnlYKTh+nvId87U0bEZjK3tY9KMGTCStOZa+mYUhMwi99S/Nwrfa0tLW8ngagYUhcRTzreW/1cSyahvGZ93ic9bz3/hY2nQ5l7rOv87i/hWMb1mDq4+BYU6WkpuaSMGoiw0N0cPUbVleFEEKIXrrrghW4ypkD27g5AEAjIPYxwgd3l14jcN738HM9S+bhHAaOmkJE7LdZ6lnD2vVHuKFpQDE5B7ZTrgdcQomYM4mBl1JIyS5pzqU8r2NEoQxzWfoPTzLs0lY2rN9JUV3bBpCmVZK3dwN5tl/avOfl7QWUUdGrJ7COlVd5GFnw0o+IGniVC+lH+epaA56Bk4iYtZxlod788e3dXG3qDTIk8NQLTxJYnUd26h6uVOvxGj4J49zljBoxgHff3d+m4amFjmdw3hFy9A8Q89D3UBdKMKUPInbKTObNPEru3y84fHbKbSKJP1hO1KAKLmbs50KZlSFhTzG7yjkfV7sM9MXbo+uF92orSqiqdbzxqpWbSM/CVnfsPdw1nIhJfrhrGqGx0fjsOUdJz0fZRalBTIo14laXRfrp63Q/BMz+tBCEQanmoVsBUVFQfKrxvSjio05hMhd0WzZD4gpmss7WY6JpzT0uOfvBomloFLD3g9cwJa7i+ZdfxPKzlp6XvlJXdYM6dLh66KHNYFAhhBBCdOWuC1Y0rYL8lE/JxzbMKnpk98GKpoUSXP0Wa/+cRb2modQ+in7wOvPDZxDhdYQTlbaejtz928nFNmE9ZM4k3M0pHNzdw4R1/5EEeWjoxz7B91+7j7NHtrJrTxpXG7pvBCmXiRjDvVCFB8i9hsMjoBwt76DYB4kcUk3OX95gc6otiFHqb5geW8UzMxK4d+RudjXGFJ6eN8ndu5EDp/ZxvrypF2U7Z77zbyyOjWeS736OlLXkPbgik79vP0x9+BDClvlT9s5GUirG4Tnh58T4BaGp8ygHG4Xu0XOI9K4jf/u/8+dDpbYy7DrEjBd/RRhVjl2s2+Ce+St5etqQLt8/8/EP2XjiNjVe6zI4dWw6Qyd4UnQkhbKej7DfkGlEjHKhxpRC9k26r7cOpM3cYWbxs4s4+P4WigjFaIScDfnNB5UW2n5uPx8FbD2tEQsmQ/oaNjdNlg9KYsUSA8feepU9LGLxM3EcfN/W22JJfo1txPVZACeEEEKIW3PXBSuOUuoGeV9kNU9i17Sr5OReZv4YH4b44/AQrDYu7GXbhxm4uA8mYHw8sXN/yPd83ubdD9Oo7qKBrpQHox/5DhGDKsjaup+y2zAR18fPH40SiksHMNRnQPPrlcVm6olkmJ8eLjQAUH3hCEcvgFJ6PL2H4ulm6zGovHoFGMLAwdC6BWytr6VB06CujnpqqakGqKO+HjSdCxr2dwq0lNeAhpk8UwlNDVZNFfPll2Zmh3TbjXZHFJ/YwJY89y7fr2icq3Q7aFo5OdtWk7Ot+YU+y9v33jiCdVWkf37ads/7KK2mpXCweBWLFpxiS+FCpmPhmGEaRgMY/MEX24pg4QnLCGMn77VailjTCjAlt8w/USqOxUujKP3ItmKYxlY27UpixcoXm1f/MiWn9Ol1EUIIIUTvfeODFaimtqbtK3W1tYAel1vcMlOrOMeX6ecAyEw5QsFTq1gc/S1mHE5jz8WO6ZXyIHjuj0ia7su1Y/+PHV9U3JZGk85Fh6aFEv+jXxPfyfuaTgfYghWl8yP84aXMmRrGMPe2m/gpde22TIN3d3cDrlPbbuWEmtra2/DpjrtxKYOsS3e6FP1LqXuIjr0H7foBMnJ72lvF/rRNigot+EQGUbRjO9sAU5pt2FdJYCI+hccxpWnNyxx39Z1RQXEsXppI2Ya2Sxtr5q2s3RDH4qV/JJ4MDm3Y3uOwMiGEEELcHhKs3CaadpOc9C+pjY4jMNQLLrbtslGaN2MfeYlF9wdTcWod//tJ1m3dj0EpM2kf7+B8J+391k/+A+a8wOP3G7iWuZNPvzRzo3H0ktu4BTx874COB4t+m7PiTHSjZzDRF8oOHOViT3urOJC2SUCgAWjsKelkueEmnQ0FA9uKX4sSAgEoa+yVaSsWXzIoLTaQ9JNXSQJKTZ9yaFfXk/eFEEII0f8kWOljSrkQOvMpJg09x4lPDlPSqtGk0+lsz5Ct1rbHuN7D1KUvkhDuQdHBtfxleyZVtzFQsTZYgQau5Z0gq6y7J+I+jA0fjkvZHrb9aRuFrcroPXQ2cHuClZqaWsAVNw/gRsvr7m5ut+XzHeVUc1b6gVI6xkyejLe6zIHPL9DT3ir2poXG3pCXlxGGbTK8MTquzfuth4FBEOEJ89sMBVNBccydFwsZ21m7GuauXA6W4x0CEBUURDyBZL//KpuCQ4mICqJkx/E+3dnebdBAXLFSV3P7hv0JIYQQX3cSrDiqro56BS56107f1rQGbnqOJnpGBPq8dD4xNU5Y1wYTNSUCV4q4eK6K5rkW3pHMX/Z97g28yVfbfse2oxf7dhPIHsoLUFZSjGIsYyMDObq3sHnC+4CR9zEpxIXC0wfJr9CAelucpXfHTU/TyDCUy3AiJwajbtOONmWlxSjCGBth4NgBC0rTUJo/EyYEgRNOsHemOStK6Qid9Syxw3XUnd/NjqOOL3DQgWskkRFeWAs+s2NvFQfSApo5hU1vQQDHsXTSw9F6GBiAKW1r44FNE+7N7P2gcXgYIT2cSCElgGYusA0D68PvodJ8iY0Zi2Y9z6XzVmTfICGEEMI+d12wonwjmT4pCNugG42AYYA+kPFzEjEA1OaTeTirxz0gulR/lkuXrYwxJvHEwpGUVDcA9RSeTia3sVei+OAmTke/RMzSV/FKO8XFazqGjruX8BAPEgUzngAAIABJREFUKtI38HkhoIFSnsR++wXuDa6nLPMkhR4RTJ0T0ebjrmR/xpdF1o7l6MPyVqZ+RsYD44iav5JlQSnklVgZaBjFmPDReBRt50+HbFlp2nVyMvOYueA+kl5wIzO3mAYPP4ZPDKMyN5u60FG9Lmbr++YWOgRwxT8ykftCAK5x7sgxChv3cKk5vZfMhIlMSlzJs8M/51xpA0PGxuB54xxWOozvueP6a86KLvBepk3wbfzNF389MGQ8cXPcaQAailJJyW6/989owuOnYvSu4ov0D249UAHco+9jrIeVC6nHqehpbxV70xoC8cEM2AIWSy8a95pWgMXs8GGdcqR+2ngQEJ3IfaNadrAfH+yKZc8mPu/FCn9CCCHEN9VdF6wQOIUHHroXfZuGUCgxiaEAqKrDXD6cRXkvs9c0C0c3foD3ooVMmPYQ4W46lLpJ+qVkchtXwdKqs/l07X9Qlvgo0WNnMM1LT93VAjL//h57D+U07t0CoEOv16Fp7vhOepDZkzp+3pmqPbcUrNhXXhM7/vAmJYmPEjUmjjijnrryYi6nbODgzoMUtZpXUHrwXTbplzB7ipHY2XrqruSTc+AdPrs2i5/GdVEIe3Ry30KmJRECKHUe66ljFDbOp9FqTex4bz01SY8wKeIB/G5aKPh8E38zT+PH450vWOkv+hEzmJMY3vZFv2hmJUYDUJNW3DFY8R/PCG/gSgons2u51VazUoOIjDHiWmciI6282/wcSet0HKifAJo2gBH3JTECsDZUU1V6jpObt7D/8/w+3YRTCCGEuNtpEydO/HrP7BVC2G3AjJ/yk0fHUbjzVf5nb/teF8epwfP4/j8/gc8X/81/bDjV7TLEDqWNXsFrkam83jyEq3OGxFXMLHyVzWk9BwBKhTB35XJ8TMlkF7Z7MzCWeGMhW1oteyyEEEKIO+/u61kRQnRKKRdGjhqJVv8lp45b6IueDb8pcQTrKkk7md7jfimOpAUoK+55DJefP1AYCti51HCxhez0TibYW4II9++jMWNCCCGE6DPSsyLEN4RSYTz8q58y/szb/OeHaXYFDEIIIYQQd5IEK0IIIYQQQgindIt7tAshhBBCCCFE/5BgRQghhBBCCOGUJFgRQgghhBBCOCUJVoQQQgghhBBOSYIVIYQQQgghhFOSYEUIIYQQQgjhlCRYEUIIIYQQQjglCVaEEEIIIYQQTkmCFSGEEEIIIYRTcvH39//VnS6EEEIIIXpn2NxX+OkLjzP44h5yS1WfpQUwJK5gwVgLWWeu91VxUdFJLI4ZTGmVjkFe16iq0Pos764YElcQV/U55+34LEOQ6rJMKnoFK+a7UJB2kSqtJY1SIcx9dikDiz+nuJfno1QIc1f+lHtv5JFV5Pj1VtErWDz/HrTi7F6VwZi4ilmDOn628ZlVzNJ6LlPzfc21XRvbtbqHm9pg/AOHt/0X8yiz+rheibuX/k4XwFm4TVjK89+dwaCKE2z7w3pybvTNH8/+yleI3pK6LsTdQ6kgomNC0MoPkpFTD3T9vbMnrTFxBYb0New1N71nwLd1HtErWBGZypb3j2PROh5vSFyBsc3xnQkkzAgHd5gxrnydmaZ1bE4uaMkjKA4/Q7en3UmWscQb4dCGNZg6+eyiHanMfPN15rz1apuyqaAQNLPtsw3RScxMmE+YXxHH2qVrEhBogGJzx3MPnkzYRAPsAlMXRWy6docyGl+ITCTeP50tq7c05heEj5+F7NP50Mm17YmWtpaDgat4fimUNOfZvTb3yz8ACvNRKpS5K5fjs3sdm04HET4xADLy6a5u2TTd15ZXfDBjSkvp+LmBifj6BwEFHd4Tor27Llgxfu+/SYrQceXQb1jztzwAlPIi7oe/48HRLph3/pJ1e4o7HOfqPYyBrjpcvYbh1YdXpT/yVR6zePr1Jfh//p/8/uPsvsnUns+95wleemkeQ7v5A6ga0tj6i7Vk9eIPbX/wmrmSlxeOaf7d2lBNZckZsg5s5eDJi9TeYjnv1L24FVLX7fhcqesdfB3rel/T+0Qyff5DRI67By/XOiqvmMk/+Tf2HP6SKuudqQe6UfEY/eDqwaMUqO7LYE/azB2phL/5R7710XNsTmubRqkQ5iZEgml7lw3hroKCDorNWLQCijaks+LlhRh3rMHUmKfFnILF3PlhhsRVLGIdbye3a+SmpWBKhtYNahUUR0Rz0BMEJRYwTMMYFcvjDxg49tarmKKWs2heOjkZZiyWUxxcvYXNmkZnDXOlQjD6Wzj0fsdgIiAqCvav6yFIAx9obrwbI5dRuvsUxEzDCBCYSFhWOtlNvwNEJvL4RDoETyo6icWBZrIL231AYTo5/uAXMw2/Nm8EEZ8Q2CGYa32/LE0vxiwkrDiZt9MKIHgyviU72XK600vSUWeBXDdphbDHXResAKjya7hOmso9289yUWngNZkwwzWu1gzr8pjKlLX84Ssf3GrKKK/uu/90+ivfO+LaFxz7tAqPxl/dQuOZET6IiynJnLna+KIqpOhOla8LSt0g/9hO8q6Dzm0IhvFTmLr4FUb6/IZ1O89jdZLG5u0idd0OUtdFO9qw+1n80ncZpS/mbPoBMssVQ8ZOwfjwywQP/T3vbcuh/jZfX6V0jJ48GW8KOXjiPN33qtiXVtNSOLg/kecjp0G7J+IBCxbis/sNWyO2C5qWQnbWMh6fN429H3R8ot4hvXkrhz6Ko6THlI7TzClkEkeEwfZ035QGSsWxeGUh7/1sDRZNQxkswCn2Np1TJ/fQNsRrIWQU4kMhlphpGIklPgEOrV5DJtOY+QCU7g/CGB3UeFQs8UsM5HQRtCkVRzjr2ZxWABRgwRa85GRswdQ6SExLaeypaZtHROR8yHgOU5qGUiEEkN8cJJjSOl4LFb2C+OL2kU3T/UqkpSMrlIhAW88ZmmYLwkzr7A9AhOgHd2WwQuUZ8vXRTBy1kYt5ikGRMQScO8uF8Cl4d3GIpjVQfb2Y6j4uSn/leydoFbmk7stt/t1r5iRmhLtTnJHM0bOt/pA53R+1aorSkjl6wVYu9dlu4n7wL8ybvZgpn/+GlKs9HH6XkbreM6nrojWlXBj/0BOM8izi+JpV7Cmot72+8wBFL/4rCdMfI3rPak5W3uaCuU4iMsIba/5u0ovp/sl3D2nbPKkvTOdYIRij4zD4A0zGGL2QcP9CsgtbGuThCcvwNb3RoZejJCODHI6jVCgRMUF0EGgA/yCM0XHN+YQlBPFeu6FLhsQVzCS1Te9BS3la8jVEJhJGMm93Ehxp5hSY9x4/DGwsZ0wsvsWpjje+/Q1gWcPmDxq/W0FBxIMtyIqJxXd/296epvctl2m51pZCypoSxMRStmtN85tKhWDwzyDbjh4MFb2CxycWcWyX7feIZ1/hcf8Mtq1u6Z0yRCcxMxKyd20h83IoEWzn7Q8K2mTePNwuIxmLYRoGf/ANDIJCmLnyj/ia3uCQP5QWB7W53uEJywgrXs977x+niFb3uOm+Jq7i8QcsbPuINve5NYM/0HGQixCdujuDFdcyzmQOZ27MBD47W0B4xAjyM/6Ka8SUNsmUCiHhn15hum+rrtXqFDb+ch1n2/0h85q5kh8/rGffmx9SN3cJ0yYMZ6BWQVHmZ3z6yV4KWz1JdiRfAI+QWTwwfxbjgn0Y5KmnrqKEojMpHEn+lHPlqjHPcB5Z9WOiB7Y6furLvDa15df2Q9x0XmOZkvgoUaODGTxIR831YsyZu9m35wSlta3LO4Vv/XY5QSm/58/noljw4FSCh7hQfeUCX+7ZyN60Qhp62SiztwwAbsNnMCthFmEjDAxys3LjmoXL6Xs4sL8lrVJjWfAvP2fUFxsxDX+Yqf6VmDb/nhPeT/OdBWHoLSnseH8Dud1MLtRUKampuSSMmsjwEB1cbZlkal8ZHL8X9uTrCEevg9T1pvJKXXesDHe+rjsHT+qKTpJ6LZfU/LrmIFXTSsk7W0LCCB+G+gLtghWlfIh8+ic8NN6dwn1r2bDnXJ/2brlH3cdYTysFp49T3kO+3aW1De+KomzDluYhQk3zLkxpKext/rn1MXGEJ2SQ0/FhPZa0tWxGQ9MKMHXSC6MsQcQboeS0bd5L85yGDudgwBdzmzxKAhMJ41Qnr3U9pChz107il07GsCMfv8BCDjX2GnSlfU9Fl4rNFDGNxZGFbOlkaFh3IgJT2du6ByV4MmHFqezVNAyJSfilb+l07g3Y5qa8ngagYUhcRTzreW+17Voan3mPx1nPe+9vYdPpUOY++zqP+1s4tmENpnZRUOvhdobEVST5a3xVaLveprSUxl4oC9m7jmMya40LACynbMNzvG7WQNPQaLnHilge9zdjSt6KKbkxqCpumbPSer5TCbGAPfNghLhbgxVNo+SLdOqeu5eRyX6E3ZNLxkf1RCW1T3iVMwe2cXMAgEZA7GOED+42YwLnfQ8/17NkHs5h4KgpRMR+m6WeNaxdf4QbzX+o7M9XDZrGY8uXMBYzX57ei6WiDtchowmPfYxvh3rxv2/+hYsNGlBMzoHtlOsBl1Ai5kxi4KUUUrJbOs/L81r+p1QeRha89COiBl7lQvpRvrrWgGfgJCJmLWdZqDd/fHs3V9v/YR2WwOMTBlD6xSEu6fwZExvL1KdeRl/5Csln63q87B3OzYEyKEMCT73wJIHVeWSn7uFKtR6v4ZMwzl3OqBEDePfd/W3+g9VCxzM47wg5+geIeeh7qAslmNIHETtlJvNmHiX37xe6LVtd1Q3q0OHqoQfqHCyDg/fCwXNzhP3XQep6G1LXv3Z13V4uA33x9uh6Vf7aihKqanteBas1Taskb+8G8my/tHnPy9sLKKOis14r13AiJvnhrmmExkbjs+dcnw13UmoQk2KNuNVlkX76Ot0PAes+bcSzrzCdnbx3ucNbneRla8izIIjsVk/y+41/u16UznpWOnlKr1QIATFBzfM2ckxm/GIWEe4P2THTmJOwzHbOu9t/RhDhCfObew56ClgCFgSRvcu+yextBWFQqvm4gKgoKD7V+F4U8VGnMJm7n3xu63laZ+sxaVx96/GJReTsB0tjILH3g9cwJa7i+ZdfxPKzzu+Xil7BImM6R00B+ARO5odLllP60atsIhZMqW3K7ONnIduOetIVH2xlI20tFglUhJ3uzmAF4OJJvrrxIuMeGEDA2VQ21boR1S6JplWQn/Ip+di6+aNHdt+A07RQgqvfYu2fs6jXNJTaR9EPXmd++AwivI5wotLxfHWjIhjpqTi3dTX/d/xm8+snM2cTFQIuA4AK2xO83P3bycU20TVkziTczSkc3N35RNdBsQ8SOaSanL+8weZUW8GU+humx1bxzIwE7h25m13t2jjeI3Qc+O1qMhqf1B46+SjP/3gBUdNj2HkmxeEngo6UwdPzJrl7N3Lg1D7Olzc91d3Ome/8G4tj45nku58jZS15D67I5O/bD1MfPoSwZf6UvbORlIpxeE74OTF+QWjqPMrB8tpbBkfvhaPn5gh7r4PU9bbHSF3/+tV1e90zfyVPTxvS5ftnPv4hG084HpB2RrlMxBjuhSo8QO41Ojbg6jI4dWw6Qyd4UnQkhT499SHTiBjlQo0pheybnXy2A2lNHzyPCVCEEhAd1G5idmutG/Jb2jR8lQppGQ4UmUg86Wx5fwu0m+htGzq2k1K/QPygZVJ3V4o760Xp7LW2NK0AS1pBc/6Zp0OYuzKRsg2vYjJrzT1GKnpF82eooCRWzDPz9m+fb8qkh8IFQbptmNXcZydjer9d0FJS2GVwmrnDzOJnF3Hw/S0UEYrRCDkbWnoaSgttP3fWy6NUCBELJkP6Gjabm4alJbFiiW3RgD0sYvEzcRxsDLYsya+xjc7nBamgJFvP0Oot+D07H5/CLax9C1bMW8Tc4lQ2pQcx1wAmMxAchG8359TEEJ3EzEAzBwuhjFbDwNoM/7PVpc6GEQrR3t0brFCAyVTDszPCOLv5fWrpOGbSUUrdIO+LrOZJlJp2lZzcy8wf48MQfzoMAbCHtbKSajS8g0YzUJfZvKJMRe4+DudCbx9f+Pj5o1FCcekAhvoMaH69sthMPZEM89PDhYa255efTlZ5y0c2mNM5e3UB03z8GQw4OtzdkTJUXzjC0QuglB5P76F4utmejFZevQIMYeBgaP0/vbW+1jZcp66OemqpqQaoo74eNJ0LGuDYs1PHy3Cn84X+uQ4gdV3qOk5X1+1VfGIDW/Lcu3y/onG+ya1SyoPRj3yHiEEVZG3dT1knDVtNKydn22pytjW/0CefDeB7bxzBuirSPz/d49BFe9O2b+B3xpS2tSlxh2ObAghDYCJwqvEJegoWbEHBa5GpvP7b523DiYzLMQQ3NoK/JnyipmFsmokeGAikYjE3DncrXs7zz5p53Y5FBaBxIYPiVSxacIothQuZjoVjBlv+Bn/wxbYiWHjCMsLY2WY+j6YVYEpumX+iVByLl0ZR+pFtMr/GVjbtSmLFyhebV/8yJad0uGe2eUqn2NzYM+NHBmUW26IHazPiiDh9HJgGUaGQVgCGQHy6me8TEAhMTGRmhm0pakNiIqUZa5oXDGgeJtY4LKy5LgnRg7s4WIHCA+/ylzMeXDl3s4/OtJramrav1NXWAnpcuh510L28XRzIjiIx7iVenlzF9SulXLNc5NLZU6SmZFHey+UwdS46NC2U+B/9mvhO3td0OqBtA85aW91uNZtLnPhgNTm6q1T0cxmUzo/wh5cyZ2oYw9xd2qRT6tpt6SzurzI4w7k5Tup6f5XBGerD3VzXb1zKIOtS/36GUh4Ez/0RSdN9uXbs/7Hji4rbutiCUvcQHXsP2vUDZOT2tLeK/WkdKkNQHBEc73JeRXc0rQBLcQDhBuhmqolNL4eB2coYQoShZXiXD0DUNIyGWOKXRFL60XMcDLR/Q5ey9JbzVZYg4ue1vFeUnk7Zy7EY1XG7h8YVFVrwiQyiaMd2tkFzsFcSmIhP4XFMad3N52k6xzgWL7X1GLVedUwzb2XthjgWL/0j8WRwaMP2NsPKlAohwLKleXlqFZRE/EQDOY2T9rW0FNt5KDP4T8ag8iHQQFknyw037U/jSxFkJTeucAZ+/lCWbtelEKJbd3WwolWZOd/0xNZJz1TTSjm9/jUKwmIYN3okBn9/fIJjmR4xgykx21j/djIlvWzEKWUm7eMdnK/t+J49Txc1rYGKojxb462X/xHbW4aAOS/w+P0GrmXu5NMvzdxoHKXhNm4BD987oOPB/aC/yuAM5+YMpK7bOEN9uJvren/MWWlNad6MfeQlFt0fTMWpdfzvJ1m3vIeNo3SjZzDRF8oOHLUtz3+LadvuR2IPW2Pfh0QMPe2n0oWS4iJ8Axuf2HfJQmlG2yFfRC7Dp93yviUEYbF0nKytmQuaG+hKhWBIiIL045jMKY2LBWgYAluGXN2Sy2ZKiXKotyigMVCy9Up1na6rCf+G6CQWJQQCUGZo1evTLBZfMigtNpD0k1dJAkpNn3Jo1xbbdWl1jCEyCp+SdCyN+9DEGwsbN6sswFS8EGNwKBgDKN3d9lopFcfMJfPhozdYy0Jei2wps8HfgoVFfOsZyM4wtx0GFplIfBcruAnRnpM24b9ZNK2astxjHM89BoBSnoxM+iXfnT6b2BHJ7DzneJ7WBivQwLW8E2SV3Zln9/aWQSkfxoYPx6VsD9v+tI3CVn+QvYfOBvq+keM2aCCuWKmrqe/XMtyJc3NmUtelrve3/pyzolzvYerSF0kI96Do4Fr+sj2Tqjuwt8qYyZPxVpc58PkFetpbxZ60mjmlQwPbthJUIuxe1/ykvEVKq8Z1786/KD0dGlfo6mpYkSV5LZsBQ3QcnLYtk2vwL6Ks3Tg1S9rWLidr284jlrIN220vGKYxJwpMO2zzOW7p6b9/yyR5TUsh+yNaepoMgfjQyVJpNPaGvLyMMGyT4dsv7dt6GFjzPKFWQ8FUUBxz58VCxnbWroa5K5eDpWMvl2355ECy33+VTcGhREQFUbKjZdEAS9MQPRVHeIKFbatt85AMgYltNv4sKoRF8xaCXwaH2i2trGkpbP55Y8AR3erDG1c320MQ8f5NK781bdzZNFTwazQGUNxREqzcYd7GR4mf4Mb5A/9HVontaZ+m3eTKtUpgEPrO7lBdHfUKXPSuXeZbVlKMYixjIwM5ureweQLugJH3MSnEhcLTB8nvZsnTvmB/GeqxWgG9O256mkfsKJfhRE4MRvXxzh1K8yU2Ziya9TyXzlux/eXtZRl6vBe399ycmdR1qeu3Q3/NWdG8I5m/7PvcG3iTr7b9jm1HL/a4CaRSOkJnPUvscB1153ez46jjiyF04BpJZIQX1oLP7NhbxYG07UQ8a5srsc3SaqJ3cD4WB3pRbBPBbQ1k2waqQRgTkzAAlvRT5PAKM2O2sDkNVLRtjkRnQ6iKTsPcZxfBLgjzs3DIgdWoAhYkElaczKrLMBfAcpw9vMhrK4N4b7WZcP9bW92qNVOanfNVzClsegsCON7p9Ww9DMyWb8s8IVsvi7nVhpshPXyabUJ8cy9TJ9c3YEEivqZ1mDTN1lNitHBodaulmE+nUrpkGb7737B7iFtAVBSlGVuARXalF6I73+hgRflGMn1SELYBAxoBwwB9IOPnNO7mWptP5uEsh5fadCTfiusaw2MTiBw/ijFp2ZTdVLgPG8OE6FGo68f4srNVSevPcumylTHGJJ5YOJKS6gagnsLTyeQ2PtWtTP2MjAfGETV/JcuCUsgrsTLQMIox4aPxKNrOnw717po5wt4yaNp1cjLzmLngPpJecCMzt5gGDz+GTwyjMjebutBRt1gSDwKiE7lvVMuu3uODXbHs2cTnjSv49LoMPdyL/j83+0hd719S152nrvfHnBWlPIn99gvcG1xPWeZJCj0imDonok2aK9mf8WWRtd2RowmPn4rRu4ov0j+49UAFcI++j7EeVi6kHqeip71VHEjbmopeQTzref23KTS14jWtgCLDi6yYZ9snw56leiOeXU54cTJlz77OIn/IMaVSsqMlIMncncFrCYswnN6CX2BQl6tMaVoKe3YlseLl+eBAg1mpEIxGC9tWHwdCW944vZ1jCQvxiwnE17S9/5ZfLja3vU6GQHwaexM0c0qvlu7VtILmvVH6StGOdWwJDmLOM8sJmxgAWTspCaa54yMgJhbfkiIwdt8T1qTpumfvAIL7tqzim+kbHawQOIUHHroXfZsvXigxibY/aqrqMJcPZ1Hej/mqi5+w4b1KZiXcz+gp8zF66Kivukppzi727fwreZ1soqZpFo5u/ADvRQuZMO0hwt10KHWT9EvJ5DautKNVm9jxhzcpSXyUqDFxxBn11JUXczllAwd3HqSoh3HOfcGRMpQefJdN+iXMnmIkdraeuiv55Bx4h8+uzeKnt7iQm6YNYMR9SYwArA3VVJWe4+TmLez/PL/NErW9KYM996I/z81uUtf7ldT1/j+3O0uHXq9D09zxnfQgsyd1THGmak/HYMV/PCO8gSspnMyu5VYf3ys1iMgYI651JjLSWi1nd4tpWzNEr2BmYNNu521paWvZEriK51fGttktvTM+Dywnfv86thQuZBHJLQFO62NOb+dYwissWmAmx58ugxWlQoiYF4WvpqGMCzGmr7FvYn/MQnx2r2GvprVZMk/TCtizIZW5S2Pb9iD0oONqYJ0P8wLbfJTOJqM7I00roIggZvpDzkdvYGIhi15+nZy3XsUU9TqLjOlsWb0GFrzO8ysD2bah7fVvmlNT1PRC6+sOQCDGdktYyw72whHaxIkTez/TUAghhBCdGjDjp/zk0XEU7nyV/9l76y0zNXge3//nJ/D54r/5jw2nul2G2JG0TQyJq3jeCDnFFsCAr3/Le6XF6ZQ1noKP0bbXSlfL9NrySW+z3G6X5Wyav1Gys0N628aOC1m0JBKydjbu27KImQnzCSODY6ZULIVmStqvtXw5nyJCiYixrbBlm4g+Hx+/DLY1boxoSFyBMX1Nm8UBmpdXbndeTTu302rFLRWUxIqlNE5Ct71mCIpj5tJEfAnA11/jqw+XN6+21V3+nV2/mYWvtjm2y+vXWDYfUzLZ7WOnwNYT5btaXCGEiHkLCS9O5WCr+SxN82J8Mra3mbNkfGYVScZASos/5dCGLc0720csWE7S7EBK9/0POcDe5JQur1PTOS5ineyxIuzyze5ZEUIIIfqBUi6MHDUSrf5LTh230BeTIvymxBGsqyTtZHqPwYcjaZsU7UgmxxhLWcZ2TJau56eowkBWBHbda2BJfo330pVdQ8U0cwqbfmZm7sqF+AFFKoSAmMnMjIzC1x9KTclseWuNrSyaBmlb2Zy2FUNQHMaoWMITWoIDpQo59tar7G3cvb1pEQBL2lbWWsxEGMy2QCU6Cb92gUqTsi5iSospnZLWc1sun2LLhrZDoizmFDatNjN35XJK963rNNiwp7fFzx8oDAXsbMgXW8hO72SCvSWIcP/OP8+2iedksJzC9MFaTNDcw2SITsIYaMb0/poO99D0wWuURIfA6fx2+768Rkl6CEVAwOW2vVWlnZ1zYTo5nazgJkRnpGdFCCGE6GNKhfHwr37K+DNv858fptkdMAghhGhLghUhhBBCCCGEU+rtXtRCCCGEEEII0a8kWBFCCCGEEEI4JQlWhBBCCCGEEE5J7+7e9U6/nqH27+ZzM/9yX5RHCCGEEEIIIQDpWRFCCCGEEEI4KQlWhBBCCCGEEE5JghUhhBBCCCGEU5JgRQghhBBCCOGUJFgRQgghhBBCOCV9TwkmPpHPf82to7zMHdPJYby9fQDmBu12lE0IIYQQQgjxDdZjz4rOxYqbm8I3sJpZCy/z5hPVuCp1O8omhBBCCCGE+AbrMVjJ3DSS+58byT8ddANNI2RGObG3o2RCCCGEEEKIbzS75qyoBj2H0jyoUgrcFQP6u1RCCCGEEEKIbzwEzu58AAAgAElEQVT7J9i7W/EAqNao7LfiCCGEEEIIIYSN3cHKAE+Fi6ZBtQtV/VkiIYQQQgghhMCBYGWgR4Pth1qN6v4qjRBCCCGEEEI0sjtYuVbqyg2lwO8Gs0c34IqsCCaEEEIIIYToP1pMTEyXUYdnaHDzz4o65jxl4R+m3iRooELTbHutZG8ewfM7XbmZf7n/SyuEEEIIIYT4xnBoB3vVoKOmVkMB1jqorYM6q2wQKYQQQgghhOh7Pe5g38R9SimvJFTiXjuAd14LZOMlHVZNAhUhhBBCCCFE/7C7Z8VrcD3umgZXPDkhgYoQQgghhBCin9kdrFyvcrH94NHAoP4qjRBCCCGEEEI0sjtYqat04aZSMNCKd3+WSAghhBBCCCGwM1hRNDBhdA3uAHUaNf1bJiGEEEIIIYToeYL9xCfyWTOvBle9Bmhc+WIg2behYEIIIYQQQohvth6DFZ2LFVedRuVVV75KH8Y7Hw+kQibXCyGEEEIIIfqZ3ZtC9kQ2hRRCCCGEEEL0JYc2hRRCCCGEEEKI20WCFSGEEEIIIYRTkmBFCCGEEEII4ZQkWBFCCCGEEEI4JX1NTde7ptTknruNRRFCCCGEEEKIFtKzIoQQQgghhHBKEqwIIYQQQgghnJIEK0IIIYQQQginJMGKEEIIIYQQwilJsCKEEEIIIYRwShKsCCGEEEIIIZySBCtCCCGEEEIIpyTBihBCCCGEEMIpSbAihBBCCCGEcEoSrAghhBBCCCGckgQrQgghhBBCCKckwYoQQgghhBDCKUmwIoQQQgghhHBKEqwIIYQQQgghnJIEK0IIIYQQQginJMGKEEIIIYQQwilJsCKEEEIIIYRwShKsCCGEEEIIIZySBCtCCCGEEEIIpyTBihBCCCGEEMIpSbAihBBCCCGEcEoSrAghhBBCCCGckgQrQgghhBBCCKckwYoQQgghhBDCKUmwIoQQQgghhHBKEqwIIYQQQgghnJIEK0IIIYQQQginJMGKEEIIIYQQwilJsCKEEEIIIYRwShKsCCGEEEIIIZySBCtCCCGEEEIIpyTBihD/n717D4vquhf//97DRVDBC5dhRgPxFhS5YxSMRY1iDMYmalJbY9PE2rSNSZ6kN8/5NeacY9pzjm1ycvp9NM3X+lXbY2NjjprWSIyAitcxioAMGFCMoA4Ml6iAitzW74/hfp1BEGI+r+fJ82T2XnvttffajOsz67KFEEIIIcSAJMGKEEIIIYQQYkDqcbAycu4bvPH7d1k40alX0wY/v4o5Ef49LVafUcqfOb9ay3d6WDYVsYrvPL+YYKNy/FjjYr7z/GL0SrXYFs2c+J7fJ2VczEu/6ll57D6HimbOr1Yxp5Nz6OM739cubR+Ws9V54tfy0vPRre51W0r5d7lfCCGEEEL0DueeHKSUkYhIf7TyFDJyagGtd9IaFxM7WU/O/vwu07U7LmIVq8IKOZxhsSu9PiyeQBLYueUEVk1rkUcqhzMaEoXFE+ubzs51OxvSGPHysZJ9Jh80+8vWSEvbQIphLS8uh5KmPO3jFx5OIAnsaHGMZjFhnbeRl+J/w3sJBXblE/z8WoKKE8guBH2YgZzEVNDHEKxvSGCIYtFsPcffXUOypX35VMRilhosZBe2zzsoLp6ybW2PswBRWK/SYXUW7U1l5ttvMafN+ZTRH81iuyZ9xGJmxs0n0KeoXbn08auYSWqH5elQWDyxbeq91fUZF7NkNpQeBJ/IGHw6zMRIUNx8AtnHRgfrUQghhBBCOKZHwYpubCzBPnAt5RgFquvGmiNpQ+bNh6x9WFs2oBt0FGC05IUFc5qp9THxa1nCpnaNeXOaiWRoF3R4NewDCA5bQWniaYiMIRjAEE9gVjrZjZ8BwuJZNJl2jehOG/WF6eT4dtQQNhIbZ+DwtvWY2wQJSvkTHOxHTuIJ2rb4MzMyWLRsIcF712O2q9HshzcWzGkF7e4VgLIaiQ0uxNxJcAEGAn0t7Ehofyxh8ejbb21/DmM0IU0JjVBitQVM4c2Bkjl8JUvmpZOTYcFqPU3Kup0NgVrbQumbrsceekM8YOk4UFH+zF0eTukHa9iR1vW9NKftsv2PBCpCCCGEEH3K4WBFKR3jpkzBk0JSTn5J170qDqSNWEUsm3lvaweNaONiYif7UfpBx4FKb1MqmiA2syOtACjAii14ycnYibllQzbNhBloe10hYfMh40eY0zSU8seP/KZym9M6OF/EKmKLO+keGDWFQPax80wAwZHG1vsMUJZV2CKgiiJ2tp6cTnpG7pXg59eiz9hE0pn2+zSLiUyiCdHbgktzmu1+L11dyMZfrMeqaSi9FThNcmMQcg/qPOSFlXglJlAWtoRgOumhM0QRG0yHQaUQQgghhOh9jvesuIQSFuJJfX4i6cV0PVrLzrRKRbM0Dg6vO9GuYWr7xXs+HPxNt7943xVrIWWN/x8ZRdn+9U0FVsofvW8G2WfodnSailjFoslFHN9v+xzywhss8s1g97rm3g99xGJmhkH2/p1kXg0ghD28t7Wgw8z9wsMpTVyDVdOwtu1BaAqWWnxOoOtC+k4hOMLY8T6DAehmTJWvkeCI6Hab9b5tNljzgYAOs9AsJpi3kZcMDUPYIqPwLk7tlyFVSvkTsmAh+v1r+PBqDEuXGbBu2dlhT5Wt5wlKOu15EkIIIYQQvcnhYGVQ+CNMcK+n4MwJyrtpXNqTVqlolr4QRfa2PehXv0WQeRM7GoZtKeXP3NVvML14M2/ZOS+jN4QYUkluGRiNmkJgcSrJmoY+fjE+6Ts7/WVdS9vAW2kAGvr4tcSymY3rbD1Cwc9vZBGb2bhlJx+eCWDuC2+xyNfK8W3rMXfQ+lUqmpmz/fDOioGGYVv6iOhO5lJEEbssjNIPftR1UFd8utNhU42N8S4VNw+3azXMzhDVzYGtZe7fR+zyKej35uNjKOTwlvaBaquytemhar8/mqUvGMluNW/JSFBcOCRuaugla88v0kiJ3cPohBBCCCHEveRQsKLUUEKjgnGtySL9zA26HgLWfVqlopn7gpGULbbhP5nrElj69krmpK8h6WoAc1e/QWDxZt7qYGhYOx384m/7tb91T0Lj3JeOhps1M6JXqqlh7BceDsWnG/aFExt+GrOl6+DJNvl7k63HRNOaelxyDoJV09AoIHnrm5jj1/Li6y9j/UX7BrPfgni8S4oozWier2JNM2Ht8IymhiFm3TS677ZnpY3SQttiCOaEDd2eWyl//CKNTcFWjtmCT+QSgnwhOzKGOXErmM4+Nia2LWfDpPbizWzsZM6S7dqg5EyLRRNUNEHLDF0uimBNM7XZp0cfGdNx/j24P0IIIYQQoucc61kZHkPIWCfumE1k36brtqkdaf1GWUje2txY1DQTKe9agBiWrl6Bt9n+la5a/uLfqGkifQslhngCO5uT0CBzr4WlLywhZctOigggOBhytjWvUNbYQO/o137bsKIpkL6eHQ29L8q4mFXLbJPHk1jC0uejSWlodFsT3mQ30ZS0KYNS0cz0TWCnOZ6Z9t0B+9xlz0oZRubER2MttAWD3tjmy+jD4vHK6LwHA0DTCrCmFTQFW5ln/Jm72raKmNmiNdWXiljVVE5lXMyqeRbe+92LjZk4fMmOsWI9c6LLYWBCCCGEEOLecChY8X44mlG6m6R/foa6bhqN9qS1dtA7UcQUVr0eTukHv+E9O1d56m2aZiKleC1LFpxmZ+FCpmPleMMKZS0b6EFxK9otYatpBZgTmuefKBXN0oZVppItGhq7+HD/YlatfrlporY5oe2v+xCywEjKlp2wIL5pW9ueidYah4H9psuA4W74GWzLeAX6WkhOMFFiiMer8ATmNI0SQzwzcWzJ6YFJelaEEEIIIQYKu4MVpR4gIuoBtBuHyMjt7t0q9qdtPiaapatXEOhTRM7BBLIxthmu1Dj/oPulZXtDUaEVrzAjRXv3sBuaeiNaNtCbenI6m0dhjGbp8vbvH9Esu9iwLZqly/9ELBkc3ran1bAyZfSnZK8tAGq5HHDbnonWTB2uNNbOXQ4DKy0uxLvtZHoHKKM/Ifrm4V1eAOExBOub59ykGOxZBLkjBoJbLQttxNuBo209exC8PJ6gDua5qDMWStI7nzcjhBBCCCF6l93Bim7cDCZ7Q9mhY1zu7t0qDqQF0EesYkmcHjp48V8jpfzRx4XTSUu901Wq2p3LFyjuNllTL4KmFXQZBHQ28VsfsZglcQYAyjp4bwxE4U0GpcV6Fv9sDYuBUvOnHN6/E7OloNMGcVcvQgyKi+9yMjkUUZrRMLxK+RMSCSVnmsuurHT5rhQfXyjL4K6CFc1S0BSYNdVp+gnMluY5N3pD81A7xxRi7mDOikPC45nuAzkGI8G0CeoaXirZ9XwnIYQQQgjRW+wKVpTSMX7KFDzVVQ59fonu3q1ib9rmJXz3sGEdzF290tHyN+tgzkpHL4UsMUTh1UXngTJGs/T1FQRimwzf0aT9xmFgHb3NXBmjmTsvCjJaXJP1RPuXPRqNxGIge8saPhwVQEi4kZK99rxHpuMXIdoa/jQsGdxxHuatb5IZsYpVz6eyc8sJMnmZN99ufmO9ZjGRbKHDniLbu2fSSbFCYDcl7I6tFy2Ksm17Gi4phjnhYG64fh9fKEt3NFcLKdtav/BR00zs+GX7IXadlsu4mCXB6Wz8xWl8IvNbvVNHGRezarIfpR90Pd9JCCGEEEL0Hvt6VlzCCAvxoL7gMzverdJ9WqX88RsF1rRd7GjqtfB3rOQ9ZE3YwI4u9msWEx++C36cwNpBD0/LYWDQ+m3mtl6WhkUDgO6vqZASWvQ29OHwouCI6KZgzouGFcnSNrA7bC16PWCxDdHyu5qPz4KX0RfuaX4pI0BkFGSsp4glHebv4+vXYgSZtdMOMLCtchZYnMDaqzAXwHqCJF7mzdVGNq6zEORrJdvBd5loWgHWu4gjlIpm6TzY2RB0FlljCDHagkxlXNwwj6qbZaGFEEIIIUSvsitYGRTxCBPc6rmUeoKK7t6tYkfau21Y9gm9Aa+GVcI0iwlrDyaKD8jrwtYrEBtm6XA4m3nrm03vePELn4LP1Xwy96YS9PYbzS9tBEIMhaTsBUa1zSGA4OdXtnoRpnlr58sYK+VPcLCV3etO0OqlkWf2cDxuIT6RBrzNe+x/70lXc3Da6GwIoFL+zF0AKVtaLJRgMVES/zIvzdODr5XD766Rt9YLIYQQQtxj3QYrSg0lLDIYlxozGWnldPduFXvTdsYrvKP5HdA4Gbuso13fNB020Du+P7Zegflw8Dd2ZBxOUORpzGkmUg7GN/WhKGM0+sLGt7pbOLy/+b0vkE/mlk2UjMrvsCeqnciFeCWuJ1nTQDVv1rQCkralMnd5FIfXdf5elHa6WIq5Lduy1e1pWgHJCc09W7ZV1xayZHYYlBQBoNcHdPtuHSGEEEII0bu671kZPp2QsTqqzp7gXLfvVnEgbTtGvHysZKe3n98BtgYkBgslHQwP8jPo7X4ppI1t5SkOOvAel7vQYQB2N8vgdtBAb5qs3oZm2cXOd083LxNtLaRs8grW/Cq+TWDjh5ePbZ4OaWBNeJP3mvIwNS16oFlMTT0xTefQCloFKo3zdgJ9w/DyyWB3izKGsIcdaVrDAgTzbfsb6tQvPAq2tXk5Zoser/aslDpyCwvTOdzFnB5l9CckfCGxs/WQlcDOd9djtTTOQ1rJm88aKC1Op9RcSHahrUwtX0IphBBCCCF6V7fBis/UaEbpKkk7ld7tu1UcSdtW02ToThqSTe8v6SjfQis5tG/Ad/RSSJuOl/ktK+5+DJePL1AYANj7ssqOAzBlNRLka9/5ylo0yIvSN/FeB7/wa1oB5m1rOuzdaPk+G82yi/d+ucu+snfLSlkHk1M0i4nkrSbMEYsJtu5sCj5arqxmTdvFBquFEL0Fs2YLXnzS13e4ElxZJ6u3dTf/qF36tF3thvfpjdEEh0fh5QsUp5Kdvp73EhrTNAdoyVtNJCl//CKnMDMsnNjgcHK2rbF/uJoQQgghhHCYNnnyZNV9MiGEEEIIIYS4t3T9XQAhhBBCCCGE6IgEK0IIIYQQQogBSYIVIYQQQgghxIAkwYoQQgghhBBiQJJgRQghhBBCCDEgSbAihBBCCCGEGJAkWBFCCCGEEEIMSBKsCCGEEEIIIQYkCVaEEEIIIYQQA5IEK0IIIYQQQogBSYIVIYToI0rnxtCR3gxxVv1dFCGEEOJrybm/CyB6xnXScl78/gyGVpxk9x82k3NLG9D5CvFNooYGMfuZpUydaGCQror0za+w51x/l0oIIYT4+pFgpZ8F/+D/sjhEx1eH/5P1/8gDQCkPol/6PY+Nc8Ky79dsSipud5yL50iGuOhw8RiJRy/WYl/kq9xm8dxby/D9/L9556Ps3snUnvM+8DSvvjqPEVrnAZeqS2PXrzaQ1UWae8k77k1+Os+ZI++s4VBRc5l0D7/Mr7/zUEOjt/fKOiT2V/xsoQ+n/vgL9l3seb69XceuMa/zT0uCmvNX9dTevoY15zCH9nzGxfK6uz5HX1HKhaBFP+Zbk+7w5eEdnL1aRsmV/i6VEEII8fUkwcoAoMqv4xI6jQf2XOCy0sBjCoH661y7M7LTYypNG/jDF1643imjvKr3Gq99lW+/uH6W45/exK3ho2tALDOChnLZlMD5aw0bVSFF/VU+0SWlqprrSnPGzeshgiOfYtkYPdvf3kzegH0+DYwyuoNlP3v3JHJN04CBWlYhhBBiYJNgZSCoPE++cwSTx27ncp5iaFgkfhcvcCloKp6dHKJpdVTdKKaql4vSV/n2B60il9QDuU2fPWaGMiNoEMUZCRy70KLxOEB6VURbNe3q6uSlV3jpmRjiZn5G3meWfixbV2qoqwOcnGVSoBBCCHGXugxWlJrAgn/5JWPPbsc8+gmm+VZi3vEOJz2f43sLAnG2mti7ZRu5FS2Gq3hMYGr8k4SPG8WwoTru3CjGkpnIgaSTlFa3bhS6+c9i9vxZPDTKi6HuztRUlFB03sTRhE+5WK56nNZ19Axmxc0i8EE9Q13ruXXdytX0JA4d7KgMjzL/qccINHqgKi1cOPIhn9yYwy+fHUdqm6ExjlybQ1zKOJ85mrmRk/jsQgFBIQ+Sn/F3XEKmtqkPf+L++Q2mezefS1WZ2P7rTVxo0+D2mLma155w5sDbf6Vm7jJiJo1miFZBUeZnfPpxMoUtfpV2JF/bPeu+LpQK4ttrXyNiSIvjp73Om9OaP7Yd4mbv/VVqKt/53UqMpnf4y8VwFjw2jVHDnaj66hLnkraTnFZIXQ8DEEfq2J7nrCd/Q/ZqquPf/YWqOcuYHuSPh9NNirMTSdi1H8vt1nk6+Uwl7umnCAkYge6WlUsndpBc1fHEb/uure/quDMV5iyKnglhtH400Bys9NX3Ts9UcrsKGD6EwUBZL+QohBBCfFPZ1bOiBUxkWN5RcpxnE/n4D1CXSjCnDyVq6kzmzTxG7ieXAFBuwSx49RXCh1zjUvoxvrheh7shlJBZK1kR4Mmf3mscEgFqaAxPrVzGBCycO5OMtaIGl+HjCIp6iu8GePA/b/+Ny3U9SKuP49mfPoOhKo/s1CS+qnLGY3QowXNXMvbBwbz//kHKG8vgOYunf/xdxjhd49KZg1y5oTE89PssKCttdw8cuTaHaRolZ9Op+dHDjEnwIfCBXDI+qCV8cduE1zh/aDe3BwNo+EU9RdCwLjPGMO8H+LhcIPNIDkPGTiUk6rssd7/Dhs1HudVUXvvztb8uisk5tIdyZ8ApgJA5oQy5YsKUXdKUV3leZXO+Pbm/I+NYNGkwpWcPc0Xny/ioKKY9+zrOlW+QcKGm29ve7toceX4deM7A/r8hx+kwzH8eL10eWccu4O4fSUj4M3x/aA3vvX+Qisbyuk4m/icrCR9aweWMg1wqq2d44LM8evNauxztv7Z7UMdtOPn6MAy4WX69R/k68l3Sc7epuQO4OON0lzkJIYQQ33R2BSvDKjL5ZM8RaoOGE7jCl7I/bsdU8RDuk35JpI8RTX2J0jSGRj1G2PAqcv72G3ak2hopSv0D81NreX5GHA+PSWR/Q5tMNzaEMe6Ki7vW8b8nbjed61Tmo4T7g9NgoMLxtO7ut8lN3s6h0wf4srzxF+A9nP/ev7M0KpZQ74Mcbfip0zdmNmNcb/HFB7/hozRbBmr/Qaav+leCudXqHjhybT1y+RRf3HqZh2YPxu9CKh9WuxLeJommVZBv+pR8QCknIsZ0HaxoWgCjqt5lw1+yqNU0lDpA0U/eYn7QDEI8jnKy0vF87a0LTSsl9+AecrFNvvafE8ogi4mUxI4nX/fk/no+qOPQ79aR0dArcfjUk7z42gLCp0ey77yJegeDR0fK4MhzBvb/DTlK0/zxq3ybP+76gjpNQ6kEzj/7FksjZhPld5BDVlu6QRFzCPOsIX/Pf/CXw7ZgXO0/zIyX/5VAbrbK095r6/s61nD10DPCC9CccfcJInphLMNVEcdOn+9Rvo58lzhC5z6CYYNdQOeMm3cEQaPhVt4XMh9KCCGEuEt2BSv1tdW2YTU1NdRSzZ0qgBpqa0HTOaEBCvDy8UWjhOLSwYzwGtx0fGWxhVrCGOnjDJdsq/jUV1ZShYancRxDdJncrLc1iipyD3AkF1pOSHUkbdWloxy7BEo54+45AndX26jxymtfAcMZMgwoA6U0fPXeoHLIySxvykNTJXzxhYW5AcNb3QNHrq1nCjCb7/DCjEAu7NhCNdF3kZeNUrfIO2sLVAA07Ro5uVeZP96L4b5AZdfHd8SRunBET+6vyk8nq7nqqLOkc+HaAmK8fBkGtO8z6L0y2PucNbL3b8hRSt3kUtYXTcPeNO02F7IvUBcRjpefDqyq4dr0aFjIM5fQ/KwXc+6chUf9W0emjl6bvRytY00bSuizvyW0RR51Ny+TtuN9Dl2ub5pr1FffO44YOeMVXnrsAQBUXQWFadv5n/89SZXMhxJCCCHuSq9OsNc56dC0AGJf+S2xHezXdDqgoTGSt59D2eHER7/K61NucuOrUq5bL3PlwmlSTVmU17f4R96BtErnQ9ATy5kzLZCRg1oPwlDqeoumiA4XFxeor6a6hlZtlOrq9kOIHLq2Hio89D5/O+/GVxdv91LNVFF9p/WWmupqwBmnns78daTeHNCT+1tfXdUUiNlc4eTWdeTorvXkx3GHymD/c9bX7lBd3XpL3Z0q6tDh6uYM2J7lQYNcgRtUt1k54U7bg+m7a3O0jpW6xcXEv5JeDO6TFvJ4pCdZO/6DT7JqWi2K0GffOw4oP/u/7CwZCporQ/QRTJu9iMcLc/hzykBdBEAIIYT4euj11cCUspD20V6+bN8GoqKgtun/Na2UM5vfpCAwkofGjUHv64vXqCimh8xgauRuNr+XQEm95nBavzk/ZdG39FzP3Men5yzcaog7XB9awBMPD25Rmnrq6xVoOlvDvcXP2rpOfg2199p6Srtp4cvGX3cH6DptjtSFo+72/mpaHRVFebZApYe/aNtbBvufs6+fvrw2x+q4jmsXT5J1QUPlDSYobBmTYmeSZE6ksk399sX3jiOqrdlkWRvLko5u3H8RFzMDw6EPKZTeFSGEEKLHerVJXF9XD9RxPe8kWWXd/wOtaVWU5R7nRO5xAJRyZ8ziX/P96Y8S9WAC+y46llYpLyYEjcapLIndf97dqpHgOeJRYHCL/BTXr10H3SgMo3VkXW5cxcoZwyg/oHXDydFru585Um/2Ggj3194yOPKcOepO9R1gCM6DWm93dXEF6qhv13k3CFfX1lucXN1xop7qquZn+M6dasAFVzdoOR1rUJuD+/La7qqOy49y8uyTfCdiDjEPHiAxv77H+fbF89taNbU1gLs77neblRBCCPEN16uvASgrKUZhZEKYAU01d1UMHvMI0TNjCfBo3uYZ/CRPPPMMk31arJik3ear65WAC84twij709ZSXw84D8K1xfHKaTRhk0e1mxNw9Ww615UPU777Q6ZNHofeOIGguJ8wxdB+EJEj13Y/c6TemtTUUKvAydml03wHwv21vwyOPWeOKLcWcYfhjJ04qqkMSnkQOCkAVDFlbWZsa9oQHpw8EaemtIMJDB2PE1bKipob9GWlxShGMSFE35yv5sukScY2JejhtfVxHWtaLbmHj/AVXkQ+Go1bi+P76nun54bg5gZUVXG727RCCCGE6Eqv9qxUpn5GxuyHCJ+/mhVGE3kl9QzRj2V80Djcivbw58PNaStuaIyOiiNs4ljGp2VTdlsxaOR4JkWMRd04zrlLjqfVtBvkZOYxc8EjLP6pK5m5xdS5+TB6ciCVudnUBIxtVd7avI/5+2d+LJ43lcdemIZS9dzK/5S/n3FlXHzr30Qduba+orzDmB5qbIgwNfxGAs4GJs6JRw9QnU/mkaxWS+b2dr6O1FuT2gtcuVrP+ODFPL1wDCVVdUAthWcSyG34JXwg3F97y+Doc+aQnP2cuDKNWXN+yQpvE3mltQx98GFCx7tTmZFExg1aza9Sqpgbvsv40fM55BTdYciDUYSM96D6wl5Si5rT3jmTTGbcZELjV/PC6M+5WFrH8AmRuN+6SL2tlu/u2u5BHddfTuLUxTgemzSPqX7HONww7Kqvvnd6bgiD3IGqW/fFy1WFEEKI/tSrwYpWZWbvH96mJP5JwsdHEx3sTE15MVdN20jZl0KRajER/vLHbNtYyay4bzFu6nyC3XTU3rxGac5+Duz7O3nVPUtbmvI+Hzov49GpwUQ96kzNV/nkHPojn12fxc/bLLClabcpSH6XDWfG4G8chqq8wuVLJbg/+v8B9dS2GHLjyLX1GcNUZj/+MM6tgpEAIuMDAFA3j3D1SBblfZivI3XRSNOsHNu+Fc8lC5kU8zhBrjqUuk36lQRyG1aVGgj315EyOPKcOVQGVcjRP71N1YJFRE2IZlqwjjPhTwwAACAASURBVDvXreQmbicxOZ3b7QJRJwqT/0TFtGVEzxjNEF0lxen/y2e7m9+xAqBVm9m7cTN3Fn+b0JDZ+Ny2UvD5h/zDEsNrE/WtcuzJtd2LOta0cs4cTiV27FSmPBrOsQ/SqdO0Pvve6bl62xy4+nrqu00rhBBCiK5okydP/maMX7KTUp5M+fFviR93iYR/e5vUW9/s+Sli4LK9wX4kJzf8iv2X5DkdKJRyZvJz77AkuJyzu7ZhulhG5bUSbtZKHQkhhBCOGqBrTt07ym0s4dMDGQpoTkMZOX4KwWNdKT+VSOZNevraBSHEN5Sm1ZK196+M1z9L6NM/J5Qq0je/wp5z/V0yIYQQ4uvnGx+sMGQS0x5/Ej9No772FhVlFrI//TPJKVlUy5KjQoge0L76nL+/k0nKqAfwHTGEyiv9XSIhhBDi60mGgQkhhBBCCCEGpF5dulgIIYQQQggheosEK0IIIYQQQogBSYIVIYQQQgghxIAkwYoQQgghhBBiQJJgRQghhBBCCDEgSbAihBBCCCGEGJAkWBFCCCGEEEIMSBKsCCGEEEIIIQYkCVaEEEIIIYQQA5IEK0IIIYQQQogBybm/C9CXXCct58Xvz2BoxUl2/2EzObe0/i6SEEIIIYQQwk73dbDi4jmSIS46XDxG4tFLV6rcZvHcW8vw/fy/eeej7A7TuMa8zj8tCer4+KJP+OPvP6ZUaw6cnL3CmD7/ccIeegAPlxoqv7KQf+ofJB05x836gRlg2XMfBhLX0bP59vKnCfJ2RZ3fzrr3k6nWBua9FUIIIYQQNvd1sFJp2sAfvvDC9U4Z5VX3rmFae+koyQlftN7o4sek6dH41dZS02KzNvJbLH31+4x1LuZC+iEyyxXDJ0wl+InXGTXiHTbuzqFWGtU9ppQbhkee4+mFU/Asv0LpndF49XehhBBCCCGEXe7rYEXT6qi6UUzVPT5vfeEpjhU2f9Z5RfPkjxbiezuNPR/s40ZD8KGUExMff5qx7kWcWL+WpIJa2/Z9hyh6+d+Im/4UEUnrOFV5jy/gfuI7lycXhVBz5gM27y4i6p9+JsGKEEIIIcTXxH0XrCjlT9w/v8F07+beCFVlYvuvN3GhTQ+Fx8zVvPaEMwfe/is1c5cRM2k0Q7QKijI/49OPkymsagwqgvj22teIGNLi+Gmv8+a05o+Wfb9mU1Jxu/I4j57L0h8+g6EskQ+2fsSlypZlcKem6BSp13NJza+BhvJpWil5F0qIe9CLEd5AD4IVpabynd+txGh6h79cDGfBY9MYNdyJqq8ucS5pO8lphdS1uB86jwlMjX+S8HGjGDZUx50bxVgyEzmQdJLS6ru/D/3mziVObv03zppLqGMS9nRSKeVF2HM/4/GJgyg8sIFtSRepl94tIYQQQoh77r4LVuAa5w/t5vZgAA2/qKcIGtZVeg3DvB/g43KBzCM5DBk7lZCo77Lc/Q4bNh/llqYBxeQc2kO5M+AUQMicUIZcMWHKLmnKpTyvfUSh9HNZ/uNnGHllF9s276OopnWDV9MqyUveRp7tQ6t9Hp4eQBkV13p0E5qNjGPRpMGUnj3MFZ0v46OimPbs6zhXvkHCBduANOUWzIJXXyF8yDUupR/ji+t1uBtCCZm1khUBnvzpvUSu3cV9sIfTEG883TpfnK66ooSb1crhfLVyM+lZ2O6vvYe7BBES6sMgTSMgKgKvpIuUdH+UEEIIIYToZfddsKJpFeSbPiUf2zCriDFdByuaFsCoqnfZ8JcsajUNpQ5Q9JO3mB80gxCPo5ystPV05B7cQy62ieX+c0IZZDGRktjNxHLfMRjdNJwnPM0P33yEC0d3sT8pjWt1Xf9Kr5wmExzkgSo8RO514C5+1Pd8UMeh360jo8KWyeFTT/LiawsInx7JvvMm6jWNoVGPETa8ipy//YYdqbZgQ6l/YH5qLc/PiOPhMYnsv3QX98EOD8xfzXMxwzvdf/6jl9h+sqbT/b2qJoPTx6czYpI7RUdNlN2bswohhBBCiDbuu2DFUUrdIu9sVtMkdk27Rk7uVeaP92K4Lz0agtXkUjK7/5qB06Bh+E2MJWruS/zA6z3e/2saVZ0MK1LKjXHf/h4hQyvI2nWQsrscfqTy08kqpyngqbOkc+HaAmK8fBkGXAO8fHzRKKG4dDAjvAY3HVtZbKGWMEb6OMOlursqR3eKT25jZ96gTvdXNMznuRc0rZyc3evI2d204Z6dWwghhBBCNPvGBytQRfWd1ltqqqsBZ5zu8pWZWsVFzqVfBCDTdJSCZ9eyNOI7zDiSRtLl9umVcmPU3FdYPN2b68f/D3vPVtx1Q7m+uqrNamJXOLl1HTm6a1Q0bNE56dC0AGJf+S2xHV2HTgf0bbBy60oGWVf69BRCCCGEEOJrRoKVe0TTbpOTfo7qiGgMAR5wuXWXjdI8mfDtV1nyrVFUnN7E/3yc1SfvAdG0OiqK8myBSov8lbKQ9tFevqxuf8y96NXoqzkrQgghhBDi60uClV6mlBMBM58ldMRFTn58hJKWK27pdLbRWPX1rY9xeYBpy18mLsiNopQN/G1PJjfv4dCj+rp6oI7reSfJKuufIU8Das6KEEIIIYQYECRYcVRNDbUKnJxdOtytaXXcdh9HxIwQnPPS+djcMGFdG0b41BBcKOLyxZs0TiLRPMOYv+KHPGy4zRe7f8/uY5fv+Usgy0qKUUxgQpiBY8mFqIbzDx7zCKH+ThSeSSG/ok2ZurkPjhpIc1aU0hEw6wWiRuuo+TKRvce+bLonQgghhBDi3rnvghXlHcb0UCO2AUUafiMBZwMT58SjB6jOJ/NIFuU9bXzWXuDK1XrGBy/m6YVjKKmqA2opPJNAbkOvRHHKh5yJeJXI5WvwSDvN5es6Rjz0MEH+blSkb+PzQkADpdyJ+u5PeXhULWWZpyh0C2HanJBWp/sq+zPOFdW3L0cvqkz9jIzZDxE+fzUrjCbySuoZoh/L+KBxuBXt4c+He3YfHNFXc1Z0hoeJmeTd8MkbX2dg+ESi5wyiDqgrSsWU3fa9MOMIip1GsOdNzqZvlUBFCCGEEKKf3HfBCoapzH78YZxbNTADiIwPAEDdPMLVI1mU9zB7TbNybPtWPJcsZFLM4wS56lDqNulXEshtWONWq8rm0w3/RVn8k0RMmEGMhzM11wrI/GQjyYdzGt7dAqDD2VmHpg3CO/QxHg1tf77zN5P6PFjRqszs/cPblMQ/Sfj4aKKDnakpL+aqaRsp+1IoUu0b6/bch4HA+cEZzIkPar3RJ4JZ8REA3Ekrbh+s+E7kQU/gKxOnsqu5q7WjhRBCCCFEj2mTJ0+WWctCtDB4xs/52ZMPUbhvDf8vuW2vixBCCCGEuFfucnFeIe4vSjkxZuwYtNpznD5h7e/iCCGEEEJ8o0mwIkQr43lwjCu3Mg9hvtnfZRFCCCGE+GaTYWBCCCGEEEKIAUl6VoQQQgghhBADkgQrQgghhBBCiAFJghUhhBBCCCHEgCTBihBCCCGEEGJAkmBFCCGEEEIIMSBJsCKEEEIIIYQYkCRYEUIIIYQQQgxIEqwIIYQQQgghBiQJVoQQQgghhBADkgQrQgghhBBCiAHJub8L0JdcJy3nxe/PYGjFSXb/YTM5t7T+LpIQQgghhBDCTvd1sOLiOZIhLjpcPEbi0UtXqtxm8dxby/D9/L9556PsDtO4xrzOPy0J6vj4ok/44+8/plRrDpycvcKYPv9xwh56AA+XGiq/spB/6h8kHTnHzfq7C7DsKe9AoEJ+xK+fexhnrf31KvUlSW/9lhPlXd+LIbG/4mcLfTj1x1+w7+LACkz7so6FEEIIIe5X93WwUmnawB++8ML1ThnlVfeuQVh76SjJCV+03ujix6Tp0fjV1lLTYrM28lssffX7jHUu5kL6ITLLFcMnTCX4idcZNeIdNu7OobaDBvx9p/BzDn56BR3gGhDLjKChXDYlcP4awHUuVfVz+e6C1LEQQgghRM/c18GKptVRdaOYe93OrS88xbHC5s86r2ie/NFCfG+nseeDfdxoaJgq5cTEx59mrHsRJ9avJamg1rZ93yGKXv434qY/RUTSOk5V3uML6AdaaQYnDmQA4DEzlBlBgyjOSODYhcZG/NezMS91LIQQQgjRc/ddsKKUP3H//AbTvZsbt6rKxPZfb+JCm1+vPWau5rUnnDnw9l+pmbuMmEmjGaJVUJT5GZ9+nExhVWNQEcS3175GxJAWx097nTenNX+07Ps1m5KK25XHefRclv7wGQxliXyw9SMuVbYsgzs1RadIvZ5Lan4NNJRP00rJu1BC3INejPAGHGzI9qS8Oo8JTI1/kvBxoxg2VMedG8VYMhM5kHSS0urW98119Axmxc0i8EE9Q13ruXXdytX0JA4dbE6r1AQW/MsvGXt2O+bRTzDNtxLzjnc46fkc31sQiLPVxN4t28it6FkQ4uQzlbinnyIkYAS6W1YundhBcpXqUV59q2d1rJQXYc/9jMcnDqLwwAa2JV2kXnpfhBBCCPENc98FK3CN84d2c3swgIZf1FMEDesqvYZh3g/wcblA5pEchoydSkjUd1nufocNm49yS9OAYnIO7aHcGXAKIGROKEOumDBllzTlUp7XPqJQ+rks//EzjLyyi22b91FU07qxqWmV5CVvI8/2odU+D08PoIyKaz25B46VV7kFs+DVVwgfco1L6cf44nod7oZQQmatZEWAJ396L5Frjb1B+jie/ekzGKryyE5N4qsqZzxGhxI8dyVjHxzM++8fpLzFtWgBExmWd5Qc59lEPv4D1KUSzOlDiZo6k3kzj5H7ySWHr065Tib+JysJH1rB5YyDXCqrZ3jgszx6s0c3q4nTEG883TpfIK+6ooSb1Y4FRD2uY5cgQkJ9GKRpBERF4JV0kZIOkgkhhBBC3M/uu2BF0yrIN31KPrYhOBFjug5WNC2AUVXvsuEvWdRqGkodoOgnbzE/aAYhHkc5WWn7FTz34B5ysU1Y958TyiCLiZTEbias+47B6KbhPOFpfvjmI1w4uov9SWlcq+v6F3LlNJngIA9U4SFyr+PwCChHyzs06jHChleR87ffsCPVFsQo9Q/MT63l+RlxPDwmkf0NMYW7+21yk7dz6PQBvixv7EXZw/nv/TtLo2IJ9T7I0bLmvIdVZPLJniPUBg0ncIUvZX/cjqniIdwn/ZJIHyOa+hLlYI/BoIg5hHnWkL/nP/jL4VJbGfYfZsbL/0ogNx27WS08MH81z8UM73T/+Y9eYvvJmk73O6LbOq7J4PTx6YyY5E7RURNlHWUihBBCCHGfu++CFUcpdYu8s1lNE5w17Ro5uVeZP96L4b44PASrlUvJ7P5rBk6DhuE3MZaouS/xA6/3eP+vaVR10kBXyo1x3/4eIUMryNp1kLJ7MPTHy8cXjRKKSwczwmtw0/bKYgu1hDHSxxku1QFQdekoxy6BUs64e47A3dXWE1F57StgOEOGQcuWdX1tNXWaBjU11FLNnSqAGmprQdM5oQGODt7y8tGjYSHPXEJjK19TxZw7Z+FR/y670bpUfHIbO/MGdbq/omG+yd2yp441rZyc3evI2d20oVfOLYQQQgjxdfKND1agiuo7rbfUVFcDzjjd5SsztYqLnEu/CECm6SgFz65lacR3mHEkjaTL7dMr5caoua+weLo314//H/aerbgnjVSdkw5NCyD2ld8S28F+TacDbMGK0vkQ9MRy5kwLZOQgpzblv35PpsEPGuQK3KC6zcoJd6qr7yrfW1cyyLpyV1l0q7/qWAghhBDi60iClXtE026Tk36O6ohoDAEecLl1l43SPJnw7VdZ8q1RVJzexP98nEX1PWzEKmUh7aO9fNlBe79lj4LfnJ+y6Ft6rmfu49NzFm41jIpyfWgBTzw8uP3BXyN9MWelpf6uYyGEEEKIrxsJVnqZUk4EzHyW0BEXOfnxEUpaNEZ1Op2t56G+vvUxLg8wbfnLxAW5UZSygb/tyeTmPWzE1tfVA3VczztJVlnn51XKiwlBo3EqS2L3n3dT2KKMniMeBe5NsHLnTjXggqsbcKt5+yBX17vKty/nrPR3HQshhBBCfB1JsOKomhpqFTg5u3S4W9PquO0+jogZITjnpfOxuWHCujaM8KkhuFDE5Ys3aZpr4RnG/BU/5GHDbb7Y/Xt2H7vcuy8I7Ka8AGUlxSgmMCHMwLHkwqYJ74PHPEKovxOFZ1LIr9CAWluc5TwIV2caR4ahnEYTNnkU6h690aastBhFIBNC9Bw/ZEVpGkrzZdIkI9zFBPu+mrPSkzpWSkfArBeIGq2j5stE9h5zfCECIYQQQoivu/suWFHeYUwPNWIbzKPhNxJwNjBxTjx6gOp8Mo9ktVpe1yG1F7hytZ7xwYt5euEYSqrqgFoKzySQ29ArUZzyIWciXiVy+Ro80k5z+bqOEQ89TJC/GxXp2/i8ENBAKXeivvtTHh5VS1nmKQrdQpg2J6TV6b7K/oxzRfXty9GL5a1M/YyM2Q8RPn81K4wm8krqGaIfy/igcbgV7eHPh21ZadoNcjLzmLngERb/1JXM3GLq3HwYPTmQytxsagLG9riYLevNNWA44IJvWDyP+ANc5+LR4xQ2vMPlzplkMuMmExq/mhdGf87F0jqGT4jE/dZF6m213CN9MWel53U8jqDYaQR73uRs+lYJVIQQQgjxjXTfBSsYpjL78YdxbtW4CyAyPgAAdfMIV49kUd7D7DXNyrHtW/FcspBJMY8T5KpDqdukX0kgt2EVLK0qm083/Bdl8U8SMWEGMR7O1FwrIPOTjSQfzml4dwuADmdnHZo2CO/Qx3g0tP35zt9Muqtgxb7ymtn7h7cpiX+S8PHRRAc7U1NezFXTNlL2pVCkmu9lacr7fOi8jEenBhP1qDM1X+WTc+iPfHZ9Fj+P7nExO6w3/5jF+ANKfUn96eMUNsyn0arN7N24mTuLv01oyGx8blsp+PxD/mGJ4bWJPQ9W+kYP69h3Ig96Al+ZOJVdjcPrVwshhBBC3Ae0yZMnD8TXfgvxjTZ4xs/52ZMPUbhvDf8vubi/iyOEEEII0S/ucnFeIURvU8qJMWPHoNWe4/QJa38XRwghhBCi30iwIsSAM54Hx7hyK/MQ5p6vFyCEEEII8bUnw8CEEEIIIYQQA5L0rAghhBBCCCEGJAlWhBBCCCGEEAOSBCtCCCGEEEKIAUmCFSGEEEIIIcSAJMGKEEIIIYQQYkCSYEUIIYQQQggxIEmwIoQQQgghhBiQJFgRQgghhBBCDEgSrAghhBBCCCEGJCdfX99/7e9CCCGEEKLZyLlv8POfLmLY5SRyS1Wvpb1bSkWzdPWLTL6VR1bRjT4919eJUv7MfWE5YzUrX/bRfQl+fi2ztDxKDXOINtzs9jwqYhWr5jtRkHaZm5rWrqxDij+nuELrIocu8lb+zF39cx7u4XOgIlaxdP4DaMXZPSpDcPxaZg1tf+7Ge9RdmVTEYpZGDqM013ZvbPfqAW5rw/A1jG79X+STzJpgJeu8PO/9xbm/CzBQuE5azovfn8HQipPs/sNmcm717A/4XuUrRE/Jsy7EwKaUkYhIf7TyFDJyaoHO/5a6SqsiFrPUYCG70PZZHxZPYPEmNuw1snR1FGWJqVhb5NW4/72Egs4LFxlFIFaOYyQ4wti83RBFbHAhh7ftxGzpuLy2RvJCyGg8r5GgOAPZ29aTeTWgzb4oYuMK2bluJ1ZNa5NPNCGRFsxpXZQT0BujCZ4XTyAJvLfV1H5//Cpmktp0f7oVFk8sCezccqJdmQDw1YM1n67q626UFAPkY00rwOf5jayJ28fGDu5PIz+DHoot7fePmkLgZD3sB3Mn51IRq1gVlsrhjIYNYfHE+qa3qA8jXj5Wss/kQyfn74qWtoEUw1peXA4lXVxDS/r4VQSnryfZooGvHxTmo1QAc1evxCtxEx+eMRI02Q8y7KkDA4HBkLK3eYsXFsxpHTwnhni8fY1A18+b6Dv3XbAS/IP/y+IQHV8d/k/W/yMPAKU8iH7p9zw2zgnLvl+zKam43XEuniMZ4qLDxWMkHr14V/oiX+U2i+feWobv5//NOx9l906m9pz3gad59dV5jOjiS0XVpbHrVxvI6sGXV1/wmLma1xeOb/pcX1dFZcl5sg7tIuXUZarvspz9VRd3Q551O84rz3o7X8dnvTuuMa/zT0uCOtynij7hj7//mNJ+qF/d2FiCfeBayjEKVNfn7zqtgUBfCzsSbA2wEkM8Xo27fMB65gTmltcXtgKvws4bekpFszROT07iGpLTWqcJDluBV3EqJVc7PdzGVw/WE5gtGkpFExSH7RgA3+YyKaOR2I4a2oCmmSgxrOUlQ3NgFRy/Cj2FgAEvX4BCyjIsWDMSMFstnRRGjzfdBz1NqQ3xQMdlaksZownRd7THSFDcfLzNv+k6KOyEtyEA0grI3L+P2OXAqACwtM9HKX+Cfa0c3tI+mPALD4eDm2yN/i54QVPjPThsBaWJpyEyhmAAQzyBWelkN34GCItn0WQ4/u6aVnm3DZqbFKaT4ws+kTH4tNphJDbOwOFt61sFvkV7U5n59lvMeXdNc5AduZDA4gTeSyuAUVPwLtnHzjPYFy928nx1llb0n/suWAFQ5ddxCZ3GA3sucFlp4DGFQP11rt0Z2ekxlaYN/OELL1zvlFFe1Xv/OPVVvv3i+lmOf3oTt4aPrgGxzAgaymVTAuevNWxUhRT1V/k6odQt8o/vI+8G6FyHo584lWlL32CM13+yad+X1A+Qxua9Is+6HeRZ/0aovXSU5IQvWm908WPS9Gj8amup6YcyKaVj3JQpeFJIyskv6bpXxf60TQrzAWMnO4sos3ayC/BbEA+Jm0gxvMwc6/qmBqkyLiZ2cga7f9FJj0MfKEpPh9cXErx3vS3g8g3DK2M9O9IGxjOuWUxkXo0mJPIE5hZlUiqaoGVF5KS3DwpVxCpWGVI53ElPj94XYEpDj5aFw+Yolrz+BhxsDnyae68K8aIQa2QMwUQRGweH160nkxhmzobSgy17xqKIXaYnp02Q0arMbGZHWgFQgBVb8JKTsbPVtZFmauipaZ1HSNh8yPgR5jQNpfzxI7/pOTGntb9OFbGK2OL2N0HTTGRnxdMcAwYQYkhl55YToGm2IMy86Z49g+LeuS+DFSrPk+8cweSx27mcpxgaFonfxQtcCpqKZyeHaFodVTeKqerlovRVvv1Bq8gl9UBu02ePmaHMCBpEcUYCxy60+HIYcF8UVRSlJXDsUsM/rJ8lEv2Tf2Heo0uZ+vl/YrrWzeH3GXnWuyfP+jdDfeEpjrVoE+m8onnyRwvxvZ3Gng/2caM/6tcllLAQT+rzE0kvpuv4w5G03VDKv6Ex3Ml+42JmsokdaQWoM3sIfuFl5uxfT9LVGJYuDyfn3TWte2m64BUeQ7AewIh3qz169JExtv81GIDOf83WLLt475f069+gUv6ERDY2+I22XqvwGObMW8F0331sXGdBbwho3XMzyog3VrI76YHy8gVzQvuhSGDrGQvkdHN+aSbMCR0k9NWDdT07tjYGk0ZigRKAyCi8D7Ye6te439qyTNZCyhoTREZRtn99007bs5JBth09GCpiFYsmF3F8v+1zyAtvsMg3g93r1jc9L/qIxcwMg+z9O8m8GkAIe3hva0GrzPXGaHz0QEYCVn0Mel/wNhihEGau/hPe5t9w2BdKi1sPTwyKW0Fg8WY2bjlBEQHN9WXQg6+R4Pi1LJptZfcH2D5HRLe7Br0v0H5AjriH7s9gxaWM85mjmRs5ic8uFBAU8iD5GX/HJWRqq2RK+RP3z28w3bvFrx5VJrb/ehMX2nwBesxczWtPOHPg7b9SM3cZMZNGM0SroCjzMz79OJnCKq1H+QK4+c9i9vxZPDTKi6HuztRUlFB03sTRhE+5WK4a8gzi22tfI2JIi+Onvc6b05o/th3ipvOYwNT4JwkfN4phQ3XcuVGMJTORA0knKa1uWd6pfOd3KzGa3uEvF8NZ8Ng0Rg13ouqrS5xL2k5yWiF1PfwHwd4yALiOnsGsuFkEPqhnqGs9t65buZqexKGDzWmVmsCCf/klY89uxzz6Cab5VmLe8Q4nPZ/jewsCcbaa2LtlG7ldTNjTVCmpqbnEjZ3MaH8dXGuekGpfGRyvC3vydYSj90Ge9cbyyrPuWBn6/1m/V5xHz2XpD5/BUJbIB1s/4lJlZ0OhvAh77mc8PnEQhQc2sC3pYq/2WA0Kf4QJ7vUUnDlBeTf52pW2RQNM7wu0+cFaGaOZOy8KL/QE+ljZ3UEjWhmjmRt+mh0NDVxNKyBpyx7mvvAWq3yhNLHjX+Q7U5bePAxMH2bEZ1QARVeB4nSsVgtmSwHKCnq9Y0NvvA0thiQ1aphL09Hcl1bXqKJZ+oKR7IyW5zQSFBcOiZsaehVa07SCpsDB1mMSTln6CZItJpIBhT/BtJnroDfglZXaRWBnRB8R3WpYlD5uBdOLN7M2wwqGzq+/S8UWiohhaVghOzsYGtaVEENq62F/o6YQWJxKsqahj1+MT3rn85S0tA28lQagoY9fSyyb2bjO1gMX/PxGFrGZjVt28uGZAOa+8BaLfK0c37Yec5uH0Gox0TiaTx+/lsW+Gl8U2obwmdNMDQs/WMne3/hs+TN39UrKtv2ItywaaBoaLeqLKBb5WjAn7MKc0BBUFTfPWWmcs7NzywlKiAL6bi6S6N79GaxoGiVn06n50cOMSfAh8IFcMj6oJXxx24TXOH9oN7cHA2j4RT1F0LAuM8Yw7wf4uFwg80gOQ8ZOJSTquyx3v8OGzUe51fTHb3++amgMT61cxgQsnDuTjLWiBpfh4wiKeorvBnjwP2//jct1GlBMzqE9lDsDTgGEzAllyBUTpuySprzK8yqb83ULZsGrrxA+5BqX0o/xxfU63A2hhMxayYoAT/70XiLX2n5ZjYxj0aTBlJ49zBWdL+Ojopj2O9/65wAAGFNJREFU7Os4V75BwgXHB0Q4Ugalj+PZnz6DoSqP7NQkvqpyxmN0KMFzVzL2wcG8//7BVv8YawETGZZ3lBzn2UQ+/gPUpRLM6UOJmjqTeTOPkfvJpS7LVnPzFjXocHFzhobBHvaXwcG6cPDaHGH/fZBnvRV51r9Wz7rTEG883Tpfab+6ooSb1T1fBUvp57L8x88w8soutm3eR1FNF2V0CSIk1IdBmkZAVAReSRcp6Ty1Y+VQQwmNCsa1Jov0MzfoegiYnWlbNMBKDPHMbLNbs5hI3moiOCKalP0dD+Pyw0Jym/kVfpFTCGzsiTHEoD/T/RAwTSsg+XdvNpVV00wkZazizddXov9gDclbC1DGaJb+aiVl22zzYvRGf6yW5iFOzb+MRxEbbBva1NjwLy1sPeQKbPNMvIpTuyxXE18oaXEdtgDEYN8k8sgoAoHjba7XyhT0SjXlGRIWRlnxni4ysmBNM1HUOJxr/3qSf2cLfoiIwqvFRO+WDWp7hj75LTCSvd++yeytGVtdg194OBSfbtgXTmz4acwdzJtpybaYwSZbj0nD6luLJheRcxCsDYFE8tY3Mcev5cXXX8b6i/UdBnQqYhVLgtM5ZvbDyzCFl5atpPSDNXxIFJhb1nPDAgDdzaHqghe2spG2AasEKv3q/gxWAC6f4otbL/PQ7MH4XUjlw2pXwtsk0bQK8k2fkg8o5UTEmK4bcJoWwKiqd9nwlyxqNQ2lDlD0k7eYHzSDEI+jnKx0PF/d2BDGuCsu7lrH/5643bT9VOajhPuD02CgAjStlNyDe8jFNtHVf04ogywmUhI7nug6NOoxwoZXkfO337Aj1VYwpf6B+am1PD8jjofHJLK/TRvH80Edh363joyGX2oPn3qSF19bQPj0SPadNzn866EjZXB3v01u8nYOnT7Al+WN/1Ds4fz3/p2lUbGEeh/kaFlz3sMqMvlkzxFqg4YTuMKXsj9ux1TxEO6TfkmkjxFNfYlysLz2lsHRunD02hxh732QZ731MfKsf72e9Qfmr+a5mOGd7j//0UtsP3kXM0x8x2B003Ce8DQ/fPMRLhzdxf6kNK7VdXBfazI4fXw6Iya5U3TURA//dDs2PIaQsU7cMZvIvk3XjSxH0naoxZCrBj7hL7NkefteCKul5ZChaObOi8erOIGd63bahtYsWMiSt+MhK53D+ztuuDYN42kjKC6Msqx9WIkhOMK2ray4YahYeDyLHzXwxV/fYkdaQeueDKJY5GvrobANS2o/30Ypf4KD4fi2vp9L42ewXVzg8pfxStzT1BNTgoHgUWC1NAQ/k4vI2W/Pr/RGvCZD9pYWSVsOzcIW+HiRaue1GSF9Z8Oqa1Mwb2kTtJQUdhp0Z+61sPSFJaRssdV3cDDkbGu+htKGRRnazkeBhgBzwRRIX8+OFnOcVi3Tc/zdNSSx5P9v7/6Do6rPPY6/TxL5ZUUxyZ7sBoO/o2HTbBK0QSlUTSgNzThNOs2M5U7FyzhTqZ2xvb3M3CtMB71/MOPU2xnx9lqqdi56L7YR700TKUIVrBJtSDayYENFJcJudpMgCggmIef+cXY3u8km2QQWt/J5/Zk9u/s9Zw/M9znf7/M81N9bwa5wwBVsXsdWKhKOxXLV2itDGxrIXbmM7EADGx+H1UvrqAztZYvXRaUJPj/2drtxzinCLK1lidPPrgD0EbMNLLJNrLSCcy2KIOfuyxus0IXP9zkrFxXy3gvP0M/ofYiTZVmfcegde/IGYBgf03nwKMuuz+YKB3By/PcnMnTyJGcwmO26jksz9nFqyP7sEwf/xOsHYaqPBLJzHRj0EOqdxZzsWdG/nwz5GaSEK3Oz4MOz8ed32Mv+T4e/8qzfy3sfL2dhtoPLgclud5/MGM58+Gfe+BAsK4uZs+cwc5r9FPXkx8eAK7j0coj9X3posN/erjMwwCD9fH4GYIDBQTAyMjGAyT5nnewYvujPhdRcB9C9rnudtLrXQ29tpuHQ9DFfP9E1OPkPjfXhTrY+10Hm9MvJu2kx5ZUP8IPsJ/nVc+2cGTERNIxP6dy6gc6t0T+c23fHyLmlgvyMU3jfbptwO+Jkjk0sSLANzOXDqyaRVYhEk1970llDEXvZ9cxauvMXUlk2D9oO42veyL6mAopXrmLxQ8uoNQwsK0Dffi+7t9tbhGK38USY1ashZgJoltbiDjawM1pmeIycjHGY1bW4A63sbO8arhQ1iS1qUxEJivp6oHNzI6x4mLUlT/PIsy10ewMs8YQrdpWVU9jj5alxn/aHt4E5y8nZH4CyhdwVKTntBRz2Kkc3Cyma382bj+9J+GHDeUGE83/2EvQbdsAXWsX9K/08kqCccyKG0cKu0HrqlrfSEKjhNoK8adqfbzogB3v7XVHVfRQSX07ZMLrwNQ/nn1hWBfUrPPQ+b28dNHiRLdtrWb3mR9HqX77mllH/ruyKYq28EF6ZyaWDvqCdu7Sxo4Litj3AQvDY1dIwnWPeywB5TmB+NUs6NvFCcxdmdTW9HU9EV+ai28TCq5K+9heTulaSGl/iYAUCr/2K//nbDI69f/o8nekZ+j+P/8tAfz+QRebYOxTGd2g7rx3wUF3xYx5acIpPjvVyPPgRR95rZW/Lfj4dmuL++cwMDGMeix/8NxYneN3IyADiJ3BD/Weik1PbEd56dgOdGR9zIsVjsDJyKfr2Cu76WiFXTs+MO86yjl+QBdhUjSEdzm3ydK+nagzpcD/8vd3rnx3pYP+RKb45CcaJ93nX+z4A+1r+TNf311Nf+j0Wvd7Ojo9S972xLOsqSsuvwvjkNToOTtRbJfljx89Z2UOQOkzLfhqe68ijsyN+8muW1uJ2AoFWdjZvtKs9GQaY5dxW5cLXdhj7T134nl2Hj3B/Ew/sbG5JODbLKqB4ZQ3m9uGn7QDB9hfpdtVRWe3H591DMOkgw0U2XnYdhaD/RbpdtdT/8ypygM7NiSfziTlxx5XRHVkAYAxlNRSGvHQ6PMBhdmzeRuFD5bitPew72krfihrcTY2YVSV0vvLEuH1R+kKNdh+Vkmo6t4dL90ZKSh910ZtbTi7QXVZO4f5mOx8jgUheEIAVdLF46fBr3V4vfeHxJVsUoTsQJLvERXdTI1shusLV46wmO7z9LtqjZIzPtFwV1K+otrf4xYzb8L/Ixs0V1K/4NYvpYPfmxrjVOcsqIC/YEK30ZlefM+kMJ+0b7S32eVh+cCzAtA6D06QvQblhs7SWJVXLyKEb9jdHV8ByHdDnTepSyBfgSx2sGKf8fBB5YpumZ2oYvbQ9vY6uwjJuvO4aTIeD7PxybitexK1lW3n6yWZ6pjiJsyw/7b9r4oP+0a8l8yTSMM5yovuQPXmb4tPDZMeQd9cP+c7XTY7v28bL7/r5LLyjY9qNy/n2LbNGvzkFUjWGdDi3dKB73ZYO98Pf272e6pyVWIZxmk7vu/SXVuCcdxl8NIVlxCnIuG4R83Og77U37JL75+nYiXJW9gWgvgy2tFVQNL8jftsRdgARbLcnmsUxVZbMEhNCgfgeGTFNE8dKuI9Ufurr2EvQrON7Kzz0bV7LDrMu3IvDTzAA7qWPcL8DOkNe+jr8+MbLiSkrJ8fXOPw03/8iB0IeFjugcGnd6C1PYwrEfU8kZ2UixSWw+5lWzDWe6Pc3PF4QzcXw+UzqVq4iO7eDrclU0LIqKHLYwZdFBUWObexqi5TuvY+isnmYVSZvTioQi3HUTy8ezPzwlqkkRLa52Vvxxhv76K1gYP/udVX2tewzY1Z9osrJoYPekEntT9ZSC/T6Xg6vzHVBzHvMEg/ZPV6C5kLcntgCCl34QjW48+eBO4/eV+K321lWBUvuWQbPP8pGalhXMjxm0xEkSB3fuxe7yELsNrDwfZ2osahcGGk6hb+4GMYZ+g6+yZ6DdmqeZc3kmtp/5R9uu5Pyq5vZ9v7kP3Po7BBwluOH3mJ/3xfz7D7ZMVhWNjcUzSWzbwdbf7uVQMx/crPn3Amc/wnctK9cyiUMMfD5YErH8EWcWzrTva57fSpSkbNiWZnMW/J9vjrnfd566XV6YsabkZFhT3GGhqY44smxrAyuX7CA2dZRXnv7QybqrZLssXljPF2O09ZK35o6Kp0ecl7dNOaTdsPfEj+xTdBnY6ymiZZVQF7ZAnuFxuGBDjt53rIKMKucdslcM76B5b6gi8IVHsBJMDh+sGEHC8NJ8Gb1ehaH7GRus3o99z/mGdWocDQ/uzbHj90wWnjhZ6O3JMWdm6uWolAjW4DY+Xdsno/dE2YZnc+PX94515FHb8dhu7lhCMiHPE81OTG9Q3pC3eRUraIwNPaqSkKO4SR5w2jhwPMMV/AynWSPLBMXPb8K6h+6j0LsZPiRpX1jt4FFcjtit4JFqs3R0cjGDVC5ZlW0KWj897hYjJMDz6xlS/48ij0uepqGA8dgewtBwoFcVZCtGxrwGYZ9z8UEqt0BqFtaA7kd7B4RGEZ/T4DSmC8PVzfbgYvF0SILw1sQI/e1fHEUrHzBZrvvZvHN0/jgtd+zv8d+MmgYpzl2/CTwFbIS/UIDAwxakJl1yZif29cTwuIGbihx8sbOQDQBd9Y1t/PVgkwCbbs4PE7J0/Mh+TEM2nOCrOlMyyK6Y8fKnEvJ/Hys89y5wzJyKC+7AWPoA458MIT9v9kUxzDhb3Fhzy2d6V7XvT5VqchZMYyznJ55HaWLisk65OUlX7gwgnE5nluLuYRuPnr/FCODAcvKYN43VlI+N4OBD16h6Y3JFzgY5ZISSoovY6jrj0n0VpnEsQwnP4/FMLrY8UoN6+4JsvWfkitpayeKj16FiU62R3yfYXQRbO8i2A5mtWfU6s7YvOyaYFXEctVidjzBznCiffHKVRR1bLI7moOdsO14iu8sXRiTCzOaYXSNyqmZiGUVUOzxh0s6F4x5XPFSD/R0k1NVh9k23vl0R/MwnnwWzNIfUXdHHrzqim7V6/Z64Q5P3KqKu7RieAtWkpI93vC3sOVxyCPxtrzYbWD254ZzO4xIwr0/5rqPfY1sdkK84e+yV1MSVaZbbgdvdmGFCpa4g+zeEHPftu2l9577yHn10aS3uOV5PPR2NAB1SR0vF95FHaxYOSXc9lUX9uYCg7wrgSwnN90V7pDaf5h9r++fdKnNyXzuiU8M5pZXUXLTtVzffoC+0xbTr7yem0uvxfrkTd5NVJV08D2OHB3ienct3625hp4zZ4FBAm3NHAw/1T2594903HEjnmVruM/VwqGeIS41r+X6ouuY0d3Ib3dP7ZpNRrJjMIxP6Nx3iCXLb6f2h9PYdzDE2Rm5zJ1fyMmDBxiYd+05jmQGeaXV3H7tcFfvm/IvIbhjC28fB4xzGMMEv0Xqzy05utdTS/d6au/1VOWshHZtoa30x5StWMtl7a18dDyDOTfeQlHBDE54N/N2gATz/OsoWvw13LNP8Y732XMPVIDppbdzw4whPty7hxMT9VZJ8tho0vcE+/Atq4DKKpO+HigqG9HAcAzFK6tHrcKMVZErFSxXBZUlAd4MlVNpNtoljktrcTv9+LavjcuDAdj3zKNQNsaHORbENREcz6jmgPnQ07Rn3ADPfe96FtPMxg1+Ktc8zP1riEtAj55TzNYvjPDvVwKdjz+Kz7OKuuV+Nja5qF/hgf1w24o6fOFqbKYzcSf4SQmNWBEznWSHVxMMf8uUSvdOJQCcSHfTJhryXdx17yoK5+fB/m305BNd+MgrKyenpxvcCzCbRm9HG8n+dxLkQBOQf37HKufPRR2s4LyVO751C1lxN/M8yqrnAWCdep2jr+/n0xR+rvXRS2x+6iTfqPo61926DPeMDAZPfUxv53b+tO1/OZSgiZphBHnjv59ldl0NNy/8FkXTMrCs03iPNHMwXGnHOOOj6ZeP0VN9N57rK6hwZzHwaYijLZvZtW0X3RPtcz4PJjOG3l2/YkvWPdx5q5vyO7MYOHaYztf+gz8e/wY/PcdCboYxi6tvr+VqYOjsGU71vs9fXmjg1bcPx5WoncoYkvktUnluSdO9nlK611N/bqlgnDnAyxt/QV/13ZTesIiFl2Ux8HEX+/7wFDt3d8b0E4rhuImrZwPHWvjLgX6m3MQhzLK+QkmZm0sGfHS0x5SoO8djwUV2qHnUxD1O/kLqV1TDK5vY2Oaifs3DPFDy9Lh9O+zGfs0JSrgm39diuHmj3fU9Gt/EdhB3OhnVwRK7glhdTJNHy1VL/b019IX24vP6gXmYCWKPnqC9AtETHLFCEGpNKkCDSAf5YYa/a8zrFF3lCdnd4g0Ddmx4FNY8zP2Peeh8fkSjyXwX+FqjW6fql5ZzIJJg71/HRlcF9Wvs5PQX/HZDxftX+nnqGbvr/Uijq4El3uYFSW4XTBOG0UU3LpY4oPP5R/FRQ91Dj9D5+Fp8nkeoc3tp2PAELH+E+9c42RquMBYRyanpjvyhrIbsV+yVOdvIIgvqYJ8OjPnz55+frEQREZEvuVmLfspP7r6RwLa1/Gbnuc9grMuX8o//8l2y3/lPfrG5ddwyxJM51qxejdv7BDv9RrgCkoebHE7++twqtrQtpP6x+yjs6YibzNldvx+mMLSNhu0NcZP62NyDne0xTRqX11DkABwlo8rWJuKuXo/ptfNHIk0ee9r20F32I9aV7I2W07VcFVSa/uh3DZ9XLblNDaO2+NiJ+x5yHJDjGJ0Ub1mBUXkrZvVqlgQaE3anT3hNS2vJDSbu1h7pmM7mtexgIZVLywluf2J0bkY4iKl1O+kNeaPlet3VtdDUCssXYEZKL0e/dzV1JYFoGeiRn2OFXh7OEYkZR+RcLVctq1cQ1z/HdFWwZEU1OeSR4zD463OrotW2AKzS1XG/x5jXpHo9SwJr4947lsjYsn3NHBgZOzljE+XHCABdBRQvraEotJddMfkskXszuyP+t3Tfuz58nV9m9+aGaGf74uWrqL3TSe+ffkMnkap1ia9T5Bzr2KQeK18gBSsiIiJJsKxM3D/4JbU3v8f/PfI4HZ+d+6pdTtU6frj0Ctp//TP+cPDseTnWclVQbMZ3c7dcFVR67J4qllVB5RoXvgkCi+H3lUOgcVTgED2mdDWrqwLRCeHFyIp0nO8IAK1jXqsI01UQTcK3A7M97Bwx4bevvYugd+zrageiTg5seCLaILN4+QJ6mhpiqpoVkJd/eFTOyXDwsCmcdxPzWulqVjsbJ5ygu+9dT1HHpqQCvsg1ShjEuWqpX+qPNocc+b7isgUQHN1wNLr9rynxaqBZWgBtCaqTuQroBvKOHo4JehKPIdr/5yK9t9OBghUREZEkWFYh3/75T7npb0/y78+1T7EZo4iITIaCFRERERERSUtT7UUtIiIiIiKSUgpWREREREQkLSlYERERERGRtKRgRURERERE0pKCFRERERERSUsKVkREREREJC0pWBERERERkbSkYEVERERERNKSghUREREREUlLEwYrGTPncPnsWWQaanQvIiIiIiIXTtZEB1y56EEe+OZVDPUfo2vvSzRtfZO+IeNCjE1ERERERC5imQ6H4+fjHTB4qofujz6gzyhgfvltzB34C+0fnrpQ4xMRERERkYvUhNvA+oMHOND6Kq/+VyPvDWVgzp13IcYlIiIiIiIXuUkk2GeSYcDZwf7UjUZERERERCQs+WBl1iymG3D6M20BExERERGR1Es+WMnKJAsY7NfKioiIiIiIpF7ywcqnhzhyzGLOzYspumYu2dkO5mTncGmWShqLiIiIiMj5Z8yfPz/paCMj+1aW1tdRes0cLjEMLOs03qcfpPFdlTIWEREREZHza8I+KxGWNYsbq+ooN4+xt7mJo8fOMGQMcOxIKocnIiIiIiIXq6SDFWYu4JayOXzy56fY9uqhmBe0qiIiIiIiIudf8jkrM+1qYENnB1M4HBEREREREVvywcrpM/QD02fMTN1oREREREREwpIPVj4/zecWTJtxaQqHIyIiIiIiYptEB3uLIVUpFhERERGRC2TCBPuMmXO4YvYcHAvu4NqMIUL+rgsxLhERERERuchNGKxcuehBHvjmVVhWP8c7X2Tb7hCqACYiIiIiIqk2YbDy6Tu/53d++CTURXfoBEOGAhUREREREUm9SXWwFxERERERuVAmkWAvIiIiIiJy4ShYERERERGRtKRgRURERERE0pKCFRERERERSUsKVkREREREJC0pWBERERERkbSkYEVERERERNKSghUREREREUlLClZERERERCQtKVgREREREZG0pGBFRERERETSkoIVERERERFJSwpWREREREQkLSlYERERERGRtKRgRURERERE0pKCFRERERERSUv/D5vnAwFrtKg0AAAAAElFTkSuQmCC;" vertex="1" parent="WIyWlLk6GJQsqaUBKTNV-1">
          <mxGeometry y="140" width="419.4" height="342.85" as="geometry" />
        </mxCell>
        <mxCell id="wTCChwKyPf_tFk7K6GKb-6" style="edgeStyle=orthogonalEdgeStyle;rounded=0;orthogonalLoop=1;jettySize=auto;html=1;entryX=0;entryY=0.5;entryDx=0;entryDy=0;" edge="1" parent="WIyWlLk6GJQsqaUBKTNV-1" source="wTCChwKyPf_tFk7K6GKb-3" target="wTCChwKyPf_tFk7K6GKb-4">
          <mxGeometry relative="1" as="geometry" />
        </mxCell>
        <mxCell id="wTCChwKyPf_tFk7K6GKb-3" value="点击我的阵容，尝试拉取服务器阵容数据" style="rounded=0;whiteSpace=wrap;html=1;" vertex="1" parent="WIyWlLk6GJQsqaUBKTNV-1">
          <mxGeometry x="500" y="120" width="120" height="60" as="geometry" />
        </mxCell>
        <mxCell id="wTCChwKyPf_tFk7K6GKb-9" value="" style="edgeStyle=orthogonalEdgeStyle;rounded=0;orthogonalLoop=1;jettySize=auto;html=1;" edge="1" parent="WIyWlLk6GJQsqaUBKTNV-1" source="wTCChwKyPf_tFk7K6GKb-4" target="wTCChwKyPf_tFk7K6GKb-7">
          <mxGeometry relative="1" as="geometry">
            <Array as="points">
              <mxPoint x="1030" y="150" />
            </Array>
          </mxGeometry>
        </mxCell>
        <mxCell id="wTCChwKyPf_tFk7K6GKb-4" value="MinisterTeamInfoReq" style="shape=step;perimeter=stepPerimeter;whiteSpace=wrap;html=1;fixedSize=1;" vertex="1" parent="WIyWlLk6GJQsqaUBKTNV-1">
          <mxGeometry x="687" y="130" width="170" height="40" as="geometry" />
        </mxCell>
        <mxCell id="wTCChwKyPf_tFk7K6GKb-5" value="1" style="ellipse;whiteSpace=wrap;html=1;" vertex="1" parent="WIyWlLk6GJQsqaUBKTNV-1">
          <mxGeometry x="440" y="80" width="20" height="20" as="geometry" />
        </mxCell>
        <mxCell id="wTCChwKyPf_tFk7K6GKb-16" style="edgeStyle=orthogonalEdgeStyle;rounded=0;orthogonalLoop=1;jettySize=auto;html=1;entryX=0;entryY=0.5;entryDx=0;entryDy=0;" edge="1" parent="WIyWlLk6GJQsqaUBKTNV-1" source="wTCChwKyPf_tFk7K6GKb-7" target="wTCChwKyPf_tFk7K6GKb-10">
          <mxGeometry relative="1" as="geometry">
            <Array as="points">
              <mxPoint x="1030" y="260" />
            </Array>
          </mxGeometry>
        </mxCell>
        <mxCell id="wTCChwKyPf_tFk7K6GKb-7" value="服务器读取账号名臣的阵容列表并返回" style="whiteSpace=wrap;html=1;" vertex="1" parent="WIyWlLk6GJQsqaUBKTNV-1">
          <mxGeometry x="970" y="170" width="120" height="60" as="geometry" />
        </mxCell>
        <mxCell id="wTCChwKyPf_tFk7K6GKb-8" value="" style="endArrow=none;dashed=1;html=1;rounded=0;" edge="1" parent="WIyWlLk6GJQsqaUBKTNV-1">
          <mxGeometry width="50" height="50" relative="1" as="geometry">
            <mxPoint x="930" y="721.3793103448276" as="sourcePoint" />
            <mxPoint x="930" y="20" as="targetPoint" />
          </mxGeometry>
        </mxCell>
        <mxCell id="wTCChwKyPf_tFk7K6GKb-18" value="" style="edgeStyle=orthogonalEdgeStyle;rounded=0;orthogonalLoop=1;jettySize=auto;html=1;" edge="1" parent="WIyWlLk6GJQsqaUBKTNV-1" source="wTCChwKyPf_tFk7K6GKb-10" target="wTCChwKyPf_tFk7K6GKb-17">
          <mxGeometry relative="1" as="geometry" />
        </mxCell>
        <mxCell id="wTCChwKyPf_tFk7K6GKb-10" value="MinisterTeamInfoRes" style="shape=step;perimeter=stepPerimeter;whiteSpace=wrap;html=1;fixedSize=1;rotation=0;direction=west;" vertex="1" parent="WIyWlLk6GJQsqaUBKTNV-1">
          <mxGeometry x="692" y="240" width="160" height="40" as="geometry" />
        </mxCell>
        <mxCell id="wTCChwKyPf_tFk7K6GKb-17" value="更新本地阵容数据，加载阵容列表到UI" style="rounded=0;whiteSpace=wrap;html=1;" vertex="1" parent="WIyWlLk6GJQsqaUBKTNV-1">
          <mxGeometry x="500" y="230" width="120" height="60" as="geometry" />
        </mxCell>
        <mxCell id="wTCChwKyPf_tFk7K6GKb-19" value="2" style="ellipse;whiteSpace=wrap;html=1;" vertex="1" parent="WIyWlLk6GJQsqaUBKTNV-1">
          <mxGeometry x="440" y="340" width="20" height="20" as="geometry" />
        </mxCell>
        <mxCell id="wTCChwKyPf_tFk7K6GKb-22" value="" style="edgeStyle=orthogonalEdgeStyle;rounded=0;orthogonalLoop=1;jettySize=auto;html=1;" edge="1" parent="WIyWlLk6GJQsqaUBKTNV-1" source="wTCChwKyPf_tFk7K6GKb-20" target="wTCChwKyPf_tFk7K6GKb-21">
          <mxGeometry relative="1" as="geometry" />
        </mxCell>
        <mxCell id="wTCChwKyPf_tFk7K6GKb-20" value="UI交互导致数据变动" style="rounded=0;whiteSpace=wrap;html=1;" vertex="1" parent="WIyWlLk6GJQsqaUBKTNV-1">
          <mxGeometry x="500" y="320" width="120" height="60" as="geometry" />
        </mxCell>
        <mxCell id="wTCChwKyPf_tFk7K6GKb-29" value="" style="edgeStyle=orthogonalEdgeStyle;rounded=0;orthogonalLoop=1;jettySize=auto;html=1;" edge="1" parent="WIyWlLk6GJQsqaUBKTNV-1" source="wTCChwKyPf_tFk7K6GKb-21" target="wTCChwKyPf_tFk7K6GKb-28">
          <mxGeometry relative="1" as="geometry" />
        </mxCell>
        <mxCell id="wTCChwKyPf_tFk7K6GKb-21" value="MinisterTeamUpdateReq" style="shape=step;perimeter=stepPerimeter;whiteSpace=wrap;html=1;fixedSize=1;" vertex="1" parent="WIyWlLk6GJQsqaUBKTNV-1">
          <mxGeometry x="687" y="330" width="182" height="40" as="geometry" />
        </mxCell>
        <mxCell id="wTCChwKyPf_tFk7K6GKb-49" value="" style="edgeStyle=orthogonalEdgeStyle;rounded=0;orthogonalLoop=1;jettySize=auto;html=1;entryX=0.5;entryY=0;entryDx=0;entryDy=0;" edge="1" parent="WIyWlLk6GJQsqaUBKTNV-1" source="wTCChwKyPf_tFk7K6GKb-28" target="wTCChwKyPf_tFk7K6GKb-56">
          <mxGeometry relative="1" as="geometry">
            <mxPoint x="1160" y="350" as="targetPoint" />
            <Array as="points">
              <mxPoint x="1170" y="350" />
              <mxPoint x="1170" y="240" />
            </Array>
          </mxGeometry>
        </mxCell>
        <mxCell id="wTCChwKyPf_tFk7K6GKb-28" value="服务器收到阵容信息，做合法性校验" style="whiteSpace=wrap;html=1;" vertex="1" parent="WIyWlLk6GJQsqaUBKTNV-1">
          <mxGeometry x="970" y="320" width="120" height="60" as="geometry" />
        </mxCell>
        <mxCell id="wTCChwKyPf_tFk7K6GKb-30" value="塞错误码" style="whiteSpace=wrap;html=1;" vertex="1" parent="WIyWlLk6GJQsqaUBKTNV-1">
          <mxGeometry x="1470" y="850" width="120" height="60" as="geometry" />
        </mxCell>
        <mxCell id="wTCChwKyPf_tFk7K6GKb-32" value="" style="edgeStyle=orthogonalEdgeStyle;rounded=0;orthogonalLoop=1;jettySize=auto;html=1;" edge="1" parent="WIyWlLk6GJQsqaUBKTNV-1" source="wTCChwKyPf_tFk7K6GKb-33" target="wTCChwKyPf_tFk7K6GKb-34">
          <mxGeometry relative="1" as="geometry" />
        </mxCell>
        <mxCell id="wTCChwKyPf_tFk7K6GKb-33" value="MinisterTeamUpdateRes" style="shape=step;perimeter=stepPerimeter;whiteSpace=wrap;html=1;fixedSize=1;rotation=0;direction=west;" vertex="1" parent="WIyWlLk6GJQsqaUBKTNV-1">
          <mxGeometry x="692" y="457" width="198" height="40" as="geometry" />
        </mxCell>
        <mxCell id="wTCChwKyPf_tFk7K6GKb-34" value="更新本地阵容数据，刷新阵容列表到UI" style="rounded=0;whiteSpace=wrap;html=1;" vertex="1" parent="WIyWlLk6GJQsqaUBKTNV-1">
          <mxGeometry x="500" y="447" width="120" height="60" as="geometry" />
        </mxCell>
        <mxCell id="wTCChwKyPf_tFk7K6GKb-61" value="" style="edgeStyle=orthogonalEdgeStyle;rounded=0;orthogonalLoop=1;jettySize=auto;html=1;entryX=0.5;entryY=0;entryDx=0;entryDy=0;" edge="1" parent="WIyWlLk6GJQsqaUBKTNV-1" source="wTCChwKyPf_tFk7K6GKb-56" target="wTCChwKyPf_tFk7K6GKb-58">
          <mxGeometry relative="1" as="geometry" />
        </mxCell>
        <mxCell id="wTCChwKyPf_tFk7K6GKb-56" value="&lt;span style=&quot;text-align: left;&quot;&gt;1.teamId是否越界（0-9）&lt;/span&gt;" style="rhombus;whiteSpace=wrap;html=1;rounded=0;fillColor=default;gradientColor=none;" vertex="1" parent="WIyWlLk6GJQsqaUBKTNV-1">
          <mxGeometry x="1245.5" y="240" width="110" height="80" as="geometry" />
        </mxCell>
        <mxCell id="wTCChwKyPf_tFk7K6GKb-62" value="" style="edgeStyle=orthogonalEdgeStyle;rounded=0;orthogonalLoop=1;jettySize=auto;html=1;" edge="1" parent="WIyWlLk6GJQsqaUBKTNV-1" source="wTCChwKyPf_tFk7K6GKb-58" target="wTCChwKyPf_tFk7K6GKb-59">
          <mxGeometry relative="1" as="geometry" />
        </mxCell>
        <mxCell id="wTCChwKyPf_tFk7K6GKb-58" value="&lt;span style=&quot;text-align: left;&quot;&gt;2.时代是否合法（list里的int是否符合eTimeType枚举范围）&lt;/span&gt;" style="rhombus;whiteSpace=wrap;html=1;rounded=0;fillColor=default;gradientColor=none;" vertex="1" parent="WIyWlLk6GJQsqaUBKTNV-1">
          <mxGeometry x="1221" y="353" width="159" height="110" as="geometry" />
        </mxCell>
        <mxCell id="wTCChwKyPf_tFk7K6GKb-63" value="" style="edgeStyle=orthogonalEdgeStyle;rounded=0;orthogonalLoop=1;jettySize=auto;html=1;" edge="1" parent="WIyWlLk6GJQsqaUBKTNV-1" source="wTCChwKyPf_tFk7K6GKb-59" target="wTCChwKyPf_tFk7K6GKb-60">
          <mxGeometry relative="1" as="geometry" />
        </mxCell>
        <mxCell id="wTCChwKyPf_tFk7K6GKb-59" value="&lt;span style=&quot;text-align: left;&quot;&gt;3. 每个位置的名臣，玩家是否拥有（MinisterData的Level&amp;gt;0）&lt;/span&gt;" style="rhombus;whiteSpace=wrap;html=1;rounded=0;fillColor=default;gradientColor=none;" vertex="1" parent="WIyWlLk6GJQsqaUBKTNV-1">
          <mxGeometry x="1230.5" y="503" width="140" height="110" as="geometry" />
        </mxCell>
        <mxCell id="wTCChwKyPf_tFk7K6GKb-60" value="&lt;span style=&quot;text-align: left;&quot;&gt;4. 每个位置的名臣，是否和对应的位置类型相符（MinisterBaseConfig&lt;/span&gt;&lt;br style=&quot;padding: 0px; margin: 0px; text-align: left;&quot;&gt;&lt;span style=&quot;text-align: left;&quot;&gt;里MinisterType跟位置是否符合）&lt;/span&gt;" style="rhombus;whiteSpace=wrap;html=1;rounded=0;fillColor=default;gradientColor=none;" vertex="1" parent="WIyWlLk6GJQsqaUBKTNV-1">
          <mxGeometry x="1198.25" y="653" width="204.5" height="120" as="geometry" />
        </mxCell>
        <mxCell id="wTCChwKyPf_tFk7K6GKb-64" value="" style="endArrow=classic;html=1;rounded=0;entryX=0.5;entryY=0;entryDx=0;entryDy=0;startArrow=none;" edge="1" parent="WIyWlLk6GJQsqaUBKTNV-1" source="wTCChwKyPf_tFk7K6GKb-71" target="wTCChwKyPf_tFk7K6GKb-30">
          <mxGeometry width="50" height="50" relative="1" as="geometry">
            <mxPoint x="1300" y="330" as="sourcePoint" />
            <mxPoint x="1360" y="530" as="targetPoint" />
            <Array as="points">
              <mxPoint x="1530" y="330" />
            </Array>
          </mxGeometry>
        </mxCell>
        <mxCell id="wTCChwKyPf_tFk7K6GKb-65" value="" style="endArrow=classic;html=1;rounded=0;startArrow=none;" edge="1" parent="WIyWlLk6GJQsqaUBKTNV-1" source="wTCChwKyPf_tFk7K6GKb-70">
          <mxGeometry width="50" height="50" relative="1" as="geometry">
            <mxPoint x="1300" y="480" as="sourcePoint" />
            <mxPoint x="1530" y="850" as="targetPoint" />
            <Array as="points">
              <mxPoint x="1530" y="480" />
            </Array>
          </mxGeometry>
        </mxCell>
        <mxCell id="wTCChwKyPf_tFk7K6GKb-66" value="" style="endArrow=classic;html=1;rounded=0;startArrow=none;" edge="1" parent="WIyWlLk6GJQsqaUBKTNV-1" source="wTCChwKyPf_tFk7K6GKb-69">
          <mxGeometry width="50" height="50" relative="1" as="geometry">
            <mxPoint x="1300" y="630" as="sourcePoint" />
            <mxPoint x="1530" y="810" as="targetPoint" />
            <Array as="points">
              <mxPoint x="1530" y="630" />
            </Array>
          </mxGeometry>
        </mxCell>
        <mxCell id="wTCChwKyPf_tFk7K6GKb-67" value="" style="endArrow=classic;html=1;rounded=0;exitX=0.5;exitY=1;exitDx=0;exitDy=0;entryX=0;entryY=0.5;entryDx=0;entryDy=0;" edge="1" parent="WIyWlLk6GJQsqaUBKTNV-1" source="wTCChwKyPf_tFk7K6GKb-60" target="wTCChwKyPf_tFk7K6GKb-33">
          <mxGeometry width="50" height="50" relative="1" as="geometry">
            <mxPoint x="1320" y="730" as="sourcePoint" />
            <mxPoint x="1370" y="680" as="targetPoint" />
            <Array as="points">
              <mxPoint x="1300" y="880" />
              <mxPoint x="1080" y="880" />
              <mxPoint x="1080" y="480" />
            </Array>
          </mxGeometry>
        </mxCell>
        <mxCell id="wTCChwKyPf_tFk7K6GKb-68" value="" style="endArrow=classic;html=1;rounded=0;entryX=0.5;entryY=0;entryDx=0;entryDy=0;startArrow=none;" edge="1" parent="WIyWlLk6GJQsqaUBKTNV-1" source="wTCChwKyPf_tFk7K6GKb-54" target="wTCChwKyPf_tFk7K6GKb-30">
          <mxGeometry width="50" height="50" relative="1" as="geometry">
            <mxPoint x="1300" y="840" as="sourcePoint" />
            <mxPoint x="1530" y="810" as="targetPoint" />
            <Array as="points">
              <mxPoint x="1530" y="800" />
            </Array>
          </mxGeometry>
        </mxCell>
        <mxCell id="wTCChwKyPf_tFk7K6GKb-71" value="不通过" style="rounded=1;whiteSpace=wrap;html=1;fillColor=default;gradientColor=none;" vertex="1" parent="WIyWlLk6GJQsqaUBKTNV-1">
          <mxGeometry x="1402.75" y="320" width="45" height="20" as="geometry" />
        </mxCell>
        <mxCell id="wTCChwKyPf_tFk7K6GKb-72" value="" style="endArrow=none;html=1;rounded=0;entryX=0;entryY=0.5;entryDx=0;entryDy=0;" edge="1" parent="WIyWlLk6GJQsqaUBKTNV-1" target="wTCChwKyPf_tFk7K6GKb-71">
          <mxGeometry width="50" height="50" relative="1" as="geometry">
            <mxPoint x="1300" y="330" as="sourcePoint" />
            <mxPoint x="1530" y="810" as="targetPoint" />
            <Array as="points" />
          </mxGeometry>
        </mxCell>
        <mxCell id="wTCChwKyPf_tFk7K6GKb-70" value="不通过" style="rounded=1;whiteSpace=wrap;html=1;fillColor=default;gradientColor=none;" vertex="1" parent="WIyWlLk6GJQsqaUBKTNV-1">
          <mxGeometry x="1402.75" y="468.5" width="45" height="21.5" as="geometry" />
        </mxCell>
        <mxCell id="wTCChwKyPf_tFk7K6GKb-73" value="" style="endArrow=none;html=1;rounded=0;" edge="1" parent="WIyWlLk6GJQsqaUBKTNV-1" target="wTCChwKyPf_tFk7K6GKb-70">
          <mxGeometry width="50" height="50" relative="1" as="geometry">
            <mxPoint x="1300" y="480" as="sourcePoint" />
            <mxPoint x="1530" y="580" as="targetPoint" />
            <Array as="points" />
          </mxGeometry>
        </mxCell>
        <mxCell id="wTCChwKyPf_tFk7K6GKb-69" value="不通过" style="rounded=1;whiteSpace=wrap;html=1;fillColor=default;gradientColor=none;" vertex="1" parent="WIyWlLk6GJQsqaUBKTNV-1">
          <mxGeometry x="1402.75" y="620" width="45" height="20" as="geometry" />
        </mxCell>
        <mxCell id="wTCChwKyPf_tFk7K6GKb-76" value="" style="endArrow=none;html=1;rounded=0;" edge="1" parent="WIyWlLk6GJQsqaUBKTNV-1" target="wTCChwKyPf_tFk7K6GKb-69">
          <mxGeometry width="50" height="50" relative="1" as="geometry">
            <mxPoint x="1300" y="630" as="sourcePoint" />
            <mxPoint x="1530" y="810" as="targetPoint" />
            <Array as="points" />
          </mxGeometry>
        </mxCell>
        <mxCell id="wTCChwKyPf_tFk7K6GKb-77" value="" style="endArrow=classic;html=1;rounded=0;exitX=0;exitY=0.5;exitDx=0;exitDy=0;entryX=0;entryY=0.5;entryDx=0;entryDy=0;" edge="1" parent="WIyWlLk6GJQsqaUBKTNV-1" source="wTCChwKyPf_tFk7K6GKb-30" target="wTCChwKyPf_tFk7K6GKb-33">
          <mxGeometry width="50" height="50" relative="1" as="geometry">
            <mxPoint x="1410" y="740" as="sourcePoint" />
            <mxPoint x="1460" y="690" as="targetPoint" />
            <Array as="points">
              <mxPoint x="1310" y="880" />
              <mxPoint x="1080" y="880" />
              <mxPoint x="1080" y="480" />
            </Array>
          </mxGeometry>
        </mxCell>
        <mxCell id="wTCChwKyPf_tFk7K6GKb-54" value="不通过" style="rounded=1;whiteSpace=wrap;html=1;fillColor=default;gradientColor=none;" vertex="1" parent="WIyWlLk6GJQsqaUBKTNV-1">
          <mxGeometry x="1402.75" y="790" width="45" height="20" as="geometry" />
        </mxCell>
        <mxCell id="wTCChwKyPf_tFk7K6GKb-79" value="" style="endArrow=none;html=1;rounded=0;entryX=0;entryY=0.5;entryDx=0;entryDy=0;" edge="1" parent="WIyWlLk6GJQsqaUBKTNV-1" target="wTCChwKyPf_tFk7K6GKb-54">
          <mxGeometry width="50" height="50" relative="1" as="geometry">
            <mxPoint x="1300" y="800" as="sourcePoint" />
            <mxPoint x="1530" y="850" as="targetPoint" />
            <Array as="points" />
          </mxGeometry>
        </mxCell>
      </root>
    </mxGraphModel>
  </diagram>
</mxfile>
